%TF.GenerationSoftware,KiCad,Pcbnew,8.0.4*%
%TF.CreationDate,2024-10-19T15:51:41+03:00*%
%TF.ProjectId,robotkarti,726f626f-746b-4617-9274-692e6b696361,rev?*%
%TF.SameCoordinates,Original*%
%TF.FileFunction,Copper,L2,Bot*%
%TF.FilePolarity,Positive*%
%FSLAX46Y46*%
G04 Gerber Fmt 4.6, Leading zero omitted, Abs format (unit mm)*
G04 Created by KiCad (PCBNEW 8.0.4) date 2024-10-19 15:51:41*
%MOMM*%
%LPD*%
G01*
G04 APERTURE LIST*
G04 Aperture macros list*
%AMRoundRect*
0 Rectangle with rounded corners*
0 $1 Rounding radius*
0 $2 $3 $4 $5 $6 $7 $8 $9 X,Y pos of 4 corners*
0 Add a 4 corners polygon primitive as box body*
4,1,4,$2,$3,$4,$5,$6,$7,$8,$9,$2,$3,0*
0 Add four circle primitives for the rounded corners*
1,1,$1+$1,$2,$3*
1,1,$1+$1,$4,$5*
1,1,$1+$1,$6,$7*
1,1,$1+$1,$8,$9*
0 Add four rect primitives between the rounded corners*
20,1,$1+$1,$2,$3,$4,$5,0*
20,1,$1+$1,$4,$5,$6,$7,0*
20,1,$1+$1,$6,$7,$8,$9,0*
20,1,$1+$1,$8,$9,$2,$3,0*%
G04 Aperture macros list end*
%TA.AperFunction,ComponentPad*%
%ADD10R,1.600000X1.600000*%
%TD*%
%TA.AperFunction,ComponentPad*%
%ADD11O,1.600000X1.600000*%
%TD*%
%TA.AperFunction,ComponentPad*%
%ADD12O,2.000000X1.905000*%
%TD*%
%TA.AperFunction,ComponentPad*%
%ADD13R,2.000000X1.905000*%
%TD*%
%TA.AperFunction,ComponentPad*%
%ADD14C,2.000000*%
%TD*%
%TA.AperFunction,ComponentPad*%
%ADD15C,1.400000*%
%TD*%
%TA.AperFunction,ComponentPad*%
%ADD16O,1.400000X1.400000*%
%TD*%
%TA.AperFunction,ComponentPad*%
%ADD17O,1.700000X1.700000*%
%TD*%
%TA.AperFunction,ComponentPad*%
%ADD18R,1.700000X1.700000*%
%TD*%
%TA.AperFunction,ComponentPad*%
%ADD19RoundRect,0.250000X0.620000X0.845000X-0.620000X0.845000X-0.620000X-0.845000X0.620000X-0.845000X0*%
%TD*%
%TA.AperFunction,ComponentPad*%
%ADD20O,1.740000X2.190000*%
%TD*%
%TA.AperFunction,ComponentPad*%
%ADD21R,1.800000X1.800000*%
%TD*%
%TA.AperFunction,ComponentPad*%
%ADD22C,1.800000*%
%TD*%
%TA.AperFunction,ComponentPad*%
%ADD23C,1.600000*%
%TD*%
%TA.AperFunction,ComponentPad*%
%ADD24R,2.000000X2.000000*%
%TD*%
%TA.AperFunction,ViaPad*%
%ADD25C,0.600000*%
%TD*%
%TA.AperFunction,Conductor*%
%ADD26C,0.200000*%
%TD*%
%TA.AperFunction,Conductor*%
%ADD27C,0.300000*%
%TD*%
G04 APERTURE END LIST*
D10*
%TO.P,U2,1,EN1\u002C2*%
%TO.N,MOTOR1_PWM*%
X160675004Y-75520000D03*
D11*
%TO.P,U2,2,1A*%
%TO.N,MOTOR1_FORWARD*%
X160675004Y-72980000D03*
%TO.P,U2,3,1Y*%
%TO.N,Net-(J2-Pin_2)*%
X160675004Y-70440000D03*
%TO.P,U2,4,GND*%
%TO.N,GND*%
X160675004Y-67900000D03*
%TO.P,U2,5,GND*%
X160675004Y-65360000D03*
%TO.P,U2,6,2Y*%
%TO.N,Net-(J2-Pin_1)*%
X160675004Y-62820000D03*
%TO.P,U2,7,2A*%
%TO.N,MOTOR1_BACK*%
X160675004Y-60280000D03*
%TO.P,U2,8,VCC2*%
%TO.N,5V_OUT*%
X160675004Y-57740000D03*
%TO.P,U2,9,EN3\u002C4*%
%TO.N,MOTOR2_PWM*%
X168295004Y-57740000D03*
%TO.P,U2,10,3A*%
%TO.N,MOTOR2_FORWARD*%
X168295004Y-60280000D03*
%TO.P,U2,11,3Y*%
%TO.N,Net-(J3-Pin_2)*%
X168295004Y-62820000D03*
%TO.P,U2,12,GND*%
%TO.N,GND*%
X168295004Y-65360000D03*
%TO.P,U2,13,GND*%
X168295004Y-67900000D03*
%TO.P,U2,14,4Y*%
%TO.N,Net-(J3-Pin_1)*%
X168295004Y-70440000D03*
%TO.P,U2,15,4A*%
%TO.N,MOTOR2_BACK*%
X168295004Y-72980000D03*
%TO.P,U2,16,VCC1*%
%TO.N,12V_OUT*%
X168295004Y-75520000D03*
%TD*%
D12*
%TO.P,U1,3,VO*%
%TO.N,5V_OUT*%
X139655004Y-60830000D03*
%TO.P,U1,2,GND*%
%TO.N,GND*%
X139655004Y-58290000D03*
D13*
%TO.P,U1,1,VI*%
%TO.N,Net-(U1-VI)*%
X139655004Y-55750000D03*
%TD*%
D14*
%TO.P,SW2,2,2*%
%TO.N,BUTTON*%
X117175004Y-74230000D03*
X117175004Y-80730000D03*
%TO.P,SW2,1,1*%
%TO.N,GND*%
X121675004Y-74230000D03*
X121675004Y-80730000D03*
%TD*%
D15*
%TO.P,R8,1*%
%TO.N,M2F_LED*%
X159925004Y-104480000D03*
D16*
%TO.P,R8,2*%
%TO.N,Net-(D6-A)*%
X159925004Y-99400000D03*
%TD*%
D15*
%TO.P,R7,1*%
%TO.N,M2B_LED*%
X159925004Y-113005000D03*
D16*
%TO.P,R7,2*%
%TO.N,Net-(D5-A)*%
X159925004Y-107925000D03*
%TD*%
D15*
%TO.P,R6,1*%
%TO.N,M1B_LED*%
X159925004Y-95755000D03*
D16*
%TO.P,R6,2*%
%TO.N,Net-(D4-A)*%
X159925004Y-90675000D03*
%TD*%
%TO.P,R5,2*%
%TO.N,Net-(D3-A)*%
X159925004Y-82425000D03*
D15*
%TO.P,R5,1*%
%TO.N,M1F_LED*%
X159925004Y-87505000D03*
%TD*%
%TO.P,R4,1*%
%TO.N,BUZZER*%
X131175004Y-68270000D03*
D16*
%TO.P,R4,2*%
%TO.N,Net-(BZ1-+)*%
X131175004Y-63190000D03*
%TD*%
D15*
%TO.P,R3,1*%
%TO.N,BUTTON*%
X127175004Y-80270000D03*
D16*
%TO.P,R3,2*%
%TO.N,5V_OUT*%
X127175004Y-75190000D03*
%TD*%
D15*
%TO.P,R2,1*%
%TO.N,Net-(D2-A)*%
X150925004Y-76940000D03*
D16*
%TO.P,R2,2*%
%TO.N,LED*%
X150925004Y-82020000D03*
%TD*%
D15*
%TO.P,R1,1*%
%TO.N,5V_OUT*%
X136405004Y-49500000D03*
D16*
%TO.P,R1,2*%
%TO.N,Net-(D1-A)*%
X131325004Y-49500000D03*
%TD*%
D17*
%TO.P,J8,4,Pin_4*%
%TO.N,SENSOR4*%
X152150004Y-106550000D03*
%TO.P,J8,3,Pin_3*%
%TO.N,SENSOR3*%
X152150004Y-104010000D03*
%TO.P,J8,2,Pin_2*%
%TO.N,SENSOR2*%
X152150004Y-101470000D03*
D18*
%TO.P,J8,1,Pin_1*%
%TO.N,SENSOR1*%
X152150004Y-98930000D03*
%TD*%
D17*
%TO.P,USER,3,Pin_3*%
%TO.N,USER_IO_2*%
X124980004Y-88255000D03*
%TO.P,USER,2,Pin_2*%
%TO.N,USER_IO_1*%
X122440004Y-88255000D03*
D18*
%TO.P,USER,1,Pin_1*%
%TO.N,USER_PWM*%
X119900004Y-88255000D03*
%TD*%
D17*
%TO.P,GND,3,Pin_3*%
%TO.N,GND*%
X115425004Y-52980000D03*
%TO.P,GND,2,Pin_2*%
X115425004Y-50440000D03*
D18*
%TO.P,GND,1,Pin_1*%
X115425004Y-47900000D03*
%TD*%
D17*
%TO.P,+3.3V,3,Pin_3*%
%TO.N,3.3V_OUT*%
X120075004Y-52980000D03*
%TO.P,+3.3V,2,Pin_2*%
X120075004Y-50440000D03*
D18*
%TO.P,+3.3V,1,Pin_1*%
X120075004Y-47900000D03*
%TD*%
D17*
%TO.P,+5V,3,Pin_3*%
%TO.N,5V_OUT*%
X124725004Y-52980000D03*
%TO.P,+5V,2,Pin_2*%
X124725004Y-50440000D03*
D18*
%TO.P,+5V,1,Pin_1*%
X124725004Y-47900000D03*
%TD*%
D19*
%TO.P,MOTOR 2,1,Pin_1*%
%TO.N,Net-(J3-Pin_1)*%
X169465004Y-49230000D03*
D20*
%TO.P,MOTOR 2,2,Pin_2*%
%TO.N,Net-(J3-Pin_2)*%
X166925004Y-49230000D03*
%TD*%
%TO.P,MOTOR 1,2,Pin_2*%
%TO.N,Net-(J2-Pin_2)*%
X159175004Y-49230000D03*
D19*
%TO.P,MOTOR 1,1,Pin_1*%
%TO.N,Net-(J2-Pin_1)*%
X161715004Y-49230000D03*
%TD*%
D20*
%TO.P,12V-GND,2,Pin_2*%
%TO.N,GND*%
X150155004Y-49500000D03*
D19*
%TO.P,12V-GND,1,Pin_1*%
%TO.N,+12V*%
X152695004Y-49500000D03*
%TD*%
D21*
%TO.P,D6,1,K*%
%TO.N,GND*%
X165925004Y-103230000D03*
D22*
%TO.P,D6,2,A*%
%TO.N,Net-(D6-A)*%
X165925004Y-100690000D03*
%TD*%
D21*
%TO.P,D5,1,K*%
%TO.N,GND*%
X165925004Y-111755000D03*
D22*
%TO.P,D5,2,A*%
%TO.N,Net-(D5-A)*%
X165925004Y-109215000D03*
%TD*%
%TO.P,D4,2,A*%
%TO.N,Net-(D4-A)*%
X165925004Y-91965000D03*
D21*
%TO.P,D4,1,K*%
%TO.N,GND*%
X165925004Y-94505000D03*
%TD*%
D22*
%TO.P,D3,2,A*%
%TO.N,Net-(D3-A)*%
X165925004Y-83715000D03*
D21*
%TO.P,D3,1,K*%
%TO.N,GND*%
X165925004Y-86255000D03*
%TD*%
D22*
%TO.P,D2,2,A*%
%TO.N,Net-(D2-A)*%
X150385004Y-69480000D03*
D21*
%TO.P,D2,1,K*%
%TO.N,GND*%
X152925004Y-69480000D03*
%TD*%
D22*
%TO.P,D1,2,A*%
%TO.N,Net-(D1-A)*%
X131405004Y-55000000D03*
D21*
%TO.P,D1,1,K*%
%TO.N,GND*%
X131405004Y-57540000D03*
%TD*%
D23*
%TO.P,C2,2*%
%TO.N,GND*%
X140905004Y-48250000D03*
%TO.P,C2,1*%
%TO.N,5V_OUT*%
X140905004Y-50750000D03*
%TD*%
%TO.P,C1,2*%
%TO.N,GND*%
X145905004Y-48250000D03*
%TO.P,C1,1*%
%TO.N,Net-(U1-VI)*%
X145905004Y-50750000D03*
%TD*%
D14*
%TO.P,BZ1,2,-*%
%TO.N,GND*%
X120675004Y-60230000D03*
D24*
%TO.P,BZ1,1,+*%
%TO.N,Net-(BZ1-+)*%
X120675004Y-67830000D03*
%TD*%
D11*
%TO.P,A1,30,VIN*%
%TO.N,5V_OUT*%
X146555004Y-113280000D03*
%TO.P,A1,29,GND*%
%TO.N,GND*%
X146555004Y-110740000D03*
%TO.P,A1,28,~{RESET}*%
%TO.N,unconnected-(A1-~{RESET}-Pad28)*%
X146555004Y-108200000D03*
%TO.P,A1,27,+5V*%
%TO.N,unconnected-(A1-+5V-Pad27)*%
X146555004Y-105660000D03*
%TO.P,A1,26,A7*%
%TO.N,SENSOR4*%
X146555004Y-103120000D03*
%TO.P,A1,25,A6*%
%TO.N,SENSOR3*%
X146555004Y-100580000D03*
%TO.P,A1,24,A5*%
%TO.N,SENSOR2*%
X146555004Y-98040000D03*
%TO.P,A1,23,A4*%
%TO.N,SENSOR1*%
X146555004Y-95500000D03*
%TO.P,A1,22,A3*%
%TO.N,M2B_LED*%
X146555004Y-92960000D03*
%TO.P,A1,21,A2*%
%TO.N,M2F_LED*%
X146555004Y-90420000D03*
%TO.P,A1,20,A1*%
%TO.N,M1B_LED*%
X146555004Y-87880000D03*
%TO.P,A1,19,A0*%
%TO.N,M1F_LED*%
X146555004Y-85340000D03*
%TO.P,A1,18,AREF*%
%TO.N,unconnected-(A1-AREF-Pad18)*%
X146555004Y-82800000D03*
%TO.P,A1,17,3V3*%
%TO.N,3.3V_OUT*%
X146555004Y-80260000D03*
%TO.P,A1,16,D13*%
%TO.N,LED*%
X146555004Y-77720000D03*
%TO.P,A1,15,D12*%
%TO.N,BUZZER*%
X131315004Y-77720000D03*
%TO.P,A1,14,D11*%
%TO.N,BUTTON*%
X131315004Y-80260000D03*
%TO.P,A1,13,D10*%
%TO.N,MOTOR2_PWM*%
X131315004Y-82800000D03*
%TO.P,A1,12,D9*%
%TO.N,MOTOR1_PWM*%
X131315004Y-85340000D03*
%TO.P,A1,11,D8*%
%TO.N,USER_IO_2*%
X131315004Y-87880000D03*
%TO.P,A1,10,D7*%
%TO.N,USER_IO_1*%
X131315004Y-90420000D03*
%TO.P,A1,9,D6*%
%TO.N,USER_PWM*%
X131315004Y-92960000D03*
%TO.P,A1,8,D5*%
%TO.N,MOTOR2_BACK*%
X131315004Y-95500000D03*
%TO.P,A1,7,D4*%
%TO.N,MOTOR2_FORWARD*%
X131315004Y-98040000D03*
%TO.P,A1,6,D3*%
%TO.N,MOTOR1_BACK*%
X131315004Y-100580000D03*
%TO.P,A1,5,D2*%
%TO.N,MOTOR1_FORWARD*%
X131315004Y-103120000D03*
%TO.P,A1,4,GND*%
%TO.N,GND*%
X131315004Y-105660000D03*
%TO.P,A1,3,~{RESET}*%
%TO.N,unconnected-(A1-~{RESET}-Pad3)*%
X131315004Y-108200000D03*
%TO.P,A1,2,D0/RX*%
%TO.N,unconnected-(A1-D0{slash}RX-Pad2)*%
X131315004Y-110740000D03*
D10*
%TO.P,A1,1,D1/TX*%
%TO.N,unconnected-(A1-D1{slash}TX-Pad1)*%
X131315004Y-113280000D03*
%TD*%
D11*
%TO.P,SW1,4*%
%TO.N,Net-(U1-VI)*%
X145655004Y-57750000D03*
%TO.P,SW1,3*%
%TO.N,12V_OUT*%
X145655004Y-60290000D03*
%TO.P,SW1,2*%
%TO.N,+12V*%
X153275004Y-60290000D03*
D10*
%TO.P,SW1,1*%
X153275004Y-57750000D03*
%TD*%
D25*
%TO.N,5V_OUT*%
X127815004Y-72250000D03*
%TO.N,3.3V_OUT*%
X137815004Y-68250000D03*
X142065004Y-68250000D03*
%TO.N,MOTOR1_PWM*%
X154175004Y-80480000D03*
X159675004Y-80480000D03*
%TO.N,MOTOR2_BACK*%
X137675004Y-113230000D03*
X137675004Y-99230000D03*
%TO.N,MOTOR2_FORWARD*%
X135925004Y-108730000D03*
X135925004Y-99230000D03*
%TO.N,MOTOR1_BACK*%
X155925004Y-114480000D03*
X155925004Y-117980000D03*
X134675004Y-104730000D03*
X134675004Y-101480000D03*
%TD*%
D26*
%TO.N,5V_OUT*%
X133065004Y-62750000D02*
X134985004Y-60830000D01*
X134985004Y-60830000D02*
X139655004Y-60830000D01*
X133065004Y-71250000D02*
X133065004Y-62750000D01*
X132065004Y-72250000D02*
X133065004Y-71250000D01*
X127815004Y-72250000D02*
X132065004Y-72250000D01*
%TO.N,3.3V_OUT*%
X142065004Y-68250000D02*
X137815004Y-68250000D01*
%TO.N,MOTOR1_PWM*%
X136425004Y-74980000D02*
X137425004Y-73980000D01*
X154175004Y-74730000D02*
X154175004Y-80480000D01*
X136425004Y-81980000D02*
X136425004Y-74980000D01*
X133065004Y-85340000D02*
X136425004Y-81980000D01*
X153425004Y-73980000D02*
X154175004Y-74730000D01*
X137425004Y-73980000D02*
X153425004Y-73980000D01*
X131315004Y-85340000D02*
X133065004Y-85340000D01*
X160675004Y-79480000D02*
X159675004Y-80480000D01*
X160675004Y-75520000D02*
X160675004Y-79480000D01*
D27*
%TO.N,MOTOR2_PWM*%
X133355004Y-82800000D02*
X131315004Y-82800000D01*
X134675004Y-67230000D02*
X134675004Y-81480000D01*
X136175004Y-65730000D02*
X134675004Y-67230000D01*
X134675004Y-81480000D02*
X133355004Y-82800000D01*
X141925004Y-65730000D02*
X136175004Y-65730000D01*
X144175004Y-54230000D02*
X142925004Y-55480000D01*
X142925004Y-55480000D02*
X142925004Y-64730000D01*
X163425004Y-54230000D02*
X144175004Y-54230000D01*
X164425004Y-55230000D02*
X163425004Y-54230000D01*
X167425004Y-55230000D02*
X164425004Y-55230000D01*
X168295004Y-56100000D02*
X167425004Y-55230000D01*
X168295004Y-57740000D02*
X168295004Y-56100000D01*
X142925004Y-64730000D02*
X141925004Y-65730000D01*
%TO.N,MOTOR2_BACK*%
X169675004Y-72980000D02*
X168295004Y-72980000D01*
X171175004Y-74480000D02*
X169675004Y-72980000D01*
X171175004Y-116980000D02*
X171175004Y-74480000D01*
X166425004Y-121730000D02*
X171175004Y-116980000D01*
X143175004Y-121730000D02*
X166425004Y-121730000D01*
X139175004Y-117730000D02*
X143175004Y-121730000D01*
X139175004Y-114730000D02*
X139175004Y-117730000D01*
X137675004Y-113230000D02*
X139175004Y-114730000D01*
X137675004Y-96980000D02*
X137675004Y-99230000D01*
X136195004Y-95500000D02*
X137675004Y-96980000D01*
X131315004Y-95500000D02*
X136195004Y-95500000D01*
%TO.N,MOTOR2_FORWARD*%
X165675004Y-61480000D02*
X166875004Y-60280000D01*
X165675004Y-79230000D02*
X165675004Y-61480000D01*
X166675004Y-80230000D02*
X165675004Y-79230000D01*
X169925004Y-81480000D02*
X168675004Y-80230000D01*
X169925004Y-115980000D02*
X169925004Y-81480000D01*
X168675004Y-80230000D02*
X166675004Y-80230000D01*
X144175004Y-120230000D02*
X165675004Y-120230000D01*
X166875004Y-60280000D02*
X168295004Y-60280000D01*
X140675004Y-116730000D02*
X144175004Y-120230000D01*
X165675004Y-120230000D02*
X169925004Y-115980000D01*
X140675004Y-113480000D02*
X140675004Y-116730000D01*
X135925004Y-108730000D02*
X140675004Y-113480000D01*
X134735004Y-98040000D02*
X135925004Y-99230000D01*
X131315004Y-98040000D02*
X134735004Y-98040000D01*
%TO.N,MOTOR1_FORWARD*%
X158675004Y-72980000D02*
X160675004Y-72980000D01*
X157175004Y-74480000D02*
X158675004Y-72980000D01*
X155675004Y-116730000D02*
X157175004Y-115230000D01*
X144175004Y-116730000D02*
X155675004Y-116730000D01*
X143675004Y-116230000D02*
X144175004Y-116730000D01*
X141065004Y-103120000D02*
X143675004Y-105730000D01*
X131315004Y-103120000D02*
X141065004Y-103120000D01*
X143675004Y-105730000D02*
X143675004Y-116230000D01*
X157175004Y-115230000D02*
X157175004Y-74480000D01*
%TO.N,MOTOR1_BACK*%
X157125004Y-60280000D02*
X160675004Y-60280000D01*
X155925004Y-61480000D02*
X157125004Y-60280000D01*
X155925004Y-114480000D02*
X155925004Y-61480000D01*
X155175004Y-118730000D02*
X155925004Y-117980000D01*
X154425004Y-118730000D02*
X155175004Y-118730000D01*
X144425004Y-118730000D02*
X154425004Y-118730000D01*
X141925004Y-107730000D02*
X141925004Y-116230000D01*
X140425004Y-106230000D02*
X141925004Y-107730000D01*
X139175004Y-106230000D02*
X140425004Y-106230000D01*
X141925004Y-116230000D02*
X144425004Y-118730000D01*
X134675004Y-104730000D02*
X136175004Y-106230000D01*
X136175004Y-106230000D02*
X139175004Y-106230000D01*
X133775004Y-100580000D02*
X134675004Y-101480000D01*
X131315004Y-100580000D02*
X133775004Y-100580000D01*
%TD*%
%TA.AperFunction,Conductor*%
%TO.N,GND*%
G36*
X163171235Y-54900185D02*
G01*
X163191877Y-54916819D01*
X164010329Y-55735272D01*
X164010336Y-55735278D01*
X164089430Y-55788126D01*
X164116878Y-55806466D01*
X164186225Y-55835189D01*
X164235260Y-55855501D01*
X164235263Y-55855501D01*
X164235264Y-55855502D01*
X164360932Y-55880500D01*
X164360935Y-55880500D01*
X167104196Y-55880500D01*
X167171235Y-55900185D01*
X167191877Y-55916819D01*
X167608185Y-56333127D01*
X167641670Y-56394450D01*
X167644504Y-56420808D01*
X167644504Y-56543316D01*
X167624819Y-56610355D01*
X167591627Y-56644891D01*
X167455863Y-56739953D01*
X167294958Y-56900858D01*
X167164436Y-57087265D01*
X167164435Y-57087267D01*
X167068265Y-57293502D01*
X167068262Y-57293511D01*
X167009370Y-57513302D01*
X167009368Y-57513313D01*
X166989536Y-57739998D01*
X166989536Y-57740001D01*
X167009368Y-57966686D01*
X167009370Y-57966697D01*
X167068262Y-58186488D01*
X167068265Y-58186497D01*
X167164435Y-58392732D01*
X167164436Y-58392734D01*
X167294958Y-58579141D01*
X167455862Y-58740045D01*
X167455865Y-58740047D01*
X167642270Y-58870568D01*
X167700279Y-58897618D01*
X167752718Y-58943791D01*
X167771870Y-59010984D01*
X167751654Y-59077865D01*
X167700279Y-59122382D01*
X167642271Y-59149431D01*
X167642269Y-59149432D01*
X167455862Y-59279954D01*
X167294958Y-59440858D01*
X167199896Y-59576623D01*
X167145319Y-59620248D01*
X167098321Y-59629500D01*
X166810933Y-59629500D01*
X166685265Y-59654497D01*
X166685259Y-59654499D01*
X166566874Y-59703535D01*
X166460335Y-59774722D01*
X166460328Y-59774728D01*
X165169730Y-61065326D01*
X165169727Y-61065331D01*
X165127092Y-61129141D01*
X165109217Y-61155893D01*
X165098537Y-61171876D01*
X165049503Y-61290255D01*
X165049501Y-61290261D01*
X165024504Y-61415928D01*
X165024504Y-79294070D01*
X165030183Y-79322620D01*
X165035862Y-79351169D01*
X165035863Y-79351171D01*
X165035863Y-79351173D01*
X165044248Y-79393329D01*
X165049503Y-79419744D01*
X165098539Y-79538127D01*
X165163478Y-79635316D01*
X165169730Y-79644673D01*
X166260329Y-80735272D01*
X166260335Y-80735277D01*
X166366878Y-80806466D01*
X166436225Y-80835189D01*
X166485260Y-80855501D01*
X166485263Y-80855501D01*
X166485264Y-80855502D01*
X166610932Y-80880500D01*
X166610935Y-80880500D01*
X168354196Y-80880500D01*
X168421235Y-80900185D01*
X168441877Y-80916819D01*
X169238185Y-81713127D01*
X169271670Y-81774450D01*
X169274504Y-81800808D01*
X169274504Y-115659192D01*
X169254819Y-115726231D01*
X169238185Y-115746873D01*
X165441877Y-119543181D01*
X165380554Y-119576666D01*
X165354196Y-119579500D01*
X155447356Y-119579500D01*
X155380317Y-119559815D01*
X155334562Y-119507011D01*
X155324618Y-119437853D01*
X155353643Y-119374297D01*
X155399904Y-119340939D01*
X155483127Y-119306467D01*
X155483128Y-119306466D01*
X155483131Y-119306465D01*
X155589673Y-119235277D01*
X156023229Y-118801719D01*
X156084548Y-118768237D01*
X156097023Y-118766183D01*
X156104259Y-118765368D01*
X156274526Y-118705789D01*
X156427266Y-118609816D01*
X156554820Y-118482262D01*
X156650793Y-118329522D01*
X156710372Y-118159255D01*
X156712015Y-118144673D01*
X156730569Y-117980003D01*
X156730569Y-117979996D01*
X156710373Y-117800750D01*
X156710372Y-117800745D01*
X156650792Y-117630476D01*
X156611586Y-117568080D01*
X156554820Y-117477738D01*
X156427266Y-117350184D01*
X156427260Y-117350179D01*
X156281033Y-117258298D01*
X156234742Y-117205964D01*
X156224094Y-117136910D01*
X156252469Y-117073062D01*
X156259311Y-117065637D01*
X157680280Y-115644670D01*
X157751469Y-115538127D01*
X157800505Y-115419744D01*
X157803729Y-115403534D01*
X157825504Y-115294069D01*
X157825504Y-113004999D01*
X158719361Y-113004999D01*
X158719361Y-113005000D01*
X158739888Y-113226535D01*
X158739889Y-113226537D01*
X158800773Y-113440523D01*
X158800779Y-113440538D01*
X158899942Y-113639683D01*
X158899947Y-113639691D01*
X159034024Y-113817238D01*
X159198441Y-113967123D01*
X159198443Y-113967125D01*
X159387599Y-114084245D01*
X159387600Y-114084245D01*
X159387603Y-114084247D01*
X159595064Y-114164618D01*
X159813761Y-114205500D01*
X159813763Y-114205500D01*
X160036245Y-114205500D01*
X160036247Y-114205500D01*
X160254944Y-114164618D01*
X160462405Y-114084247D01*
X160651566Y-113967124D01*
X160815985Y-113817236D01*
X160950062Y-113639689D01*
X161049233Y-113440528D01*
X161110119Y-113226536D01*
X161130647Y-113005000D01*
X161127680Y-112972985D01*
X161110119Y-112783464D01*
X161110118Y-112783462D01*
X161104119Y-112762379D01*
X161049233Y-112569472D01*
X160987070Y-112444632D01*
X160950065Y-112370316D01*
X160950060Y-112370308D01*
X160815983Y-112192761D01*
X160651566Y-112042876D01*
X160651564Y-112042874D01*
X160462408Y-111925754D01*
X160462402Y-111925752D01*
X160254944Y-111845382D01*
X160036247Y-111804500D01*
X159813761Y-111804500D01*
X159595064Y-111845382D01*
X159463868Y-111896207D01*
X159387605Y-111925752D01*
X159387599Y-111925754D01*
X159198443Y-112042874D01*
X159198441Y-112042876D01*
X159034024Y-112192761D01*
X158899947Y-112370308D01*
X158899942Y-112370316D01*
X158800779Y-112569461D01*
X158800773Y-112569476D01*
X158739889Y-112783462D01*
X158739888Y-112783464D01*
X158719361Y-113004999D01*
X157825504Y-113004999D01*
X157825504Y-109214993D01*
X164519704Y-109214993D01*
X164519704Y-109215006D01*
X164538868Y-109446297D01*
X164538870Y-109446308D01*
X164595846Y-109671300D01*
X164689079Y-109883848D01*
X164816022Y-110078150D01*
X164911171Y-110181510D01*
X164942093Y-110244164D01*
X164934232Y-110313590D01*
X164890085Y-110367746D01*
X164863275Y-110381674D01*
X164782915Y-110411646D01*
X164782910Y-110411649D01*
X164667816Y-110497809D01*
X164667813Y-110497812D01*
X164581653Y-110612906D01*
X164581649Y-110612913D01*
X164531407Y-110747620D01*
X164531405Y-110747627D01*
X164525004Y-110807155D01*
X164525004Y-111505000D01*
X165549726Y-111505000D01*
X165505671Y-111581306D01*
X165475004Y-111695756D01*
X165475004Y-111814244D01*
X165505671Y-111928694D01*
X165549726Y-112005000D01*
X164525004Y-112005000D01*
X164525004Y-112702844D01*
X164531405Y-112762372D01*
X164531407Y-112762379D01*
X164581649Y-112897086D01*
X164581653Y-112897093D01*
X164667813Y-113012187D01*
X164667816Y-113012190D01*
X164782910Y-113098350D01*
X164782917Y-113098354D01*
X164917624Y-113148596D01*
X164917631Y-113148598D01*
X164977159Y-113154999D01*
X164977176Y-113155000D01*
X165675004Y-113155000D01*
X165675004Y-112130277D01*
X165751310Y-112174333D01*
X165865760Y-112205000D01*
X165984248Y-112205000D01*
X166098698Y-112174333D01*
X166175004Y-112130277D01*
X166175004Y-113155000D01*
X166872832Y-113155000D01*
X166872848Y-113154999D01*
X166932376Y-113148598D01*
X166932383Y-113148596D01*
X167067090Y-113098354D01*
X167067097Y-113098350D01*
X167182191Y-113012190D01*
X167182194Y-113012187D01*
X167268354Y-112897093D01*
X167268358Y-112897086D01*
X167318600Y-112762379D01*
X167318602Y-112762372D01*
X167325003Y-112702844D01*
X167325004Y-112702827D01*
X167325004Y-112005000D01*
X166300282Y-112005000D01*
X166344337Y-111928694D01*
X166375004Y-111814244D01*
X166375004Y-111695756D01*
X166344337Y-111581306D01*
X166300282Y-111505000D01*
X167325004Y-111505000D01*
X167325004Y-110807172D01*
X167325003Y-110807155D01*
X167318602Y-110747627D01*
X167318600Y-110747620D01*
X167268358Y-110612913D01*
X167268354Y-110612906D01*
X167182194Y-110497812D01*
X167182191Y-110497809D01*
X167067097Y-110411649D01*
X167067090Y-110411645D01*
X166986733Y-110381674D01*
X166930799Y-110339803D01*
X166906382Y-110274338D01*
X166921234Y-110206065D01*
X166938830Y-110181516D01*
X167033983Y-110078153D01*
X167160928Y-109883849D01*
X167254161Y-109671300D01*
X167311138Y-109446305D01*
X167311139Y-109446297D01*
X167330304Y-109215006D01*
X167330304Y-109214993D01*
X167311139Y-108983702D01*
X167311137Y-108983691D01*
X167254161Y-108758699D01*
X167160928Y-108546151D01*
X167033987Y-108351852D01*
X167033984Y-108351849D01*
X167033983Y-108351847D01*
X166876788Y-108181087D01*
X166876783Y-108181083D01*
X166876781Y-108181081D01*
X166693638Y-108038535D01*
X166693632Y-108038531D01*
X166489508Y-107928064D01*
X166489499Y-107928061D01*
X166269988Y-107852702D01*
X166097390Y-107823901D01*
X166041053Y-107814500D01*
X165808955Y-107814500D01*
X165763168Y-107822140D01*
X165580019Y-107852702D01*
X165360508Y-107928061D01*
X165360499Y-107928064D01*
X165156375Y-108038531D01*
X165156369Y-108038535D01*
X164973226Y-108181081D01*
X164973223Y-108181084D01*
X164973220Y-108181086D01*
X164973220Y-108181087D01*
X164955809Y-108200001D01*
X164816020Y-108351852D01*
X164689079Y-108546151D01*
X164595846Y-108758699D01*
X164538870Y-108983691D01*
X164538868Y-108983702D01*
X164519704Y-109214993D01*
X157825504Y-109214993D01*
X157825504Y-107924999D01*
X158719361Y-107924999D01*
X158719361Y-107925000D01*
X158739888Y-108146535D01*
X158739889Y-108146537D01*
X158800773Y-108360523D01*
X158800779Y-108360538D01*
X158899942Y-108559683D01*
X158899947Y-108559691D01*
X159034024Y-108737238D01*
X159198441Y-108887123D01*
X159198443Y-108887125D01*
X159387599Y-109004245D01*
X159387600Y-109004245D01*
X159387603Y-109004247D01*
X159595064Y-109084618D01*
X159813761Y-109125500D01*
X159813763Y-109125500D01*
X160036245Y-109125500D01*
X160036247Y-109125500D01*
X160254944Y-109084618D01*
X160462405Y-109004247D01*
X160651566Y-108887124D01*
X160815985Y-108737236D01*
X160950062Y-108559689D01*
X161049233Y-108360528D01*
X161110119Y-108146536D01*
X161130647Y-107925000D01*
X161110119Y-107703464D01*
X161049233Y-107489472D01*
X161015573Y-107421874D01*
X160950065Y-107290316D01*
X160950060Y-107290308D01*
X160815983Y-107112761D01*
X160651566Y-106962876D01*
X160651564Y-106962874D01*
X160462408Y-106845754D01*
X160462402Y-106845752D01*
X160254944Y-106765382D01*
X160036247Y-106724500D01*
X159813761Y-106724500D01*
X159595064Y-106765382D01*
X159489027Y-106806461D01*
X159387605Y-106845752D01*
X159387599Y-106845754D01*
X159198443Y-106962874D01*
X159198441Y-106962876D01*
X159034024Y-107112761D01*
X158899947Y-107290308D01*
X158899942Y-107290316D01*
X158800779Y-107489461D01*
X158800773Y-107489476D01*
X158739889Y-107703462D01*
X158739888Y-107703464D01*
X158719361Y-107924999D01*
X157825504Y-107924999D01*
X157825504Y-104479999D01*
X158719361Y-104479999D01*
X158719361Y-104480000D01*
X158739888Y-104701535D01*
X158739889Y-104701537D01*
X158800773Y-104915523D01*
X158800779Y-104915538D01*
X158899942Y-105114683D01*
X158899947Y-105114691D01*
X159034024Y-105292238D01*
X159198441Y-105442123D01*
X159198443Y-105442125D01*
X159387599Y-105559245D01*
X159387600Y-105559245D01*
X159387603Y-105559247D01*
X159595064Y-105639618D01*
X159813761Y-105680500D01*
X159813763Y-105680500D01*
X160036245Y-105680500D01*
X160036247Y-105680500D01*
X160254944Y-105639618D01*
X160462405Y-105559247D01*
X160651566Y-105442124D01*
X160815985Y-105292236D01*
X160950062Y-105114689D01*
X161049233Y-104915528D01*
X161110119Y-104701536D01*
X161130647Y-104480000D01*
X161120647Y-104372086D01*
X161110119Y-104258464D01*
X161110118Y-104258462D01*
X161107871Y-104250566D01*
X161049233Y-104044472D01*
X161032068Y-104010000D01*
X160950065Y-103845316D01*
X160950060Y-103845308D01*
X160815983Y-103667761D01*
X160651566Y-103517876D01*
X160651564Y-103517874D01*
X160462408Y-103400754D01*
X160462402Y-103400752D01*
X160254944Y-103320382D01*
X160036247Y-103279500D01*
X159813761Y-103279500D01*
X159595064Y-103320382D01*
X159463868Y-103371207D01*
X159387605Y-103400752D01*
X159387599Y-103400754D01*
X159198443Y-103517874D01*
X159198441Y-103517876D01*
X159034024Y-103667761D01*
X158899947Y-103845308D01*
X158899942Y-103845316D01*
X158800779Y-104044461D01*
X158800773Y-104044476D01*
X158739889Y-104258462D01*
X158739888Y-104258464D01*
X158719361Y-104479999D01*
X157825504Y-104479999D01*
X157825504Y-100689993D01*
X164519704Y-100689993D01*
X164519704Y-100690006D01*
X164538868Y-100921297D01*
X164538870Y-100921308D01*
X164595846Y-101146300D01*
X164689079Y-101358848D01*
X164816022Y-101553150D01*
X164911171Y-101656510D01*
X164942093Y-101719164D01*
X164934232Y-101788590D01*
X164890085Y-101842746D01*
X164863275Y-101856674D01*
X164782915Y-101886646D01*
X164782910Y-101886649D01*
X164667816Y-101972809D01*
X164667813Y-101972812D01*
X164581653Y-102087906D01*
X164581649Y-102087913D01*
X164531407Y-102222620D01*
X164531405Y-102222627D01*
X164525004Y-102282155D01*
X164525004Y-102980000D01*
X165549726Y-102980000D01*
X165505671Y-103056306D01*
X165475004Y-103170756D01*
X165475004Y-103289244D01*
X165505671Y-103403694D01*
X165549726Y-103480000D01*
X164525004Y-103480000D01*
X164525004Y-104177844D01*
X164531405Y-104237372D01*
X164531407Y-104237379D01*
X164581649Y-104372086D01*
X164581653Y-104372093D01*
X164667813Y-104487187D01*
X164667816Y-104487190D01*
X164782910Y-104573350D01*
X164782917Y-104573354D01*
X164917624Y-104623596D01*
X164917631Y-104623598D01*
X164977159Y-104629999D01*
X164977176Y-104630000D01*
X165675004Y-104630000D01*
X165675004Y-103605277D01*
X165751310Y-103649333D01*
X165865760Y-103680000D01*
X165984248Y-103680000D01*
X166098698Y-103649333D01*
X166175004Y-103605277D01*
X166175004Y-104630000D01*
X166872832Y-104630000D01*
X166872848Y-104629999D01*
X166932376Y-104623598D01*
X166932383Y-104623596D01*
X167067090Y-104573354D01*
X167067097Y-104573350D01*
X167182191Y-104487190D01*
X167182194Y-104487187D01*
X167268354Y-104372093D01*
X167268358Y-104372086D01*
X167318600Y-104237379D01*
X167318602Y-104237372D01*
X167325003Y-104177844D01*
X167325004Y-104177827D01*
X167325004Y-103480000D01*
X166300282Y-103480000D01*
X166344337Y-103403694D01*
X166375004Y-103289244D01*
X166375004Y-103170756D01*
X166344337Y-103056306D01*
X166300282Y-102980000D01*
X167325004Y-102980000D01*
X167325004Y-102282172D01*
X167325003Y-102282155D01*
X167318602Y-102222627D01*
X167318600Y-102222620D01*
X167268358Y-102087913D01*
X167268354Y-102087906D01*
X167182194Y-101972812D01*
X167182191Y-101972809D01*
X167067097Y-101886649D01*
X167067090Y-101886645D01*
X166986733Y-101856674D01*
X166930799Y-101814803D01*
X166906382Y-101749338D01*
X166921234Y-101681065D01*
X166938830Y-101656516D01*
X167033983Y-101553153D01*
X167160928Y-101358849D01*
X167254161Y-101146300D01*
X167311138Y-100921305D01*
X167317031Y-100850184D01*
X167330304Y-100690006D01*
X167330304Y-100689993D01*
X167311139Y-100458702D01*
X167311137Y-100458691D01*
X167254161Y-100233699D01*
X167160928Y-100021151D01*
X167033987Y-99826852D01*
X167033984Y-99826849D01*
X167033983Y-99826847D01*
X166876788Y-99656087D01*
X166876783Y-99656083D01*
X166876781Y-99656081D01*
X166693638Y-99513535D01*
X166693632Y-99513531D01*
X166489508Y-99403064D01*
X166489499Y-99403061D01*
X166269988Y-99327702D01*
X166098286Y-99299050D01*
X166041053Y-99289500D01*
X165808955Y-99289500D01*
X165763168Y-99297140D01*
X165580019Y-99327702D01*
X165360508Y-99403061D01*
X165360499Y-99403064D01*
X165156375Y-99513531D01*
X165156369Y-99513535D01*
X164973226Y-99656081D01*
X164973223Y-99656084D01*
X164816020Y-99826852D01*
X164689079Y-100021151D01*
X164595846Y-100233699D01*
X164538870Y-100458691D01*
X164538868Y-100458702D01*
X164519704Y-100689993D01*
X157825504Y-100689993D01*
X157825504Y-99399999D01*
X158719361Y-99399999D01*
X158719361Y-99400000D01*
X158739888Y-99621535D01*
X158739889Y-99621537D01*
X158800773Y-99835523D01*
X158800779Y-99835538D01*
X158899942Y-100034683D01*
X158899947Y-100034691D01*
X159034024Y-100212238D01*
X159198441Y-100362123D01*
X159198443Y-100362125D01*
X159387599Y-100479245D01*
X159387600Y-100479245D01*
X159387603Y-100479247D01*
X159595064Y-100559618D01*
X159813761Y-100600500D01*
X159813763Y-100600500D01*
X160036245Y-100600500D01*
X160036247Y-100600500D01*
X160254944Y-100559618D01*
X160462405Y-100479247D01*
X160651566Y-100362124D01*
X160815985Y-100212236D01*
X160950062Y-100034689D01*
X161049233Y-99835528D01*
X161110119Y-99621536D01*
X161130647Y-99400000D01*
X161110119Y-99178464D01*
X161049233Y-98964472D01*
X161049228Y-98964461D01*
X160950065Y-98765316D01*
X160950060Y-98765308D01*
X160815983Y-98587761D01*
X160651566Y-98437876D01*
X160651564Y-98437874D01*
X160462408Y-98320754D01*
X160462402Y-98320752D01*
X160254944Y-98240382D01*
X160036247Y-98199500D01*
X159813761Y-98199500D01*
X159595064Y-98240382D01*
X159463868Y-98291207D01*
X159387605Y-98320752D01*
X159387599Y-98320754D01*
X159198443Y-98437874D01*
X159198441Y-98437876D01*
X159034024Y-98587761D01*
X158899947Y-98765308D01*
X158899942Y-98765316D01*
X158800779Y-98964461D01*
X158800773Y-98964476D01*
X158739889Y-99178462D01*
X158739888Y-99178464D01*
X158719361Y-99399999D01*
X157825504Y-99399999D01*
X157825504Y-95754999D01*
X158719361Y-95754999D01*
X158719361Y-95755000D01*
X158739888Y-95976535D01*
X158739889Y-95976537D01*
X158800773Y-96190523D01*
X158800779Y-96190538D01*
X158899942Y-96389683D01*
X158899947Y-96389691D01*
X159034024Y-96567238D01*
X159198441Y-96717123D01*
X159198443Y-96717125D01*
X159387599Y-96834245D01*
X159387600Y-96834245D01*
X159387603Y-96834247D01*
X159595064Y-96914618D01*
X159813761Y-96955500D01*
X159813763Y-96955500D01*
X160036245Y-96955500D01*
X160036247Y-96955500D01*
X160254944Y-96914618D01*
X160462405Y-96834247D01*
X160651566Y-96717124D01*
X160815985Y-96567236D01*
X160950062Y-96389689D01*
X161049233Y-96190528D01*
X161110119Y-95976536D01*
X161130647Y-95755000D01*
X161120647Y-95647086D01*
X161110119Y-95533464D01*
X161110118Y-95533462D01*
X161104119Y-95512379D01*
X161049233Y-95319472D01*
X161049228Y-95319461D01*
X160950065Y-95120316D01*
X160950060Y-95120308D01*
X160815983Y-94942761D01*
X160651566Y-94792876D01*
X160651564Y-94792874D01*
X160462408Y-94675754D01*
X160462402Y-94675752D01*
X160423964Y-94660861D01*
X160254944Y-94595382D01*
X160036247Y-94554500D01*
X159813761Y-94554500D01*
X159595064Y-94595382D01*
X159463868Y-94646207D01*
X159387605Y-94675752D01*
X159387599Y-94675754D01*
X159198443Y-94792874D01*
X159198441Y-94792876D01*
X159034024Y-94942761D01*
X158899947Y-95120308D01*
X158899942Y-95120316D01*
X158800779Y-95319461D01*
X158800773Y-95319476D01*
X158739889Y-95533462D01*
X158739888Y-95533464D01*
X158719361Y-95754999D01*
X157825504Y-95754999D01*
X157825504Y-91964993D01*
X164519704Y-91964993D01*
X164519704Y-91965006D01*
X164538868Y-92196297D01*
X164538870Y-92196308D01*
X164595846Y-92421300D01*
X164689079Y-92633848D01*
X164816022Y-92828150D01*
X164911171Y-92931510D01*
X164942093Y-92994164D01*
X164934232Y-93063590D01*
X164890085Y-93117746D01*
X164863275Y-93131674D01*
X164782915Y-93161646D01*
X164782910Y-93161649D01*
X164667816Y-93247809D01*
X164667813Y-93247812D01*
X164581653Y-93362906D01*
X164581649Y-93362913D01*
X164531407Y-93497620D01*
X164531405Y-93497627D01*
X164525004Y-93557155D01*
X164525004Y-94255000D01*
X165549726Y-94255000D01*
X165505671Y-94331306D01*
X165475004Y-94445756D01*
X165475004Y-94564244D01*
X165505671Y-94678694D01*
X165549726Y-94755000D01*
X164525004Y-94755000D01*
X164525004Y-95452844D01*
X164531405Y-95512372D01*
X164531407Y-95512379D01*
X164581649Y-95647086D01*
X164581653Y-95647093D01*
X164667813Y-95762187D01*
X164667816Y-95762190D01*
X164782910Y-95848350D01*
X164782917Y-95848354D01*
X164917624Y-95898596D01*
X164917631Y-95898598D01*
X164977159Y-95904999D01*
X164977176Y-95905000D01*
X165675004Y-95905000D01*
X165675004Y-94880277D01*
X165751310Y-94924333D01*
X165865760Y-94955000D01*
X165984248Y-94955000D01*
X166098698Y-94924333D01*
X166175004Y-94880277D01*
X166175004Y-95905000D01*
X166872832Y-95905000D01*
X166872848Y-95904999D01*
X166932376Y-95898598D01*
X166932383Y-95898596D01*
X167067090Y-95848354D01*
X167067097Y-95848350D01*
X167182191Y-95762190D01*
X167182194Y-95762187D01*
X167268354Y-95647093D01*
X167268358Y-95647086D01*
X167318600Y-95512379D01*
X167318602Y-95512372D01*
X167325003Y-95452844D01*
X167325004Y-95452827D01*
X167325004Y-94755000D01*
X166300282Y-94755000D01*
X166344337Y-94678694D01*
X166375004Y-94564244D01*
X166375004Y-94445756D01*
X166344337Y-94331306D01*
X166300282Y-94255000D01*
X167325004Y-94255000D01*
X167325004Y-93557172D01*
X167325003Y-93557155D01*
X167318602Y-93497627D01*
X167318600Y-93497620D01*
X167268358Y-93362913D01*
X167268354Y-93362906D01*
X167182194Y-93247812D01*
X167182191Y-93247809D01*
X167067097Y-93161649D01*
X167067090Y-93161645D01*
X166986733Y-93131674D01*
X166930799Y-93089803D01*
X166906382Y-93024338D01*
X166921234Y-92956065D01*
X166938830Y-92931516D01*
X167033983Y-92828153D01*
X167160928Y-92633849D01*
X167254161Y-92421300D01*
X167311138Y-92196305D01*
X167311139Y-92196297D01*
X167330304Y-91965006D01*
X167330304Y-91964993D01*
X167311139Y-91733702D01*
X167311137Y-91733691D01*
X167254161Y-91508699D01*
X167160928Y-91296151D01*
X167033987Y-91101852D01*
X167033984Y-91101849D01*
X167033983Y-91101847D01*
X166876788Y-90931087D01*
X166876783Y-90931083D01*
X166876781Y-90931081D01*
X166693638Y-90788535D01*
X166693632Y-90788531D01*
X166489508Y-90678064D01*
X166489499Y-90678061D01*
X166269988Y-90602702D01*
X166098286Y-90574050D01*
X166041053Y-90564500D01*
X165808955Y-90564500D01*
X165763168Y-90572140D01*
X165580019Y-90602702D01*
X165360508Y-90678061D01*
X165360499Y-90678064D01*
X165156375Y-90788531D01*
X165156369Y-90788535D01*
X164973226Y-90931081D01*
X164973223Y-90931084D01*
X164816020Y-91101852D01*
X164689079Y-91296151D01*
X164595846Y-91508699D01*
X164538870Y-91733691D01*
X164538868Y-91733702D01*
X164519704Y-91964993D01*
X157825504Y-91964993D01*
X157825504Y-90674999D01*
X158719361Y-90674999D01*
X158719361Y-90675000D01*
X158739888Y-90896535D01*
X158739889Y-90896537D01*
X158800773Y-91110523D01*
X158800779Y-91110538D01*
X158899942Y-91309683D01*
X158899947Y-91309691D01*
X159034024Y-91487238D01*
X159198441Y-91637123D01*
X159198443Y-91637125D01*
X159387599Y-91754245D01*
X159387600Y-91754245D01*
X159387603Y-91754247D01*
X159595064Y-91834618D01*
X159813761Y-91875500D01*
X159813763Y-91875500D01*
X160036245Y-91875500D01*
X160036247Y-91875500D01*
X160254944Y-91834618D01*
X160462405Y-91754247D01*
X160651566Y-91637124D01*
X160815985Y-91487236D01*
X160950062Y-91309689D01*
X161049233Y-91110528D01*
X161110119Y-90896536D01*
X161130647Y-90675000D01*
X161110119Y-90453464D01*
X161049233Y-90239472D01*
X161049228Y-90239461D01*
X160950065Y-90040316D01*
X160950060Y-90040308D01*
X160815983Y-89862761D01*
X160651566Y-89712876D01*
X160651564Y-89712874D01*
X160462408Y-89595754D01*
X160462402Y-89595752D01*
X160423964Y-89580861D01*
X160254944Y-89515382D01*
X160036247Y-89474500D01*
X159813761Y-89474500D01*
X159595064Y-89515382D01*
X159508813Y-89548796D01*
X159387605Y-89595752D01*
X159387599Y-89595754D01*
X159198443Y-89712874D01*
X159198441Y-89712876D01*
X159034024Y-89862761D01*
X158899947Y-90040308D01*
X158899942Y-90040316D01*
X158800779Y-90239461D01*
X158800773Y-90239476D01*
X158739889Y-90453462D01*
X158739888Y-90453464D01*
X158719361Y-90674999D01*
X157825504Y-90674999D01*
X157825504Y-87504999D01*
X158719361Y-87504999D01*
X158719361Y-87505000D01*
X158739888Y-87726535D01*
X158739889Y-87726537D01*
X158800773Y-87940523D01*
X158800779Y-87940538D01*
X158899942Y-88139683D01*
X158899947Y-88139691D01*
X159034024Y-88317238D01*
X159198441Y-88467123D01*
X159198443Y-88467125D01*
X159387599Y-88584245D01*
X159387600Y-88584245D01*
X159387603Y-88584247D01*
X159595064Y-88664618D01*
X159813761Y-88705500D01*
X159813763Y-88705500D01*
X160036245Y-88705500D01*
X160036247Y-88705500D01*
X160254944Y-88664618D01*
X160462405Y-88584247D01*
X160651566Y-88467124D01*
X160815985Y-88317236D01*
X160950062Y-88139689D01*
X161049233Y-87940528D01*
X161110119Y-87726536D01*
X161130647Y-87505000D01*
X161120647Y-87397086D01*
X161110119Y-87283464D01*
X161110118Y-87283462D01*
X161104119Y-87262379D01*
X161049233Y-87069472D01*
X161038270Y-87047455D01*
X160950065Y-86870316D01*
X160950060Y-86870308D01*
X160815983Y-86692761D01*
X160651566Y-86542876D01*
X160651564Y-86542874D01*
X160462408Y-86425754D01*
X160462402Y-86425752D01*
X160254944Y-86345382D01*
X160036247Y-86304500D01*
X159813761Y-86304500D01*
X159595064Y-86345382D01*
X159463868Y-86396207D01*
X159387605Y-86425752D01*
X159387599Y-86425754D01*
X159198443Y-86542874D01*
X159198441Y-86542876D01*
X159034024Y-86692761D01*
X158899947Y-86870308D01*
X158899942Y-86870316D01*
X158800779Y-87069461D01*
X158800773Y-87069476D01*
X158739889Y-87283462D01*
X158739888Y-87283464D01*
X158719361Y-87504999D01*
X157825504Y-87504999D01*
X157825504Y-83714993D01*
X164519704Y-83714993D01*
X164519704Y-83715006D01*
X164538868Y-83946297D01*
X164538870Y-83946308D01*
X164595846Y-84171300D01*
X164689079Y-84383848D01*
X164816022Y-84578150D01*
X164911171Y-84681510D01*
X164942093Y-84744164D01*
X164934232Y-84813590D01*
X164890085Y-84867746D01*
X164863275Y-84881674D01*
X164782915Y-84911646D01*
X164782910Y-84911649D01*
X164667816Y-84997809D01*
X164667813Y-84997812D01*
X164581653Y-85112906D01*
X164581649Y-85112913D01*
X164531407Y-85247620D01*
X164531405Y-85247627D01*
X164525004Y-85307155D01*
X164525004Y-86005000D01*
X165549726Y-86005000D01*
X165505671Y-86081306D01*
X165475004Y-86195756D01*
X165475004Y-86314244D01*
X165505671Y-86428694D01*
X165549726Y-86505000D01*
X164525004Y-86505000D01*
X164525004Y-87202844D01*
X164531405Y-87262372D01*
X164531407Y-87262379D01*
X164581649Y-87397086D01*
X164581653Y-87397093D01*
X164667813Y-87512187D01*
X164667816Y-87512190D01*
X164782910Y-87598350D01*
X164782917Y-87598354D01*
X164917624Y-87648596D01*
X164917631Y-87648598D01*
X164977159Y-87654999D01*
X164977176Y-87655000D01*
X165675004Y-87655000D01*
X165675004Y-86630277D01*
X165751310Y-86674333D01*
X165865760Y-86705000D01*
X165984248Y-86705000D01*
X166098698Y-86674333D01*
X166175004Y-86630277D01*
X166175004Y-87655000D01*
X166872832Y-87655000D01*
X166872848Y-87654999D01*
X166932376Y-87648598D01*
X166932383Y-87648596D01*
X167067090Y-87598354D01*
X167067097Y-87598350D01*
X167182191Y-87512190D01*
X167182194Y-87512187D01*
X167268354Y-87397093D01*
X167268358Y-87397086D01*
X167318600Y-87262379D01*
X167318602Y-87262372D01*
X167325003Y-87202844D01*
X167325004Y-87202827D01*
X167325004Y-86505000D01*
X166300282Y-86505000D01*
X166344337Y-86428694D01*
X166375004Y-86314244D01*
X166375004Y-86195756D01*
X166344337Y-86081306D01*
X166300282Y-86005000D01*
X167325004Y-86005000D01*
X167325004Y-85307172D01*
X167325003Y-85307155D01*
X167318602Y-85247627D01*
X167318600Y-85247620D01*
X167268358Y-85112913D01*
X167268354Y-85112906D01*
X167182194Y-84997812D01*
X167182191Y-84997809D01*
X167067097Y-84911649D01*
X167067090Y-84911645D01*
X166986733Y-84881674D01*
X166930799Y-84839803D01*
X166906382Y-84774338D01*
X166921234Y-84706065D01*
X166938830Y-84681516D01*
X167033983Y-84578153D01*
X167160928Y-84383849D01*
X167254161Y-84171300D01*
X167311138Y-83946305D01*
X167323257Y-83800047D01*
X167330304Y-83715006D01*
X167330304Y-83714993D01*
X167311139Y-83483702D01*
X167311137Y-83483691D01*
X167254161Y-83258699D01*
X167160928Y-83046151D01*
X167033987Y-82851852D01*
X167033984Y-82851849D01*
X167033983Y-82851847D01*
X166876788Y-82681087D01*
X166876783Y-82681083D01*
X166876781Y-82681081D01*
X166693638Y-82538535D01*
X166693632Y-82538531D01*
X166489508Y-82428064D01*
X166489499Y-82428061D01*
X166269988Y-82352702D01*
X166098286Y-82324050D01*
X166041053Y-82314500D01*
X165808955Y-82314500D01*
X165763168Y-82322140D01*
X165580019Y-82352702D01*
X165360508Y-82428061D01*
X165360499Y-82428064D01*
X165156375Y-82538531D01*
X165156369Y-82538535D01*
X164973226Y-82681081D01*
X164973223Y-82681084D01*
X164816020Y-82851852D01*
X164689079Y-83046151D01*
X164595846Y-83258699D01*
X164538870Y-83483691D01*
X164538868Y-83483702D01*
X164519704Y-83714993D01*
X157825504Y-83714993D01*
X157825504Y-74800808D01*
X157845189Y-74733769D01*
X157861823Y-74713127D01*
X158908131Y-73666819D01*
X158969454Y-73633334D01*
X158995812Y-73630500D01*
X159478321Y-73630500D01*
X159545360Y-73650185D01*
X159579896Y-73683377D01*
X159674958Y-73819141D01*
X159835862Y-73980045D01*
X159860466Y-73997273D01*
X159904091Y-74051849D01*
X159911285Y-74121348D01*
X159879762Y-74183703D01*
X159819533Y-74219117D01*
X159802597Y-74222138D01*
X159767520Y-74225908D01*
X159632675Y-74276202D01*
X159632668Y-74276206D01*
X159517459Y-74362452D01*
X159517456Y-74362455D01*
X159431210Y-74477664D01*
X159431206Y-74477671D01*
X159380912Y-74612517D01*
X159374505Y-74672116D01*
X159374504Y-74672127D01*
X159374504Y-76367870D01*
X159374505Y-76367876D01*
X159380912Y-76427483D01*
X159431206Y-76562328D01*
X159431210Y-76562335D01*
X159517456Y-76677544D01*
X159517459Y-76677547D01*
X159632668Y-76763793D01*
X159632675Y-76763797D01*
X159677622Y-76780561D01*
X159767521Y-76814091D01*
X159827131Y-76820500D01*
X159950504Y-76820499D01*
X160017543Y-76840183D01*
X160063298Y-76892987D01*
X160074504Y-76944499D01*
X160074504Y-79179902D01*
X160054819Y-79246941D01*
X160038185Y-79267583D01*
X159656469Y-79649298D01*
X159595146Y-79682783D01*
X159582672Y-79684837D01*
X159495754Y-79694630D01*
X159325482Y-79754210D01*
X159172741Y-79850184D01*
X159045188Y-79977737D01*
X158949215Y-80130476D01*
X158889635Y-80300745D01*
X158889634Y-80300750D01*
X158869439Y-80479996D01*
X158869439Y-80480003D01*
X158889634Y-80659249D01*
X158889635Y-80659254D01*
X158949215Y-80829523D01*
X159019106Y-80940753D01*
X159045188Y-80982262D01*
X159172742Y-81109816D01*
X159231334Y-81146632D01*
X159300180Y-81189891D01*
X159346471Y-81242226D01*
X159357119Y-81311280D01*
X159328744Y-81375128D01*
X159299486Y-81400312D01*
X159198440Y-81462877D01*
X159034024Y-81612761D01*
X158899947Y-81790308D01*
X158899942Y-81790316D01*
X158800779Y-81989461D01*
X158800773Y-81989476D01*
X158739889Y-82203462D01*
X158739888Y-82203464D01*
X158719361Y-82424999D01*
X158719361Y-82425000D01*
X158739888Y-82646535D01*
X158739889Y-82646537D01*
X158800773Y-82860523D01*
X158800779Y-82860538D01*
X158899942Y-83059683D01*
X158899947Y-83059691D01*
X159034024Y-83237238D01*
X159198441Y-83387123D01*
X159198443Y-83387125D01*
X159387599Y-83504245D01*
X159387600Y-83504245D01*
X159387603Y-83504247D01*
X159595064Y-83584618D01*
X159813761Y-83625500D01*
X159813763Y-83625500D01*
X160036245Y-83625500D01*
X160036247Y-83625500D01*
X160254944Y-83584618D01*
X160462405Y-83504247D01*
X160651566Y-83387124D01*
X160815985Y-83237236D01*
X160950062Y-83059689D01*
X161049233Y-82860528D01*
X161110119Y-82646536D01*
X161130647Y-82425000D01*
X161123578Y-82348717D01*
X161110119Y-82203464D01*
X161110118Y-82203462D01*
X161106165Y-82189570D01*
X161049233Y-81989472D01*
X161049228Y-81989461D01*
X160950065Y-81790316D01*
X160950060Y-81790308D01*
X160815983Y-81612761D01*
X160651566Y-81462876D01*
X160651564Y-81462874D01*
X160462408Y-81345754D01*
X160462399Y-81345750D01*
X160373420Y-81311280D01*
X160264275Y-81268997D01*
X160208876Y-81226426D01*
X160185285Y-81160660D01*
X160200996Y-81092579D01*
X160221383Y-81065698D01*
X160304820Y-80982262D01*
X160400793Y-80829522D01*
X160460372Y-80659255D01*
X160470165Y-80572329D01*
X160497230Y-80507918D01*
X160505693Y-80498544D01*
X161155524Y-79848716D01*
X161234581Y-79711784D01*
X161275505Y-79559057D01*
X161275505Y-79400942D01*
X161275505Y-79393347D01*
X161275504Y-79393329D01*
X161275504Y-76944499D01*
X161295189Y-76877460D01*
X161347993Y-76831705D01*
X161399504Y-76820499D01*
X161522875Y-76820499D01*
X161522876Y-76820499D01*
X161582487Y-76814091D01*
X161717335Y-76763796D01*
X161832550Y-76677546D01*
X161918800Y-76562331D01*
X161969095Y-76427483D01*
X161975504Y-76367873D01*
X161975503Y-74672128D01*
X161970303Y-74623757D01*
X161969095Y-74612516D01*
X161918801Y-74477671D01*
X161918797Y-74477664D01*
X161832551Y-74362455D01*
X161832548Y-74362452D01*
X161717339Y-74276206D01*
X161717332Y-74276202D01*
X161582486Y-74225908D01*
X161582487Y-74225908D01*
X161547408Y-74222137D01*
X161482857Y-74195399D01*
X161443009Y-74138006D01*
X161440516Y-74068181D01*
X161476169Y-74008092D01*
X161489543Y-73997272D01*
X161493125Y-73994763D01*
X161514143Y-73980047D01*
X161675051Y-73819139D01*
X161805572Y-73632734D01*
X161901743Y-73426496D01*
X161960639Y-73206692D01*
X161980472Y-72980000D01*
X161980103Y-72975788D01*
X161971383Y-72876111D01*
X161960639Y-72753308D01*
X161901743Y-72533504D01*
X161805572Y-72327266D01*
X161675051Y-72140861D01*
X161675049Y-72140858D01*
X161514145Y-71979954D01*
X161327738Y-71849432D01*
X161327732Y-71849429D01*
X161269729Y-71822382D01*
X161217289Y-71776210D01*
X161198137Y-71709017D01*
X161218352Y-71642135D01*
X161269729Y-71597618D01*
X161327738Y-71570568D01*
X161514143Y-71440047D01*
X161675051Y-71279139D01*
X161805572Y-71092734D01*
X161901743Y-70886496D01*
X161960639Y-70666692D01*
X161980472Y-70440000D01*
X161979408Y-70427844D01*
X161960639Y-70213313D01*
X161960639Y-70213308D01*
X161901743Y-69993504D01*
X161805572Y-69787266D01*
X161675051Y-69600861D01*
X161675049Y-69600858D01*
X161514145Y-69439954D01*
X161327738Y-69309432D01*
X161327736Y-69309431D01*
X161316279Y-69304088D01*
X161269136Y-69282105D01*
X161216698Y-69235934D01*
X161197546Y-69168740D01*
X161217762Y-69101859D01*
X161269138Y-69057341D01*
X161327488Y-69030132D01*
X161513824Y-68899657D01*
X161674661Y-68738820D01*
X161805138Y-68552482D01*
X161901269Y-68346326D01*
X161901273Y-68346317D01*
X161953876Y-68150000D01*
X160990690Y-68150000D01*
X160995084Y-68145606D01*
X161047745Y-68054394D01*
X161075004Y-67952661D01*
X161075004Y-67847339D01*
X161047745Y-67745606D01*
X160995084Y-67654394D01*
X160990690Y-67650000D01*
X161953876Y-67650000D01*
X161953876Y-67649999D01*
X161901273Y-67453682D01*
X161901269Y-67453673D01*
X161805138Y-67247517D01*
X161674661Y-67061179D01*
X161513824Y-66900342D01*
X161327485Y-66769865D01*
X161327483Y-66769864D01*
X161268547Y-66742382D01*
X161216107Y-66696210D01*
X161196955Y-66629017D01*
X161217170Y-66562136D01*
X161268547Y-66517618D01*
X161327483Y-66490135D01*
X161327485Y-66490134D01*
X161513824Y-66359657D01*
X161674661Y-66198820D01*
X161805138Y-66012482D01*
X161901269Y-65806326D01*
X161901273Y-65806317D01*
X161953876Y-65610000D01*
X160990690Y-65610000D01*
X160995084Y-65605606D01*
X161047745Y-65514394D01*
X161075004Y-65412661D01*
X161075004Y-65307339D01*
X161047745Y-65205606D01*
X160995084Y-65114394D01*
X160990690Y-65110000D01*
X161953876Y-65110000D01*
X161953876Y-65109999D01*
X161901273Y-64913682D01*
X161901269Y-64913673D01*
X161805138Y-64707517D01*
X161674661Y-64521179D01*
X161513824Y-64360342D01*
X161327486Y-64229865D01*
X161269137Y-64202657D01*
X161216698Y-64156484D01*
X161197546Y-64089291D01*
X161217762Y-64022410D01*
X161269133Y-63977895D01*
X161327738Y-63950568D01*
X161514143Y-63820047D01*
X161675051Y-63659139D01*
X161805572Y-63472734D01*
X161901743Y-63266496D01*
X161960639Y-63046692D01*
X161980472Y-62820000D01*
X161960639Y-62593308D01*
X161903827Y-62381282D01*
X161901745Y-62373511D01*
X161901742Y-62373502D01*
X161853235Y-62269480D01*
X161805572Y-62167266D01*
X161675051Y-61980861D01*
X161675049Y-61980858D01*
X161514145Y-61819954D01*
X161327738Y-61689432D01*
X161327732Y-61689429D01*
X161269729Y-61662382D01*
X161217289Y-61616210D01*
X161198137Y-61549017D01*
X161218352Y-61482135D01*
X161269729Y-61437618D01*
X161278916Y-61433334D01*
X161327738Y-61410568D01*
X161514143Y-61280047D01*
X161675051Y-61119139D01*
X161805572Y-60932734D01*
X161901743Y-60726496D01*
X161960639Y-60506692D01*
X161980472Y-60280000D01*
X161979793Y-60272244D01*
X161974574Y-60212591D01*
X161960639Y-60053308D01*
X161915121Y-59883431D01*
X161901745Y-59833511D01*
X161901742Y-59833502D01*
X161874332Y-59774722D01*
X161805572Y-59627266D01*
X161675051Y-59440861D01*
X161675049Y-59440858D01*
X161514145Y-59279954D01*
X161327738Y-59149432D01*
X161327732Y-59149429D01*
X161269729Y-59122382D01*
X161217289Y-59076210D01*
X161198137Y-59009017D01*
X161218352Y-58942135D01*
X161269729Y-58897618D01*
X161327738Y-58870568D01*
X161514143Y-58740047D01*
X161675051Y-58579139D01*
X161805572Y-58392734D01*
X161901743Y-58186496D01*
X161960639Y-57966692D01*
X161980472Y-57740000D01*
X161960639Y-57513308D01*
X161904424Y-57303511D01*
X161901745Y-57293511D01*
X161901742Y-57293502D01*
X161887842Y-57263694D01*
X161805572Y-57087266D01*
X161675938Y-56902128D01*
X161675049Y-56900858D01*
X161514145Y-56739954D01*
X161327738Y-56609432D01*
X161327736Y-56609431D01*
X161121501Y-56513261D01*
X161121492Y-56513258D01*
X160901701Y-56454366D01*
X160901697Y-56454365D01*
X160901696Y-56454365D01*
X160901695Y-56454364D01*
X160901690Y-56454364D01*
X160675006Y-56434532D01*
X160675002Y-56434532D01*
X160448317Y-56454364D01*
X160448306Y-56454366D01*
X160228515Y-56513258D01*
X160228506Y-56513261D01*
X160022271Y-56609431D01*
X160022269Y-56609432D01*
X159835862Y-56739954D01*
X159674958Y-56900858D01*
X159544436Y-57087265D01*
X159544435Y-57087267D01*
X159448265Y-57293502D01*
X159448262Y-57293511D01*
X159389370Y-57513302D01*
X159389368Y-57513313D01*
X159369536Y-57739998D01*
X159369536Y-57740001D01*
X159389368Y-57966686D01*
X159389370Y-57966697D01*
X159448262Y-58186488D01*
X159448265Y-58186497D01*
X159544435Y-58392732D01*
X159544436Y-58392734D01*
X159674958Y-58579141D01*
X159835862Y-58740045D01*
X159835865Y-58740047D01*
X160022270Y-58870568D01*
X160080279Y-58897618D01*
X160132718Y-58943791D01*
X160151870Y-59010984D01*
X160131654Y-59077865D01*
X160080279Y-59122382D01*
X160022271Y-59149431D01*
X160022269Y-59149432D01*
X159835862Y-59279954D01*
X159674958Y-59440858D01*
X159579896Y-59576623D01*
X159525319Y-59620248D01*
X159478321Y-59629500D01*
X157060933Y-59629500D01*
X156935265Y-59654497D01*
X156935259Y-59654499D01*
X156816874Y-59703535D01*
X156710335Y-59774722D01*
X156710328Y-59774728D01*
X155419730Y-61065326D01*
X155419727Y-61065331D01*
X155377092Y-61129141D01*
X155359217Y-61155893D01*
X155348537Y-61171876D01*
X155299503Y-61290255D01*
X155299501Y-61290261D01*
X155274504Y-61415928D01*
X155274504Y-113974931D01*
X155255498Y-114040903D01*
X155199215Y-114130477D01*
X155199213Y-114130481D01*
X155139637Y-114300737D01*
X155139634Y-114300750D01*
X155119439Y-114479996D01*
X155119439Y-114480003D01*
X155139634Y-114659249D01*
X155139635Y-114659254D01*
X155199215Y-114829523D01*
X155283165Y-114963127D01*
X155295188Y-114982262D01*
X155422742Y-115109816D01*
X155575482Y-115205789D01*
X155745749Y-115265368D01*
X155745754Y-115265369D01*
X155915826Y-115284531D01*
X155980240Y-115311597D01*
X156019795Y-115369192D01*
X156021933Y-115439029D01*
X155989624Y-115495432D01*
X155441877Y-116043181D01*
X155380554Y-116076666D01*
X155354196Y-116079500D01*
X144495812Y-116079500D01*
X144428773Y-116059815D01*
X144408131Y-116043181D01*
X144361823Y-115996873D01*
X144328338Y-115935550D01*
X144325504Y-115909192D01*
X144325504Y-105665928D01*
X144300506Y-105540261D01*
X144300505Y-105540260D01*
X144300505Y-105540256D01*
X144251469Y-105421873D01*
X144251468Y-105421870D01*
X144180281Y-105315331D01*
X144180275Y-105315324D01*
X141479677Y-102614726D01*
X141479673Y-102614723D01*
X141373131Y-102543535D01*
X141288544Y-102508498D01*
X141254748Y-102494499D01*
X141254742Y-102494497D01*
X141129075Y-102469500D01*
X141129073Y-102469500D01*
X135000697Y-102469500D01*
X134933658Y-102449815D01*
X134887903Y-102397011D01*
X134877959Y-102327853D01*
X134906984Y-102264297D01*
X134959742Y-102228459D01*
X135024523Y-102205790D01*
X135024522Y-102205790D01*
X135024526Y-102205789D01*
X135177266Y-102109816D01*
X135304820Y-101982262D01*
X135400793Y-101829522D01*
X135460372Y-101659255D01*
X135460373Y-101659246D01*
X135480569Y-101480003D01*
X135480569Y-101479996D01*
X135460373Y-101300750D01*
X135460372Y-101300745D01*
X135400792Y-101130476D01*
X135322790Y-101006337D01*
X135304820Y-100977738D01*
X135177266Y-100850184D01*
X135108049Y-100806692D01*
X135024525Y-100754210D01*
X134854259Y-100694632D01*
X134854250Y-100694630D01*
X134847016Y-100693815D01*
X134782604Y-100666744D01*
X134773227Y-100658277D01*
X134189678Y-100074727D01*
X134189677Y-100074726D01*
X134131068Y-100035565D01*
X134083131Y-100003535D01*
X133964748Y-99954499D01*
X133964742Y-99954497D01*
X133839075Y-99929500D01*
X133839073Y-99929500D01*
X132511687Y-99929500D01*
X132444648Y-99909815D01*
X132410112Y-99876623D01*
X132315049Y-99740858D01*
X132154145Y-99579954D01*
X131967738Y-99449432D01*
X131967732Y-99449429D01*
X131940042Y-99436517D01*
X131909728Y-99422381D01*
X131857289Y-99376210D01*
X131838137Y-99309017D01*
X131858352Y-99242135D01*
X131909729Y-99197618D01*
X131967738Y-99170568D01*
X132154143Y-99040047D01*
X132315051Y-98879139D01*
X132394750Y-98765316D01*
X132410112Y-98743377D01*
X132464689Y-98699752D01*
X132511687Y-98690500D01*
X134414196Y-98690500D01*
X134481235Y-98710185D01*
X134501877Y-98726819D01*
X135103281Y-99328223D01*
X135136766Y-99389546D01*
X135138819Y-99402012D01*
X135139634Y-99409246D01*
X135139636Y-99409255D01*
X135199214Y-99579521D01*
X135225614Y-99621536D01*
X135295188Y-99732262D01*
X135422742Y-99859816D01*
X135466772Y-99887482D01*
X135573425Y-99954497D01*
X135575482Y-99955789D01*
X135711932Y-100003535D01*
X135745749Y-100015368D01*
X135745754Y-100015369D01*
X135925000Y-100035565D01*
X135925004Y-100035565D01*
X135925008Y-100035565D01*
X136104253Y-100015369D01*
X136104256Y-100015368D01*
X136104259Y-100015368D01*
X136274526Y-99955789D01*
X136427266Y-99859816D01*
X136554820Y-99732262D01*
X136650793Y-99579522D01*
X136682962Y-99487587D01*
X136723684Y-99430812D01*
X136788637Y-99405065D01*
X136857198Y-99418521D01*
X136907601Y-99466908D01*
X136917046Y-99487588D01*
X136949215Y-99579523D01*
X136997320Y-99656081D01*
X137045188Y-99732262D01*
X137172742Y-99859816D01*
X137216772Y-99887482D01*
X137323425Y-99954497D01*
X137325482Y-99955789D01*
X137461932Y-100003535D01*
X137495749Y-100015368D01*
X137495754Y-100015369D01*
X137675000Y-100035565D01*
X137675004Y-100035565D01*
X137675008Y-100035565D01*
X137854253Y-100015369D01*
X137854256Y-100015368D01*
X137854259Y-100015368D01*
X138024526Y-99955789D01*
X138177266Y-99859816D01*
X138304820Y-99732262D01*
X138400793Y-99579522D01*
X138460372Y-99409255D01*
X138463909Y-99377865D01*
X138480569Y-99230003D01*
X138480569Y-99229996D01*
X138460373Y-99050750D01*
X138460370Y-99050737D01*
X138400794Y-98880481D01*
X138400794Y-98880480D01*
X138400793Y-98880478D01*
X138379012Y-98845814D01*
X138344510Y-98790903D01*
X138325504Y-98724931D01*
X138325504Y-96915928D01*
X138300506Y-96790261D01*
X138300505Y-96790260D01*
X138300505Y-96790256D01*
X138251469Y-96671873D01*
X138223870Y-96630568D01*
X138180281Y-96565331D01*
X138180279Y-96565329D01*
X138180277Y-96565326D01*
X136609677Y-94994726D01*
X136550222Y-94955000D01*
X136503131Y-94923535D01*
X136384748Y-94874499D01*
X136384742Y-94874497D01*
X136259075Y-94849500D01*
X136259073Y-94849500D01*
X132511687Y-94849500D01*
X132444648Y-94829815D01*
X132410112Y-94796623D01*
X132315049Y-94660858D01*
X132154145Y-94499954D01*
X131967738Y-94369432D01*
X131967732Y-94369429D01*
X131909729Y-94342382D01*
X131857289Y-94296210D01*
X131838137Y-94229017D01*
X131858352Y-94162135D01*
X131909729Y-94117618D01*
X131967738Y-94090568D01*
X132154143Y-93960047D01*
X132315051Y-93799139D01*
X132445572Y-93612734D01*
X132541743Y-93406496D01*
X132600639Y-93186692D01*
X132620472Y-92960000D01*
X132617979Y-92931510D01*
X132608937Y-92828153D01*
X132600639Y-92733308D01*
X132541743Y-92513504D01*
X132445572Y-92307266D01*
X132315051Y-92120861D01*
X132315049Y-92120858D01*
X132154145Y-91959954D01*
X131967738Y-91829432D01*
X131967732Y-91829429D01*
X131909729Y-91802382D01*
X131857289Y-91756210D01*
X131838137Y-91689017D01*
X131858352Y-91622135D01*
X131909729Y-91577618D01*
X131967738Y-91550568D01*
X132154143Y-91420047D01*
X132315051Y-91259139D01*
X132445572Y-91072734D01*
X132541743Y-90866496D01*
X132600639Y-90646692D01*
X132620472Y-90420000D01*
X132600639Y-90193308D01*
X132541743Y-89973504D01*
X132445572Y-89767266D01*
X132315051Y-89580861D01*
X132315049Y-89580858D01*
X132154145Y-89419954D01*
X131967738Y-89289432D01*
X131967732Y-89289429D01*
X131909729Y-89262382D01*
X131857289Y-89216210D01*
X131838137Y-89149017D01*
X131858352Y-89082135D01*
X131909729Y-89037618D01*
X131967738Y-89010568D01*
X132154143Y-88880047D01*
X132315051Y-88719139D01*
X132445572Y-88532734D01*
X132541743Y-88326496D01*
X132600639Y-88106692D01*
X132620472Y-87880000D01*
X132600639Y-87653308D01*
X132541743Y-87433504D01*
X132445572Y-87227266D01*
X132319668Y-87047455D01*
X132315049Y-87040858D01*
X132154145Y-86879954D01*
X131967738Y-86749432D01*
X131967732Y-86749429D01*
X131909729Y-86722382D01*
X131857289Y-86676210D01*
X131838137Y-86609017D01*
X131858352Y-86542135D01*
X131909729Y-86497618D01*
X131967738Y-86470568D01*
X132154143Y-86340047D01*
X132315051Y-86179139D01*
X132445122Y-85993375D01*
X132499697Y-85949752D01*
X132546696Y-85940500D01*
X132978335Y-85940500D01*
X132978351Y-85940501D01*
X132985947Y-85940501D01*
X133144058Y-85940501D01*
X133144061Y-85940501D01*
X133296789Y-85899577D01*
X133346908Y-85870639D01*
X133433720Y-85820520D01*
X133545524Y-85708716D01*
X133545524Y-85708714D01*
X133555732Y-85698507D01*
X133555733Y-85698504D01*
X136905524Y-82348716D01*
X136984581Y-82211784D01*
X137025505Y-82059057D01*
X137025505Y-81900942D01*
X137025505Y-81893347D01*
X137025504Y-81893329D01*
X137025504Y-77719998D01*
X145249536Y-77719998D01*
X145249536Y-77720001D01*
X145269368Y-77946686D01*
X145269370Y-77946697D01*
X145328262Y-78166488D01*
X145328265Y-78166497D01*
X145424435Y-78372732D01*
X145424436Y-78372734D01*
X145554958Y-78559141D01*
X145715862Y-78720045D01*
X145715865Y-78720047D01*
X145902270Y-78850568D01*
X145960279Y-78877618D01*
X146012718Y-78923791D01*
X146031870Y-78990984D01*
X146011654Y-79057865D01*
X145960279Y-79102382D01*
X145902271Y-79129431D01*
X145902269Y-79129432D01*
X145715862Y-79259954D01*
X145554958Y-79420858D01*
X145424436Y-79607265D01*
X145424435Y-79607267D01*
X145328265Y-79813502D01*
X145328262Y-79813511D01*
X145269370Y-80033302D01*
X145269368Y-80033313D01*
X145249536Y-80259998D01*
X145249536Y-80260001D01*
X145269368Y-80486686D01*
X145269370Y-80486697D01*
X145328262Y-80706488D01*
X145328265Y-80706497D01*
X145424435Y-80912732D01*
X145424436Y-80912734D01*
X145554958Y-81099141D01*
X145715862Y-81260045D01*
X145715865Y-81260047D01*
X145902270Y-81390568D01*
X145960279Y-81417618D01*
X146012718Y-81463791D01*
X146031870Y-81530984D01*
X146011654Y-81597865D01*
X145960279Y-81642382D01*
X145902271Y-81669431D01*
X145902269Y-81669432D01*
X145715862Y-81799954D01*
X145554958Y-81960858D01*
X145424436Y-82147265D01*
X145424435Y-82147267D01*
X145328265Y-82353502D01*
X145328262Y-82353511D01*
X145269370Y-82573302D01*
X145269368Y-82573313D01*
X145249536Y-82799998D01*
X145249536Y-82800001D01*
X145269368Y-83026686D01*
X145269370Y-83026697D01*
X145328262Y-83246488D01*
X145328265Y-83246497D01*
X145424435Y-83452732D01*
X145424436Y-83452734D01*
X145554958Y-83639141D01*
X145715862Y-83800045D01*
X145715865Y-83800047D01*
X145902270Y-83930568D01*
X145960279Y-83957618D01*
X146012718Y-84003791D01*
X146031870Y-84070984D01*
X146011654Y-84137865D01*
X145960279Y-84182382D01*
X145902271Y-84209431D01*
X145902269Y-84209432D01*
X145715862Y-84339954D01*
X145554958Y-84500858D01*
X145424436Y-84687265D01*
X145424435Y-84687267D01*
X145328265Y-84893502D01*
X145328262Y-84893511D01*
X145269370Y-85113302D01*
X145269368Y-85113313D01*
X145249536Y-85339998D01*
X145249536Y-85340001D01*
X145269368Y-85566686D01*
X145269370Y-85566697D01*
X145328262Y-85786488D01*
X145328265Y-85786497D01*
X145424435Y-85992732D01*
X145424436Y-85992734D01*
X145554958Y-86179141D01*
X145715862Y-86340045D01*
X145715865Y-86340047D01*
X145902270Y-86470568D01*
X145960279Y-86497618D01*
X146012718Y-86543791D01*
X146031870Y-86610984D01*
X146011654Y-86677865D01*
X145960279Y-86722382D01*
X145902271Y-86749431D01*
X145902269Y-86749432D01*
X145715862Y-86879954D01*
X145554958Y-87040858D01*
X145424436Y-87227265D01*
X145424435Y-87227267D01*
X145328265Y-87433502D01*
X145328262Y-87433511D01*
X145269370Y-87653302D01*
X145269368Y-87653313D01*
X145249536Y-87879998D01*
X145249536Y-87880001D01*
X145269368Y-88106686D01*
X145269370Y-88106697D01*
X145328262Y-88326488D01*
X145328265Y-88326497D01*
X145424435Y-88532732D01*
X145424436Y-88532734D01*
X145554958Y-88719141D01*
X145715862Y-88880045D01*
X145743881Y-88899664D01*
X145902270Y-89010568D01*
X145960279Y-89037618D01*
X146012718Y-89083791D01*
X146031870Y-89150984D01*
X146011654Y-89217865D01*
X145960279Y-89262382D01*
X145902271Y-89289431D01*
X145902269Y-89289432D01*
X145715862Y-89419954D01*
X145554958Y-89580858D01*
X145424436Y-89767265D01*
X145424435Y-89767267D01*
X145328265Y-89973502D01*
X145328262Y-89973511D01*
X145269370Y-90193302D01*
X145269368Y-90193313D01*
X145249536Y-90419998D01*
X145249536Y-90420001D01*
X145269368Y-90646686D01*
X145269370Y-90646697D01*
X145328262Y-90866488D01*
X145328265Y-90866497D01*
X145424435Y-91072732D01*
X145424436Y-91072734D01*
X145554958Y-91259141D01*
X145715862Y-91420045D01*
X145715865Y-91420047D01*
X145902270Y-91550568D01*
X145960279Y-91577618D01*
X146012718Y-91623791D01*
X146031870Y-91690984D01*
X146011654Y-91757865D01*
X145960279Y-91802382D01*
X145902271Y-91829431D01*
X145902269Y-91829432D01*
X145715862Y-91959954D01*
X145554958Y-92120858D01*
X145424436Y-92307265D01*
X145424435Y-92307267D01*
X145328265Y-92513502D01*
X145328262Y-92513511D01*
X145269370Y-92733302D01*
X145269368Y-92733313D01*
X145249536Y-92959998D01*
X145249536Y-92960001D01*
X145269368Y-93186686D01*
X145269370Y-93186697D01*
X145328262Y-93406488D01*
X145328265Y-93406497D01*
X145424435Y-93612732D01*
X145424436Y-93612734D01*
X145554958Y-93799141D01*
X145715862Y-93960045D01*
X145715865Y-93960047D01*
X145902270Y-94090568D01*
X145960279Y-94117618D01*
X146012718Y-94163791D01*
X146031870Y-94230984D01*
X146011654Y-94297865D01*
X145960279Y-94342382D01*
X145902271Y-94369431D01*
X145902269Y-94369432D01*
X145715862Y-94499954D01*
X145554958Y-94660858D01*
X145424436Y-94847265D01*
X145424435Y-94847267D01*
X145328265Y-95053502D01*
X145328262Y-95053511D01*
X145269370Y-95273302D01*
X145269368Y-95273313D01*
X145249536Y-95499998D01*
X145249536Y-95500001D01*
X145269368Y-95726686D01*
X145269370Y-95726697D01*
X145328262Y-95946488D01*
X145328265Y-95946497D01*
X145424435Y-96152732D01*
X145424436Y-96152734D01*
X145554958Y-96339141D01*
X145715862Y-96500045D01*
X145715865Y-96500047D01*
X145902270Y-96630568D01*
X145960279Y-96657618D01*
X146012718Y-96703791D01*
X146031870Y-96770984D01*
X146011654Y-96837865D01*
X145960279Y-96882382D01*
X145902271Y-96909431D01*
X145902269Y-96909432D01*
X145715862Y-97039954D01*
X145554958Y-97200858D01*
X145424436Y-97387265D01*
X145424435Y-97387267D01*
X145328265Y-97593502D01*
X145328262Y-97593511D01*
X145269370Y-97813302D01*
X145269368Y-97813313D01*
X145249536Y-98039998D01*
X145249536Y-98040001D01*
X145269368Y-98266686D01*
X145269370Y-98266697D01*
X145328262Y-98486488D01*
X145328265Y-98486497D01*
X145424435Y-98692732D01*
X145424436Y-98692734D01*
X145554958Y-98879141D01*
X145715862Y-99040045D01*
X145715865Y-99040047D01*
X145902270Y-99170568D01*
X145960279Y-99197618D01*
X146012718Y-99243791D01*
X146031870Y-99310984D01*
X146011654Y-99377865D01*
X145960279Y-99422382D01*
X145902271Y-99449431D01*
X145902269Y-99449432D01*
X145715862Y-99579954D01*
X145554958Y-99740858D01*
X145424436Y-99927265D01*
X145424435Y-99927267D01*
X145328265Y-100133502D01*
X145328262Y-100133511D01*
X145269370Y-100353302D01*
X145269368Y-100353313D01*
X145249536Y-100579998D01*
X145249536Y-100580001D01*
X145269368Y-100806686D01*
X145269370Y-100806697D01*
X145328262Y-101026488D01*
X145328265Y-101026497D01*
X145424435Y-101232732D01*
X145424436Y-101232734D01*
X145554958Y-101419141D01*
X145715862Y-101580045D01*
X145715865Y-101580047D01*
X145902270Y-101710568D01*
X145960279Y-101737618D01*
X146012718Y-101783791D01*
X146031870Y-101850984D01*
X146011654Y-101917865D01*
X145960279Y-101962382D01*
X145902271Y-101989431D01*
X145902269Y-101989432D01*
X145715862Y-102119954D01*
X145554958Y-102280858D01*
X145424436Y-102467265D01*
X145424435Y-102467267D01*
X145328265Y-102673502D01*
X145328262Y-102673511D01*
X145269370Y-102893302D01*
X145269368Y-102893313D01*
X145249536Y-103119998D01*
X145249536Y-103120001D01*
X145269368Y-103346686D01*
X145269370Y-103346697D01*
X145328262Y-103566488D01*
X145328265Y-103566497D01*
X145424435Y-103772732D01*
X145424436Y-103772734D01*
X145554958Y-103959141D01*
X145715862Y-104120045D01*
X145715865Y-104120047D01*
X145902270Y-104250568D01*
X145960279Y-104277618D01*
X146012718Y-104323791D01*
X146031870Y-104390984D01*
X146011654Y-104457865D01*
X145960279Y-104502382D01*
X145902271Y-104529431D01*
X145902269Y-104529432D01*
X145715862Y-104659954D01*
X145554958Y-104820858D01*
X145424436Y-105007265D01*
X145424435Y-105007267D01*
X145328265Y-105213502D01*
X145328262Y-105213511D01*
X145269370Y-105433302D01*
X145269368Y-105433313D01*
X145249536Y-105659998D01*
X145249536Y-105660001D01*
X145269368Y-105886686D01*
X145269370Y-105886697D01*
X145328262Y-106106488D01*
X145328265Y-106106497D01*
X145424435Y-106312732D01*
X145424436Y-106312734D01*
X145554958Y-106499141D01*
X145715862Y-106660045D01*
X145715865Y-106660047D01*
X145902270Y-106790568D01*
X145959685Y-106817341D01*
X145960279Y-106817618D01*
X146012718Y-106863791D01*
X146031870Y-106930984D01*
X146011654Y-106997865D01*
X145960279Y-107042382D01*
X145902271Y-107069431D01*
X145902269Y-107069432D01*
X145715862Y-107199954D01*
X145554958Y-107360858D01*
X145424436Y-107547265D01*
X145424435Y-107547267D01*
X145328265Y-107753502D01*
X145328262Y-107753511D01*
X145269370Y-107973302D01*
X145269368Y-107973313D01*
X145249536Y-108199998D01*
X145249536Y-108200001D01*
X145269368Y-108426686D01*
X145269370Y-108426697D01*
X145328262Y-108646488D01*
X145328265Y-108646497D01*
X145424435Y-108852732D01*
X145424436Y-108852734D01*
X145554958Y-109039141D01*
X145715862Y-109200045D01*
X145715865Y-109200047D01*
X145902270Y-109330568D01*
X145960869Y-109357893D01*
X146013309Y-109404065D01*
X146032461Y-109471258D01*
X146012246Y-109538139D01*
X145960871Y-109582657D01*
X145902519Y-109609867D01*
X145716183Y-109740342D01*
X145555346Y-109901179D01*
X145424869Y-110087517D01*
X145328738Y-110293673D01*
X145328734Y-110293682D01*
X145276131Y-110489999D01*
X145276132Y-110490000D01*
X146121992Y-110490000D01*
X146089079Y-110547007D01*
X146055004Y-110674174D01*
X146055004Y-110805826D01*
X146089079Y-110932993D01*
X146121992Y-110990000D01*
X145276132Y-110990000D01*
X145328734Y-111186317D01*
X145328738Y-111186326D01*
X145424869Y-111392482D01*
X145555346Y-111578820D01*
X145716183Y-111739657D01*
X145902522Y-111870134D01*
X145902524Y-111870135D01*
X145960869Y-111897342D01*
X146013309Y-111943514D01*
X146032461Y-112010707D01*
X146012246Y-112077589D01*
X145960871Y-112122105D01*
X145902272Y-112149431D01*
X145902268Y-112149433D01*
X145715862Y-112279954D01*
X145554958Y-112440858D01*
X145424436Y-112627265D01*
X145424435Y-112627267D01*
X145328265Y-112833502D01*
X145328262Y-112833511D01*
X145269370Y-113053302D01*
X145269368Y-113053313D01*
X145249536Y-113279998D01*
X145249536Y-113280001D01*
X145269368Y-113506686D01*
X145269370Y-113506697D01*
X145328262Y-113726488D01*
X145328265Y-113726497D01*
X145424435Y-113932732D01*
X145424436Y-113932734D01*
X145554958Y-114119141D01*
X145715862Y-114280045D01*
X145715865Y-114280047D01*
X145902270Y-114410568D01*
X146108508Y-114506739D01*
X146328312Y-114565635D01*
X146490234Y-114579801D01*
X146555002Y-114585468D01*
X146555004Y-114585468D01*
X146555006Y-114585468D01*
X146613103Y-114580385D01*
X146781696Y-114565635D01*
X147001500Y-114506739D01*
X147207738Y-114410568D01*
X147394143Y-114280047D01*
X147555051Y-114119139D01*
X147685572Y-113932734D01*
X147781743Y-113726496D01*
X147840639Y-113506692D01*
X147860472Y-113280000D01*
X147840639Y-113053308D01*
X147781743Y-112833504D01*
X147685572Y-112627266D01*
X147587843Y-112487693D01*
X147555049Y-112440858D01*
X147394145Y-112279954D01*
X147207738Y-112149432D01*
X147207736Y-112149431D01*
X147196279Y-112144088D01*
X147149136Y-112122105D01*
X147096698Y-112075934D01*
X147077546Y-112008740D01*
X147097762Y-111941859D01*
X147149138Y-111897341D01*
X147207488Y-111870132D01*
X147393824Y-111739657D01*
X147554661Y-111578820D01*
X147685138Y-111392482D01*
X147781269Y-111186326D01*
X147781273Y-111186317D01*
X147833876Y-110990000D01*
X146988016Y-110990000D01*
X147020929Y-110932993D01*
X147055004Y-110805826D01*
X147055004Y-110674174D01*
X147020929Y-110547007D01*
X146988016Y-110490000D01*
X147833876Y-110490000D01*
X147833876Y-110489999D01*
X147781273Y-110293682D01*
X147781269Y-110293673D01*
X147685138Y-110087517D01*
X147554661Y-109901179D01*
X147393824Y-109740342D01*
X147207486Y-109609865D01*
X147149137Y-109582657D01*
X147096698Y-109536484D01*
X147077546Y-109469291D01*
X147097762Y-109402410D01*
X147149133Y-109357895D01*
X147207738Y-109330568D01*
X147394143Y-109200047D01*
X147555051Y-109039139D01*
X147685572Y-108852734D01*
X147781743Y-108646496D01*
X147840639Y-108426692D01*
X147860472Y-108200000D01*
X147840639Y-107973308D01*
X147781743Y-107753504D01*
X147685572Y-107547266D01*
X147555051Y-107360861D01*
X147555049Y-107360858D01*
X147394145Y-107199954D01*
X147207738Y-107069432D01*
X147207732Y-107069429D01*
X147149729Y-107042382D01*
X147097289Y-106996210D01*
X147078137Y-106929017D01*
X147098352Y-106862135D01*
X147149729Y-106817618D01*
X147150323Y-106817341D01*
X147207738Y-106790568D01*
X147394143Y-106660047D01*
X147555051Y-106499139D01*
X147685572Y-106312734D01*
X147781743Y-106106496D01*
X147840639Y-105886692D01*
X147857638Y-105692384D01*
X147860472Y-105660001D01*
X147860472Y-105659998D01*
X147849996Y-105540255D01*
X147840639Y-105433308D01*
X147793532Y-105257500D01*
X147781745Y-105213511D01*
X147781742Y-105213502D01*
X147765385Y-105178425D01*
X147685572Y-105007266D01*
X147555051Y-104820861D01*
X147555049Y-104820858D01*
X147394145Y-104659954D01*
X147207738Y-104529432D01*
X147207732Y-104529429D01*
X147149729Y-104502382D01*
X147097289Y-104456210D01*
X147078137Y-104389017D01*
X147098352Y-104322135D01*
X147149729Y-104277618D01*
X147207738Y-104250568D01*
X147394143Y-104120047D01*
X147555051Y-103959139D01*
X147685572Y-103772734D01*
X147781743Y-103566496D01*
X147840639Y-103346692D01*
X147860472Y-103120000D01*
X147840639Y-102893308D01*
X147793532Y-102717500D01*
X147781745Y-102673511D01*
X147781742Y-102673502D01*
X147721137Y-102543535D01*
X147685572Y-102467266D01*
X147555051Y-102280861D01*
X147555049Y-102280858D01*
X147394145Y-102119954D01*
X147207738Y-101989432D01*
X147207732Y-101989429D01*
X147180042Y-101976517D01*
X147149728Y-101962381D01*
X147097289Y-101916210D01*
X147078137Y-101849017D01*
X147098352Y-101782135D01*
X147149729Y-101737618D01*
X147207738Y-101710568D01*
X147394143Y-101580047D01*
X147504191Y-101469999D01*
X150794345Y-101469999D01*
X150794345Y-101470000D01*
X150814940Y-101705403D01*
X150814942Y-101705413D01*
X150876098Y-101933655D01*
X150876100Y-101933659D01*
X150876101Y-101933663D01*
X150902107Y-101989432D01*
X150975969Y-102147830D01*
X150975971Y-102147834D01*
X151111505Y-102341395D01*
X151111510Y-102341402D01*
X151278601Y-102508493D01*
X151278607Y-102508498D01*
X151464162Y-102638425D01*
X151507787Y-102693002D01*
X151514981Y-102762500D01*
X151483458Y-102824855D01*
X151464162Y-102841575D01*
X151278601Y-102971505D01*
X151111509Y-103138597D01*
X150975969Y-103332169D01*
X150975968Y-103332171D01*
X150876102Y-103546335D01*
X150876098Y-103546344D01*
X150814942Y-103774586D01*
X150814940Y-103774596D01*
X150794345Y-104009999D01*
X150794345Y-104010000D01*
X150814940Y-104245403D01*
X150814942Y-104245413D01*
X150876098Y-104473655D01*
X150876100Y-104473659D01*
X150876101Y-104473663D01*
X150915416Y-104557973D01*
X150975969Y-104687830D01*
X150975971Y-104687834D01*
X151111505Y-104881395D01*
X151111510Y-104881402D01*
X151278601Y-105048493D01*
X151278607Y-105048498D01*
X151464162Y-105178425D01*
X151507787Y-105233002D01*
X151514981Y-105302500D01*
X151483458Y-105364855D01*
X151464162Y-105381575D01*
X151278601Y-105511505D01*
X151111509Y-105678597D01*
X150975969Y-105872169D01*
X150975968Y-105872171D01*
X150876102Y-106086335D01*
X150876098Y-106086344D01*
X150814942Y-106314586D01*
X150814940Y-106314596D01*
X150794345Y-106549999D01*
X150794345Y-106550000D01*
X150814940Y-106785403D01*
X150814942Y-106785413D01*
X150876098Y-107013655D01*
X150876100Y-107013659D01*
X150876101Y-107013663D01*
X150922313Y-107112764D01*
X150975969Y-107227830D01*
X150975971Y-107227834D01*
X151019722Y-107290316D01*
X151111509Y-107421401D01*
X151278603Y-107588495D01*
X151375388Y-107656265D01*
X151472169Y-107724032D01*
X151472171Y-107724033D01*
X151472174Y-107724035D01*
X151686341Y-107823903D01*
X151914596Y-107885063D01*
X152102922Y-107901539D01*
X152150003Y-107905659D01*
X152150004Y-107905659D01*
X152150005Y-107905659D01*
X152189238Y-107902226D01*
X152385412Y-107885063D01*
X152613667Y-107823903D01*
X152827834Y-107724035D01*
X153021405Y-107588495D01*
X153188499Y-107421401D01*
X153324039Y-107227830D01*
X153423907Y-107013663D01*
X153485067Y-106785408D01*
X153505663Y-106550000D01*
X153485067Y-106314592D01*
X153423907Y-106086337D01*
X153324039Y-105872171D01*
X153310611Y-105852993D01*
X153188498Y-105678597D01*
X153021406Y-105511506D01*
X153021400Y-105511501D01*
X152835846Y-105381575D01*
X152792221Y-105326998D01*
X152785027Y-105257500D01*
X152816550Y-105195145D01*
X152835846Y-105178425D01*
X152858030Y-105162891D01*
X153021405Y-105048495D01*
X153188499Y-104881401D01*
X153324039Y-104687830D01*
X153423907Y-104473663D01*
X153485067Y-104245408D01*
X153505663Y-104010000D01*
X153485067Y-103774592D01*
X153423907Y-103546337D01*
X153324039Y-103332171D01*
X153315785Y-103320382D01*
X153188498Y-103138597D01*
X153021406Y-102971506D01*
X153021400Y-102971501D01*
X152835846Y-102841575D01*
X152792221Y-102786998D01*
X152785027Y-102717500D01*
X152816550Y-102655145D01*
X152835846Y-102638425D01*
X152858030Y-102622891D01*
X153021405Y-102508495D01*
X153188499Y-102341401D01*
X153324039Y-102147830D01*
X153423907Y-101933663D01*
X153485067Y-101705408D01*
X153505663Y-101470000D01*
X153485067Y-101234592D01*
X153423907Y-101006337D01*
X153324039Y-100792171D01*
X153297459Y-100754211D01*
X153188500Y-100598600D01*
X153149517Y-100559617D01*
X153066571Y-100476671D01*
X153033088Y-100415351D01*
X153038072Y-100345659D01*
X153079943Y-100289725D01*
X153110919Y-100272810D01*
X153242335Y-100223796D01*
X153357550Y-100137546D01*
X153443800Y-100022331D01*
X153494095Y-99887483D01*
X153500504Y-99827873D01*
X153500503Y-98032128D01*
X153494095Y-97972517D01*
X153443800Y-97837669D01*
X153443799Y-97837668D01*
X153443797Y-97837664D01*
X153357551Y-97722455D01*
X153357548Y-97722452D01*
X153242339Y-97636206D01*
X153242332Y-97636202D01*
X153107486Y-97585908D01*
X153107487Y-97585908D01*
X153047887Y-97579501D01*
X153047885Y-97579500D01*
X153047877Y-97579500D01*
X153047868Y-97579500D01*
X151252133Y-97579500D01*
X151252127Y-97579501D01*
X151192520Y-97585908D01*
X151057675Y-97636202D01*
X151057668Y-97636206D01*
X150942459Y-97722452D01*
X150942456Y-97722455D01*
X150856210Y-97837664D01*
X150856206Y-97837671D01*
X150805912Y-97972517D01*
X150799505Y-98032116D01*
X150799505Y-98032123D01*
X150799504Y-98032135D01*
X150799504Y-99827870D01*
X150799505Y-99827876D01*
X150805912Y-99887483D01*
X150856206Y-100022328D01*
X150856210Y-100022335D01*
X150942456Y-100137544D01*
X150942459Y-100137547D01*
X151057668Y-100223793D01*
X151057675Y-100223797D01*
X151189085Y-100272810D01*
X151245019Y-100314681D01*
X151269436Y-100380145D01*
X151254584Y-100448418D01*
X151233434Y-100476673D01*
X151111507Y-100598600D01*
X150975969Y-100792169D01*
X150975968Y-100792171D01*
X150876102Y-101006335D01*
X150876098Y-101006344D01*
X150814942Y-101234586D01*
X150814940Y-101234596D01*
X150794345Y-101469999D01*
X147504191Y-101469999D01*
X147555051Y-101419139D01*
X147685572Y-101232734D01*
X147781743Y-101026496D01*
X147840639Y-100806692D01*
X147857638Y-100612384D01*
X147860472Y-100580001D01*
X147860472Y-100579998D01*
X147840639Y-100353313D01*
X147840639Y-100353308D01*
X147781743Y-100133504D01*
X147685572Y-99927266D01*
X147555051Y-99740861D01*
X147555049Y-99740858D01*
X147394145Y-99579954D01*
X147207738Y-99449432D01*
X147207732Y-99449429D01*
X147180042Y-99436517D01*
X147149728Y-99422381D01*
X147097289Y-99376210D01*
X147078137Y-99309017D01*
X147098352Y-99242135D01*
X147149729Y-99197618D01*
X147207738Y-99170568D01*
X147394143Y-99040047D01*
X147555051Y-98879139D01*
X147685572Y-98692734D01*
X147781743Y-98486496D01*
X147840639Y-98266692D01*
X147860472Y-98040000D01*
X147859783Y-98032129D01*
X147840639Y-97813313D01*
X147840639Y-97813308D01*
X147781743Y-97593504D01*
X147685572Y-97387266D01*
X147555051Y-97200861D01*
X147555049Y-97200858D01*
X147394145Y-97039954D01*
X147207738Y-96909432D01*
X147207732Y-96909429D01*
X147149729Y-96882382D01*
X147097289Y-96836210D01*
X147078137Y-96769017D01*
X147098352Y-96702135D01*
X147149729Y-96657618D01*
X147207738Y-96630568D01*
X147394143Y-96500047D01*
X147555051Y-96339139D01*
X147685572Y-96152734D01*
X147781743Y-95946496D01*
X147840639Y-95726692D01*
X147860472Y-95500000D01*
X147840639Y-95273308D01*
X147781743Y-95053504D01*
X147685572Y-94847266D01*
X147555051Y-94660861D01*
X147555049Y-94660858D01*
X147394145Y-94499954D01*
X147207738Y-94369432D01*
X147207732Y-94369429D01*
X147149729Y-94342382D01*
X147097289Y-94296210D01*
X147078137Y-94229017D01*
X147098352Y-94162135D01*
X147149729Y-94117618D01*
X147207738Y-94090568D01*
X147394143Y-93960047D01*
X147555051Y-93799139D01*
X147685572Y-93612734D01*
X147781743Y-93406496D01*
X147840639Y-93186692D01*
X147860472Y-92960000D01*
X147857979Y-92931510D01*
X147848937Y-92828153D01*
X147840639Y-92733308D01*
X147781743Y-92513504D01*
X147685572Y-92307266D01*
X147555051Y-92120861D01*
X147555049Y-92120858D01*
X147394145Y-91959954D01*
X147207738Y-91829432D01*
X147207732Y-91829429D01*
X147149729Y-91802382D01*
X147097289Y-91756210D01*
X147078137Y-91689017D01*
X147098352Y-91622135D01*
X147149729Y-91577618D01*
X147207738Y-91550568D01*
X147394143Y-91420047D01*
X147555051Y-91259139D01*
X147685572Y-91072734D01*
X147781743Y-90866496D01*
X147840639Y-90646692D01*
X147860472Y-90420000D01*
X147840639Y-90193308D01*
X147781743Y-89973504D01*
X147685572Y-89767266D01*
X147555051Y-89580861D01*
X147555049Y-89580858D01*
X147394145Y-89419954D01*
X147207738Y-89289432D01*
X147207732Y-89289429D01*
X147149729Y-89262382D01*
X147097289Y-89216210D01*
X147078137Y-89149017D01*
X147098352Y-89082135D01*
X147149729Y-89037618D01*
X147207738Y-89010568D01*
X147394143Y-88880047D01*
X147555051Y-88719139D01*
X147685572Y-88532734D01*
X147781743Y-88326496D01*
X147840639Y-88106692D01*
X147860472Y-87880000D01*
X147840639Y-87653308D01*
X147781743Y-87433504D01*
X147685572Y-87227266D01*
X147559668Y-87047455D01*
X147555049Y-87040858D01*
X147394145Y-86879954D01*
X147207738Y-86749432D01*
X147207732Y-86749429D01*
X147149729Y-86722382D01*
X147097289Y-86676210D01*
X147078137Y-86609017D01*
X147098352Y-86542135D01*
X147149729Y-86497618D01*
X147207738Y-86470568D01*
X147394143Y-86340047D01*
X147555051Y-86179139D01*
X147685572Y-85992734D01*
X147781743Y-85786496D01*
X147840639Y-85566692D01*
X147860472Y-85340000D01*
X147857598Y-85307155D01*
X147852390Y-85247620D01*
X147840639Y-85113308D01*
X147781743Y-84893504D01*
X147685572Y-84687266D01*
X147555051Y-84500861D01*
X147555049Y-84500858D01*
X147394145Y-84339954D01*
X147207738Y-84209432D01*
X147207732Y-84209429D01*
X147149729Y-84182382D01*
X147097289Y-84136210D01*
X147078137Y-84069017D01*
X147098352Y-84002135D01*
X147149729Y-83957618D01*
X147207738Y-83930568D01*
X147394143Y-83800047D01*
X147555051Y-83639139D01*
X147685572Y-83452734D01*
X147781743Y-83246496D01*
X147840639Y-83026692D01*
X147860472Y-82800000D01*
X147840639Y-82573308D01*
X147781743Y-82353504D01*
X147685572Y-82147266D01*
X147596459Y-82019999D01*
X149719361Y-82019999D01*
X149719361Y-82020000D01*
X149739888Y-82241535D01*
X149739889Y-82241537D01*
X149800773Y-82455523D01*
X149800779Y-82455538D01*
X149899942Y-82654683D01*
X149899947Y-82654691D01*
X150034024Y-82832238D01*
X150198441Y-82982123D01*
X150198443Y-82982125D01*
X150387599Y-83099245D01*
X150387600Y-83099245D01*
X150387603Y-83099247D01*
X150595064Y-83179618D01*
X150813761Y-83220500D01*
X150813763Y-83220500D01*
X151036245Y-83220500D01*
X151036247Y-83220500D01*
X151254944Y-83179618D01*
X151462405Y-83099247D01*
X151651566Y-82982124D01*
X151815985Y-82832236D01*
X151950062Y-82654689D01*
X152049233Y-82455528D01*
X152110119Y-82241536D01*
X152130647Y-82020000D01*
X152119614Y-81900938D01*
X152110119Y-81798464D01*
X152110118Y-81798462D01*
X152107800Y-81790316D01*
X152049233Y-81584472D01*
X152021620Y-81529017D01*
X151950065Y-81385316D01*
X151950060Y-81385308D01*
X151815983Y-81207761D01*
X151651566Y-81057876D01*
X151651564Y-81057874D01*
X151462408Y-80940754D01*
X151462402Y-80940752D01*
X151254944Y-80860382D01*
X151036247Y-80819500D01*
X150813761Y-80819500D01*
X150595064Y-80860382D01*
X150543134Y-80880500D01*
X150387605Y-80940752D01*
X150387599Y-80940754D01*
X150198443Y-81057874D01*
X150198441Y-81057876D01*
X150034024Y-81207761D01*
X149899947Y-81385308D01*
X149899942Y-81385316D01*
X149800779Y-81584461D01*
X149800773Y-81584476D01*
X149739889Y-81798462D01*
X149739888Y-81798464D01*
X149719361Y-82019999D01*
X147596459Y-82019999D01*
X147555051Y-81960861D01*
X147555049Y-81960858D01*
X147394145Y-81799954D01*
X147207738Y-81669432D01*
X147207732Y-81669429D01*
X147149729Y-81642382D01*
X147097289Y-81596210D01*
X147078137Y-81529017D01*
X147098352Y-81462135D01*
X147149729Y-81417618D01*
X147207738Y-81390568D01*
X147394143Y-81260047D01*
X147555051Y-81099139D01*
X147685572Y-80912734D01*
X147781743Y-80706496D01*
X147840639Y-80486692D01*
X147860472Y-80260000D01*
X147858834Y-80241282D01*
X147841965Y-80048464D01*
X147840639Y-80033308D01*
X147781743Y-79813504D01*
X147685572Y-79607266D01*
X147555051Y-79420861D01*
X147555049Y-79420858D01*
X147394145Y-79259954D01*
X147207738Y-79129432D01*
X147207732Y-79129429D01*
X147149729Y-79102382D01*
X147097289Y-79056210D01*
X147078137Y-78989017D01*
X147098352Y-78922135D01*
X147149729Y-78877618D01*
X147207738Y-78850568D01*
X147394143Y-78720047D01*
X147555051Y-78559139D01*
X147685572Y-78372734D01*
X147781743Y-78166496D01*
X147840639Y-77946692D01*
X147860472Y-77720000D01*
X147840639Y-77493308D01*
X147781743Y-77273504D01*
X147685572Y-77067266D01*
X147596459Y-76939999D01*
X149719361Y-76939999D01*
X149719361Y-76940000D01*
X149739888Y-77161535D01*
X149739889Y-77161537D01*
X149800773Y-77375523D01*
X149800779Y-77375538D01*
X149899942Y-77574683D01*
X149899947Y-77574691D01*
X150034024Y-77752238D01*
X150198441Y-77902123D01*
X150198443Y-77902125D01*
X150387599Y-78019245D01*
X150387600Y-78019245D01*
X150387603Y-78019247D01*
X150595064Y-78099618D01*
X150813761Y-78140500D01*
X150813763Y-78140500D01*
X151036245Y-78140500D01*
X151036247Y-78140500D01*
X151254944Y-78099618D01*
X151462405Y-78019247D01*
X151651566Y-77902124D01*
X151815985Y-77752236D01*
X151950062Y-77574689D01*
X152049233Y-77375528D01*
X152110119Y-77161536D01*
X152130647Y-76940000D01*
X152110119Y-76718464D01*
X152049233Y-76504472D01*
X152043651Y-76493261D01*
X151950065Y-76305316D01*
X151950060Y-76305308D01*
X151815983Y-76127761D01*
X151651566Y-75977876D01*
X151651564Y-75977874D01*
X151462408Y-75860754D01*
X151462402Y-75860752D01*
X151254944Y-75780382D01*
X151036247Y-75739500D01*
X150813761Y-75739500D01*
X150595064Y-75780382D01*
X150480710Y-75824683D01*
X150387605Y-75860752D01*
X150387599Y-75860754D01*
X150198443Y-75977874D01*
X150198441Y-75977876D01*
X150034024Y-76127761D01*
X149899947Y-76305308D01*
X149899942Y-76305316D01*
X149800779Y-76504461D01*
X149800773Y-76504476D01*
X149739889Y-76718462D01*
X149739888Y-76718464D01*
X149719361Y-76939999D01*
X147596459Y-76939999D01*
X147555051Y-76880861D01*
X147555049Y-76880858D01*
X147394145Y-76719954D01*
X147207738Y-76589432D01*
X147207736Y-76589431D01*
X147001501Y-76493261D01*
X147001492Y-76493258D01*
X146781701Y-76434366D01*
X146781697Y-76434365D01*
X146781696Y-76434365D01*
X146781695Y-76434364D01*
X146781690Y-76434364D01*
X146555006Y-76414532D01*
X146555002Y-76414532D01*
X146328317Y-76434364D01*
X146328306Y-76434366D01*
X146108515Y-76493258D01*
X146108506Y-76493261D01*
X145902271Y-76589431D01*
X145902269Y-76589432D01*
X145715862Y-76719954D01*
X145554958Y-76880858D01*
X145424436Y-77067265D01*
X145424435Y-77067267D01*
X145328265Y-77273502D01*
X145328262Y-77273511D01*
X145269370Y-77493302D01*
X145269368Y-77493313D01*
X145249536Y-77719998D01*
X137025504Y-77719998D01*
X137025504Y-75280097D01*
X137045189Y-75213058D01*
X137061823Y-75192416D01*
X137637421Y-74616819D01*
X137698744Y-74583334D01*
X137725102Y-74580500D01*
X153124907Y-74580500D01*
X153191946Y-74600185D01*
X153212588Y-74616819D01*
X153538185Y-74942416D01*
X153571670Y-75003739D01*
X153574504Y-75030097D01*
X153574504Y-79897587D01*
X153554819Y-79964626D01*
X153547454Y-79974896D01*
X153545190Y-79977734D01*
X153449215Y-80130476D01*
X153389635Y-80300745D01*
X153389634Y-80300750D01*
X153369439Y-80479996D01*
X153369439Y-80480003D01*
X153389634Y-80659249D01*
X153389635Y-80659254D01*
X153449215Y-80829523D01*
X153519106Y-80940753D01*
X153545188Y-80982262D01*
X153672742Y-81109816D01*
X153731334Y-81146632D01*
X153800180Y-81189891D01*
X153825482Y-81205789D01*
X153995749Y-81265368D01*
X153995754Y-81265369D01*
X154175000Y-81285565D01*
X154175004Y-81285565D01*
X154175008Y-81285565D01*
X154354253Y-81265369D01*
X154354256Y-81265368D01*
X154354259Y-81265368D01*
X154524526Y-81205789D01*
X154677266Y-81109816D01*
X154804820Y-80982262D01*
X154900793Y-80829522D01*
X154960372Y-80659255D01*
X154960373Y-80659249D01*
X154980569Y-80480003D01*
X154980569Y-80479996D01*
X154960373Y-80300750D01*
X154960372Y-80300745D01*
X154949614Y-80270000D01*
X154900793Y-80130478D01*
X154804820Y-79977738D01*
X154804818Y-79977736D01*
X154804817Y-79977734D01*
X154802554Y-79974896D01*
X154801663Y-79972715D01*
X154801115Y-79971842D01*
X154801268Y-79971745D01*
X154776148Y-79910209D01*
X154775504Y-79897587D01*
X154775504Y-74650945D01*
X154775504Y-74650943D01*
X154742930Y-74529374D01*
X154734581Y-74498215D01*
X154698832Y-74436297D01*
X154698832Y-74436295D01*
X154655528Y-74361290D01*
X154655525Y-74361286D01*
X154655524Y-74361284D01*
X154543720Y-74249480D01*
X154543719Y-74249479D01*
X154539389Y-74245149D01*
X154539378Y-74245139D01*
X153912594Y-73618355D01*
X153912592Y-73618352D01*
X153793721Y-73499481D01*
X153793720Y-73499480D01*
X153706908Y-73449360D01*
X153706908Y-73449359D01*
X153706904Y-73449358D01*
X153656789Y-73420423D01*
X153504061Y-73379499D01*
X153345947Y-73379499D01*
X153338351Y-73379499D01*
X153338335Y-73379500D01*
X137511674Y-73379500D01*
X137511658Y-73379499D01*
X137504062Y-73379499D01*
X137345947Y-73379499D01*
X137269583Y-73399961D01*
X137193218Y-73420423D01*
X137193213Y-73420426D01*
X137056294Y-73499475D01*
X137056286Y-73499481D01*
X135944485Y-74611282D01*
X135944483Y-74611285D01*
X135909358Y-74672125D01*
X135909357Y-74672127D01*
X135865427Y-74748214D01*
X135865427Y-74748215D01*
X135824503Y-74900943D01*
X135824503Y-74900945D01*
X135824503Y-75069046D01*
X135824504Y-75069059D01*
X135824504Y-81679902D01*
X135804819Y-81746941D01*
X135788185Y-81767583D01*
X132852588Y-84703181D01*
X132791265Y-84736666D01*
X132764907Y-84739500D01*
X132546696Y-84739500D01*
X132479657Y-84719815D01*
X132445123Y-84686625D01*
X132315051Y-84500861D01*
X132315049Y-84500858D01*
X132154145Y-84339954D01*
X131967738Y-84209432D01*
X131967732Y-84209429D01*
X131909729Y-84182382D01*
X131857289Y-84136210D01*
X131838137Y-84069017D01*
X131858352Y-84002135D01*
X131909729Y-83957618D01*
X131967738Y-83930568D01*
X132154143Y-83800047D01*
X132315051Y-83639139D01*
X132410112Y-83503377D01*
X132464689Y-83459752D01*
X132511687Y-83450500D01*
X133419075Y-83450500D01*
X133503619Y-83433682D01*
X133544748Y-83425501D01*
X133663131Y-83376465D01*
X133769673Y-83305277D01*
X135180281Y-81894669D01*
X135251469Y-81788127D01*
X135300505Y-81669744D01*
X135302256Y-81660941D01*
X135315132Y-81596210D01*
X135325504Y-81544071D01*
X135325504Y-69479993D01*
X148979704Y-69479993D01*
X148979704Y-69480006D01*
X148998868Y-69711297D01*
X148998870Y-69711308D01*
X149055846Y-69936300D01*
X149149079Y-70148848D01*
X149276020Y-70343147D01*
X149276023Y-70343151D01*
X149276025Y-70343153D01*
X149433220Y-70513913D01*
X149433223Y-70513915D01*
X149433226Y-70513918D01*
X149616369Y-70656464D01*
X149616375Y-70656468D01*
X149616378Y-70656470D01*
X149820501Y-70766936D01*
X149934491Y-70806068D01*
X150040019Y-70842297D01*
X150040021Y-70842297D01*
X150040023Y-70842298D01*
X150268955Y-70880500D01*
X150268956Y-70880500D01*
X150501052Y-70880500D01*
X150501053Y-70880500D01*
X150729985Y-70842298D01*
X150949507Y-70766936D01*
X151153630Y-70656470D01*
X151336788Y-70513913D01*
X151345515Y-70504432D01*
X151405398Y-70468441D01*
X151475236Y-70470538D01*
X151532854Y-70510060D01*
X151552928Y-70545080D01*
X151581649Y-70622086D01*
X151581653Y-70622093D01*
X151667813Y-70737187D01*
X151667816Y-70737190D01*
X151782910Y-70823350D01*
X151782917Y-70823354D01*
X151917624Y-70873596D01*
X151917631Y-70873598D01*
X151977159Y-70879999D01*
X151977176Y-70880000D01*
X152675004Y-70880000D01*
X152675004Y-69855277D01*
X152751310Y-69899333D01*
X152865760Y-69930000D01*
X152984248Y-69930000D01*
X153098698Y-69899333D01*
X153175004Y-69855277D01*
X153175004Y-70880000D01*
X153872832Y-70880000D01*
X153872848Y-70879999D01*
X153932376Y-70873598D01*
X153932383Y-70873596D01*
X154067090Y-70823354D01*
X154067097Y-70823350D01*
X154182191Y-70737190D01*
X154182194Y-70737187D01*
X154268354Y-70622093D01*
X154268358Y-70622086D01*
X154318600Y-70487379D01*
X154318602Y-70487372D01*
X154325003Y-70427844D01*
X154325004Y-70427827D01*
X154325004Y-69730000D01*
X153300282Y-69730000D01*
X153344337Y-69653694D01*
X153375004Y-69539244D01*
X153375004Y-69420756D01*
X153344337Y-69306306D01*
X153300282Y-69230000D01*
X154325004Y-69230000D01*
X154325004Y-68532172D01*
X154325003Y-68532155D01*
X154318602Y-68472627D01*
X154318600Y-68472620D01*
X154268358Y-68337913D01*
X154268354Y-68337906D01*
X154182194Y-68222812D01*
X154182191Y-68222809D01*
X154067097Y-68136649D01*
X154067090Y-68136645D01*
X153932383Y-68086403D01*
X153932376Y-68086401D01*
X153872848Y-68080000D01*
X153175004Y-68080000D01*
X153175004Y-69104722D01*
X153098698Y-69060667D01*
X152984248Y-69030000D01*
X152865760Y-69030000D01*
X152751310Y-69060667D01*
X152675004Y-69104722D01*
X152675004Y-68080000D01*
X151977159Y-68080000D01*
X151917631Y-68086401D01*
X151917624Y-68086403D01*
X151782917Y-68136645D01*
X151782910Y-68136649D01*
X151667816Y-68222809D01*
X151667813Y-68222812D01*
X151581653Y-68337906D01*
X151581650Y-68337911D01*
X151552928Y-68414920D01*
X151511056Y-68470853D01*
X151445592Y-68495270D01*
X151377319Y-68480418D01*
X151345518Y-68455571D01*
X151336788Y-68446087D01*
X151336783Y-68446083D01*
X151336781Y-68446081D01*
X151153638Y-68303535D01*
X151153632Y-68303531D01*
X150949508Y-68193064D01*
X150949499Y-68193061D01*
X150729988Y-68117702D01*
X150542408Y-68086401D01*
X150501053Y-68079500D01*
X150268955Y-68079500D01*
X150227600Y-68086401D01*
X150040019Y-68117702D01*
X149820508Y-68193061D01*
X149820499Y-68193064D01*
X149616375Y-68303531D01*
X149616369Y-68303535D01*
X149433226Y-68446081D01*
X149433223Y-68446084D01*
X149433220Y-68446086D01*
X149433220Y-68446087D01*
X149408795Y-68472620D01*
X149276020Y-68616852D01*
X149149079Y-68811151D01*
X149055846Y-69023699D01*
X148998870Y-69248691D01*
X148998868Y-69248702D01*
X148979704Y-69479993D01*
X135325504Y-69479993D01*
X135325504Y-68249996D01*
X137009439Y-68249996D01*
X137009439Y-68250003D01*
X137029634Y-68429249D01*
X137029635Y-68429254D01*
X137089215Y-68599523D01*
X137100104Y-68616852D01*
X137185188Y-68752262D01*
X137312742Y-68879816D01*
X137465482Y-68975789D01*
X137602401Y-69023699D01*
X137635749Y-69035368D01*
X137635754Y-69035369D01*
X137815000Y-69055565D01*
X137815004Y-69055565D01*
X137815008Y-69055565D01*
X137994253Y-69035369D01*
X137994256Y-69035368D01*
X137994259Y-69035368D01*
X138164526Y-68975789D01*
X138317266Y-68879816D01*
X138317271Y-68879810D01*
X138320101Y-68877555D01*
X138322279Y-68876665D01*
X138323162Y-68876111D01*
X138323259Y-68876265D01*
X138384787Y-68851145D01*
X138397416Y-68850500D01*
X141482592Y-68850500D01*
X141549631Y-68870185D01*
X141559907Y-68877555D01*
X141562740Y-68879814D01*
X141562742Y-68879816D01*
X141715482Y-68975789D01*
X141852401Y-69023699D01*
X141885749Y-69035368D01*
X141885754Y-69035369D01*
X142065000Y-69055565D01*
X142065004Y-69055565D01*
X142065008Y-69055565D01*
X142244253Y-69035369D01*
X142244256Y-69035368D01*
X142244259Y-69035368D01*
X142414526Y-68975789D01*
X142567266Y-68879816D01*
X142694820Y-68752262D01*
X142790793Y-68599522D01*
X142850372Y-68429255D01*
X142860664Y-68337911D01*
X142870569Y-68250003D01*
X142870569Y-68249996D01*
X142850373Y-68070750D01*
X142850372Y-68070745D01*
X142842575Y-68048462D01*
X142790793Y-67900478D01*
X142694820Y-67747738D01*
X142567266Y-67620184D01*
X142414527Y-67524211D01*
X142244258Y-67464631D01*
X142244253Y-67464630D01*
X142065008Y-67444435D01*
X142065000Y-67444435D01*
X141885754Y-67464630D01*
X141885749Y-67464631D01*
X141715480Y-67524211D01*
X141562740Y-67620185D01*
X141559907Y-67622445D01*
X141557728Y-67623334D01*
X141556846Y-67623889D01*
X141556748Y-67623734D01*
X141495221Y-67648855D01*
X141482592Y-67649500D01*
X138397416Y-67649500D01*
X138330377Y-67629815D01*
X138320101Y-67622445D01*
X138317267Y-67620185D01*
X138317266Y-67620184D01*
X138206855Y-67550808D01*
X138164527Y-67524211D01*
X137994258Y-67464631D01*
X137994253Y-67464630D01*
X137815008Y-67444435D01*
X137815000Y-67444435D01*
X137635754Y-67464630D01*
X137635749Y-67464631D01*
X137465480Y-67524211D01*
X137312741Y-67620184D01*
X137185188Y-67747737D01*
X137089215Y-67900476D01*
X137029635Y-68070745D01*
X137029634Y-68070750D01*
X137009439Y-68249996D01*
X135325504Y-68249996D01*
X135325504Y-67550808D01*
X135345189Y-67483769D01*
X135361823Y-67463127D01*
X136408131Y-66416819D01*
X136469454Y-66383334D01*
X136495812Y-66380500D01*
X141989075Y-66380500D01*
X142073619Y-66363682D01*
X142114748Y-66355501D01*
X142233131Y-66306465D01*
X142339673Y-66235277D01*
X143430281Y-65144669D01*
X143501470Y-65038126D01*
X143550505Y-64919743D01*
X143575504Y-64794069D01*
X143575504Y-64665931D01*
X143575504Y-57749998D01*
X144349536Y-57749998D01*
X144349536Y-57750001D01*
X144369368Y-57976686D01*
X144369370Y-57976697D01*
X144428262Y-58196488D01*
X144428265Y-58196497D01*
X144524435Y-58402732D01*
X144524436Y-58402734D01*
X144654958Y-58589141D01*
X144815862Y-58750045D01*
X144815865Y-58750047D01*
X145002270Y-58880568D01*
X145060279Y-58907618D01*
X145112718Y-58953791D01*
X145131870Y-59020984D01*
X145111654Y-59087865D01*
X145060279Y-59132382D01*
X145002271Y-59159431D01*
X145002269Y-59159432D01*
X144815862Y-59289954D01*
X144654958Y-59450858D01*
X144524436Y-59637265D01*
X144524435Y-59637267D01*
X144428265Y-59843502D01*
X144428262Y-59843511D01*
X144369370Y-60063302D01*
X144369368Y-60063313D01*
X144349536Y-60289998D01*
X144349536Y-60289999D01*
X144369368Y-60516686D01*
X144369370Y-60516697D01*
X144428262Y-60736488D01*
X144428265Y-60736497D01*
X144524435Y-60942732D01*
X144524436Y-60942734D01*
X144654958Y-61129141D01*
X144815862Y-61290045D01*
X144862697Y-61322839D01*
X145002270Y-61420568D01*
X145208508Y-61516739D01*
X145428312Y-61575635D01*
X145590234Y-61589801D01*
X145655002Y-61595468D01*
X145655004Y-61595468D01*
X145655006Y-61595468D01*
X145711677Y-61590509D01*
X145881696Y-61575635D01*
X146101500Y-61516739D01*
X146307738Y-61420568D01*
X146494143Y-61290047D01*
X146655051Y-61129139D01*
X146785572Y-60942734D01*
X146881743Y-60736496D01*
X146940639Y-60516692D01*
X146960472Y-60290000D01*
X146960472Y-60289998D01*
X151969536Y-60289998D01*
X151969536Y-60289999D01*
X151989368Y-60516686D01*
X151989370Y-60516697D01*
X152048262Y-60736488D01*
X152048265Y-60736497D01*
X152144435Y-60942732D01*
X152144436Y-60942734D01*
X152274958Y-61129141D01*
X152435862Y-61290045D01*
X152482697Y-61322839D01*
X152622270Y-61420568D01*
X152828508Y-61516739D01*
X153048312Y-61575635D01*
X153210234Y-61589801D01*
X153275002Y-61595468D01*
X153275004Y-61595468D01*
X153275006Y-61595468D01*
X153331677Y-61590509D01*
X153501696Y-61575635D01*
X153721500Y-61516739D01*
X153927738Y-61420568D01*
X154114143Y-61290047D01*
X154275051Y-61129139D01*
X154405572Y-60942734D01*
X154501743Y-60736496D01*
X154560639Y-60516692D01*
X154580472Y-60290000D01*
X154578918Y-60272242D01*
X154573700Y-60212591D01*
X154560639Y-60063308D01*
X154501743Y-59843504D01*
X154405572Y-59637266D01*
X154275051Y-59450861D01*
X154275049Y-59450858D01*
X154114147Y-59289956D01*
X154089540Y-59272726D01*
X154045916Y-59218149D01*
X154038723Y-59148650D01*
X154070245Y-59086296D01*
X154130475Y-59050882D01*
X154147408Y-59047861D01*
X154182487Y-59044091D01*
X154317335Y-58993796D01*
X154432550Y-58907546D01*
X154518800Y-58792331D01*
X154569095Y-58657483D01*
X154575504Y-58597873D01*
X154575503Y-56902128D01*
X154569095Y-56842517D01*
X154556960Y-56809982D01*
X154518801Y-56707671D01*
X154518797Y-56707664D01*
X154432551Y-56592455D01*
X154432548Y-56592452D01*
X154317339Y-56506206D01*
X154317332Y-56506202D01*
X154182486Y-56455908D01*
X154182487Y-56455908D01*
X154122887Y-56449501D01*
X154122885Y-56449500D01*
X154122877Y-56449500D01*
X154122868Y-56449500D01*
X152427133Y-56449500D01*
X152427127Y-56449501D01*
X152367520Y-56455908D01*
X152232675Y-56506202D01*
X152232668Y-56506206D01*
X152117459Y-56592452D01*
X152117456Y-56592455D01*
X152031210Y-56707664D01*
X152031206Y-56707671D01*
X151980912Y-56842517D01*
X151974640Y-56900858D01*
X151974505Y-56902123D01*
X151974504Y-56902135D01*
X151974504Y-58597870D01*
X151974505Y-58597876D01*
X151980912Y-58657483D01*
X152031206Y-58792328D01*
X152031210Y-58792335D01*
X152117456Y-58907544D01*
X152117459Y-58907547D01*
X152232668Y-58993793D01*
X152232675Y-58993797D01*
X152266439Y-59006390D01*
X152367521Y-59044091D01*
X152402600Y-59047862D01*
X152467148Y-59074599D01*
X152506997Y-59131991D01*
X152509492Y-59201816D01*
X152473840Y-59261905D01*
X152460468Y-59272725D01*
X152435862Y-59289954D01*
X152274958Y-59450858D01*
X152144436Y-59637265D01*
X152144435Y-59637267D01*
X152048265Y-59843502D01*
X152048262Y-59843511D01*
X151989370Y-60063302D01*
X151989368Y-60063313D01*
X151969536Y-60289998D01*
X146960472Y-60289998D01*
X146958918Y-60272242D01*
X146953700Y-60212591D01*
X146940639Y-60063308D01*
X146881743Y-59843504D01*
X146785572Y-59637266D01*
X146655051Y-59450861D01*
X146655049Y-59450858D01*
X146494145Y-59289954D01*
X146307738Y-59159432D01*
X146307732Y-59159429D01*
X146249729Y-59132382D01*
X146197289Y-59086210D01*
X146178137Y-59019017D01*
X146198352Y-58952135D01*
X146249729Y-58907618D01*
X146307738Y-58880568D01*
X146494143Y-58750047D01*
X146655051Y-58589139D01*
X146785572Y-58402734D01*
X146881743Y-58196496D01*
X146940639Y-57976692D01*
X146960472Y-57750000D01*
X146940639Y-57523308D01*
X146881743Y-57303504D01*
X146785572Y-57097266D01*
X146655051Y-56910861D01*
X146655049Y-56910858D01*
X146494145Y-56749954D01*
X146307738Y-56619432D01*
X146307736Y-56619431D01*
X146101501Y-56523261D01*
X146101492Y-56523258D01*
X145881701Y-56464366D01*
X145881697Y-56464365D01*
X145881696Y-56464365D01*
X145881695Y-56464364D01*
X145881690Y-56464364D01*
X145655006Y-56444532D01*
X145655002Y-56444532D01*
X145428317Y-56464364D01*
X145428306Y-56464366D01*
X145208515Y-56523258D01*
X145208506Y-56523261D01*
X145002271Y-56619431D01*
X145002269Y-56619432D01*
X144815862Y-56749954D01*
X144654958Y-56910858D01*
X144524436Y-57097265D01*
X144524435Y-57097267D01*
X144428265Y-57303502D01*
X144428262Y-57303511D01*
X144369370Y-57523302D01*
X144369368Y-57523313D01*
X144349536Y-57749998D01*
X143575504Y-57749998D01*
X143575504Y-55800808D01*
X143595189Y-55733769D01*
X143611823Y-55713127D01*
X144408131Y-54916819D01*
X144469454Y-54883334D01*
X144495812Y-54880500D01*
X163104196Y-54880500D01*
X163171235Y-54900185D01*
G37*
%TD.AperFunction*%
%TA.AperFunction,Conductor*%
G36*
X167181803Y-60995659D02*
G01*
X167237737Y-61037530D01*
X167240045Y-61040717D01*
X167294960Y-61119143D01*
X167455862Y-61280045D01*
X167455865Y-61280047D01*
X167642270Y-61410568D01*
X167691092Y-61433334D01*
X167700279Y-61437618D01*
X167752718Y-61483791D01*
X167771870Y-61550984D01*
X167751654Y-61617865D01*
X167700279Y-61662382D01*
X167642271Y-61689431D01*
X167642269Y-61689432D01*
X167455862Y-61819954D01*
X167294958Y-61980858D01*
X167164436Y-62167265D01*
X167164435Y-62167267D01*
X167068265Y-62373502D01*
X167068262Y-62373511D01*
X167009370Y-62593302D01*
X167009368Y-62593313D01*
X166989536Y-62819998D01*
X166989536Y-62820001D01*
X167009368Y-63046686D01*
X167009370Y-63046697D01*
X167068262Y-63266488D01*
X167068265Y-63266497D01*
X167164435Y-63472732D01*
X167164436Y-63472734D01*
X167294958Y-63659141D01*
X167455862Y-63820045D01*
X167462497Y-63824691D01*
X167642270Y-63950568D01*
X167700869Y-63977893D01*
X167753309Y-64024065D01*
X167772461Y-64091258D01*
X167752246Y-64158139D01*
X167700871Y-64202657D01*
X167642519Y-64229867D01*
X167456183Y-64360342D01*
X167295346Y-64521179D01*
X167164869Y-64707517D01*
X167068738Y-64913673D01*
X167068734Y-64913682D01*
X167016131Y-65109999D01*
X167016132Y-65110000D01*
X167979318Y-65110000D01*
X167974924Y-65114394D01*
X167922263Y-65205606D01*
X167895004Y-65307339D01*
X167895004Y-65412661D01*
X167922263Y-65514394D01*
X167974924Y-65605606D01*
X167979318Y-65610000D01*
X167016132Y-65610000D01*
X167068734Y-65806317D01*
X167068738Y-65806326D01*
X167164869Y-66012482D01*
X167295346Y-66198820D01*
X167456183Y-66359657D01*
X167642521Y-66490134D01*
X167701461Y-66517618D01*
X167753900Y-66563790D01*
X167773052Y-66630984D01*
X167752836Y-66697865D01*
X167701461Y-66742382D01*
X167642521Y-66769865D01*
X167456183Y-66900342D01*
X167295346Y-67061179D01*
X167164869Y-67247517D01*
X167068738Y-67453673D01*
X167068734Y-67453682D01*
X167016131Y-67649999D01*
X167016132Y-67650000D01*
X167979318Y-67650000D01*
X167974924Y-67654394D01*
X167922263Y-67745606D01*
X167895004Y-67847339D01*
X167895004Y-67952661D01*
X167922263Y-68054394D01*
X167974924Y-68145606D01*
X167979318Y-68150000D01*
X167016132Y-68150000D01*
X167068734Y-68346317D01*
X167068738Y-68346326D01*
X167164869Y-68552482D01*
X167295346Y-68738820D01*
X167456183Y-68899657D01*
X167642522Y-69030134D01*
X167642524Y-69030135D01*
X167700869Y-69057342D01*
X167753309Y-69103514D01*
X167772461Y-69170707D01*
X167752246Y-69237589D01*
X167700871Y-69282105D01*
X167648974Y-69306306D01*
X167642268Y-69309433D01*
X167455862Y-69439954D01*
X167294958Y-69600858D01*
X167164436Y-69787265D01*
X167164435Y-69787267D01*
X167068265Y-69993502D01*
X167068262Y-69993511D01*
X167009370Y-70213302D01*
X167009368Y-70213313D01*
X166989536Y-70439998D01*
X166989536Y-70440001D01*
X167009368Y-70666686D01*
X167009370Y-70666697D01*
X167068262Y-70886488D01*
X167068265Y-70886497D01*
X167164435Y-71092732D01*
X167164436Y-71092734D01*
X167294958Y-71279141D01*
X167455862Y-71440045D01*
X167455865Y-71440047D01*
X167642270Y-71570568D01*
X167700279Y-71597618D01*
X167752718Y-71643791D01*
X167771870Y-71710984D01*
X167751654Y-71777865D01*
X167700279Y-71822382D01*
X167642271Y-71849431D01*
X167642269Y-71849432D01*
X167455862Y-71979954D01*
X167294958Y-72140858D01*
X167164436Y-72327265D01*
X167164435Y-72327267D01*
X167068265Y-72533502D01*
X167068262Y-72533511D01*
X167009370Y-72753302D01*
X167009368Y-72753313D01*
X166989536Y-72979998D01*
X166989536Y-72980001D01*
X167009368Y-73206686D01*
X167009370Y-73206697D01*
X167068262Y-73426488D01*
X167068265Y-73426497D01*
X167164435Y-73632732D01*
X167164436Y-73632734D01*
X167294958Y-73819141D01*
X167455862Y-73980045D01*
X167495918Y-74008092D01*
X167642270Y-74110568D01*
X167665388Y-74121348D01*
X167700279Y-74137618D01*
X167752718Y-74183791D01*
X167771870Y-74250984D01*
X167751654Y-74317865D01*
X167700279Y-74362381D01*
X167700122Y-74362455D01*
X167642271Y-74389431D01*
X167642269Y-74389432D01*
X167455862Y-74519954D01*
X167294958Y-74680858D01*
X167164436Y-74867265D01*
X167164435Y-74867267D01*
X167068265Y-75073502D01*
X167068262Y-75073511D01*
X167009370Y-75293302D01*
X167009368Y-75293313D01*
X166989536Y-75519998D01*
X166989536Y-75520001D01*
X167009368Y-75746686D01*
X167009370Y-75746697D01*
X167068262Y-75966488D01*
X167068265Y-75966497D01*
X167164435Y-76172732D01*
X167164436Y-76172734D01*
X167294958Y-76359141D01*
X167455862Y-76520045D01*
X167455865Y-76520047D01*
X167642270Y-76650568D01*
X167848508Y-76746739D01*
X168068312Y-76805635D01*
X168230234Y-76819801D01*
X168295002Y-76825468D01*
X168295004Y-76825468D01*
X168295006Y-76825468D01*
X168351811Y-76820498D01*
X168521696Y-76805635D01*
X168741500Y-76746739D01*
X168947738Y-76650568D01*
X169134143Y-76520047D01*
X169295051Y-76359139D01*
X169425572Y-76172734D01*
X169521743Y-75966496D01*
X169580639Y-75746692D01*
X169600472Y-75520000D01*
X169580639Y-75293308D01*
X169521743Y-75073504D01*
X169425572Y-74867266D01*
X169295051Y-74680861D01*
X169295049Y-74680858D01*
X169134145Y-74519954D01*
X168947738Y-74389432D01*
X168947732Y-74389429D01*
X168889886Y-74362455D01*
X168889728Y-74362381D01*
X168837289Y-74316210D01*
X168818137Y-74249017D01*
X168838352Y-74182135D01*
X168889729Y-74137618D01*
X168947738Y-74110568D01*
X169134143Y-73980047D01*
X169295051Y-73819139D01*
X169333488Y-73764244D01*
X169388063Y-73720619D01*
X169457562Y-73713425D01*
X169519917Y-73744947D01*
X169522744Y-73747686D01*
X170488185Y-74713127D01*
X170521670Y-74774450D01*
X170524504Y-74800808D01*
X170524504Y-80860191D01*
X170504819Y-80927230D01*
X170452015Y-80972985D01*
X170382857Y-80982929D01*
X170319301Y-80953904D01*
X170312823Y-80947872D01*
X169089677Y-79724726D01*
X169070317Y-79711790D01*
X168983131Y-79653535D01*
X168961736Y-79644673D01*
X168864748Y-79604499D01*
X168864742Y-79604497D01*
X168739075Y-79579500D01*
X168739073Y-79579500D01*
X166995812Y-79579500D01*
X166928773Y-79559815D01*
X166908131Y-79543181D01*
X166361823Y-78996873D01*
X166328338Y-78935550D01*
X166325504Y-78909192D01*
X166325504Y-61800808D01*
X166345189Y-61733769D01*
X166361823Y-61713127D01*
X166687195Y-61387755D01*
X167050791Y-61024158D01*
X167112112Y-60990675D01*
X167181803Y-60995659D01*
G37*
%TD.AperFunction*%
%TA.AperFunction,Conductor*%
G36*
X159545360Y-60950185D02*
G01*
X159579896Y-60983377D01*
X159674958Y-61119141D01*
X159835862Y-61280045D01*
X159835865Y-61280047D01*
X160022270Y-61410568D01*
X160071092Y-61433334D01*
X160080279Y-61437618D01*
X160132718Y-61483791D01*
X160151870Y-61550984D01*
X160131654Y-61617865D01*
X160080279Y-61662382D01*
X160022271Y-61689431D01*
X160022269Y-61689432D01*
X159835862Y-61819954D01*
X159674958Y-61980858D01*
X159544436Y-62167265D01*
X159544435Y-62167267D01*
X159448265Y-62373502D01*
X159448262Y-62373511D01*
X159389370Y-62593302D01*
X159389368Y-62593313D01*
X159369536Y-62819998D01*
X159369536Y-62820001D01*
X159389368Y-63046686D01*
X159389370Y-63046697D01*
X159448262Y-63266488D01*
X159448265Y-63266497D01*
X159544435Y-63472732D01*
X159544436Y-63472734D01*
X159674958Y-63659141D01*
X159835862Y-63820045D01*
X159842497Y-63824691D01*
X160022270Y-63950568D01*
X160080869Y-63977893D01*
X160133309Y-64024065D01*
X160152461Y-64091258D01*
X160132246Y-64158139D01*
X160080871Y-64202657D01*
X160022519Y-64229867D01*
X159836183Y-64360342D01*
X159675346Y-64521179D01*
X159544869Y-64707517D01*
X159448738Y-64913673D01*
X159448734Y-64913682D01*
X159396131Y-65109999D01*
X159396132Y-65110000D01*
X160359318Y-65110000D01*
X160354924Y-65114394D01*
X160302263Y-65205606D01*
X160275004Y-65307339D01*
X160275004Y-65412661D01*
X160302263Y-65514394D01*
X160354924Y-65605606D01*
X160359318Y-65610000D01*
X159396132Y-65610000D01*
X159448734Y-65806317D01*
X159448738Y-65806326D01*
X159544869Y-66012482D01*
X159675346Y-66198820D01*
X159836183Y-66359657D01*
X160022521Y-66490134D01*
X160081461Y-66517618D01*
X160133900Y-66563790D01*
X160153052Y-66630984D01*
X160132836Y-66697865D01*
X160081461Y-66742382D01*
X160022521Y-66769865D01*
X159836183Y-66900342D01*
X159675346Y-67061179D01*
X159544869Y-67247517D01*
X159448738Y-67453673D01*
X159448734Y-67453682D01*
X159396131Y-67649999D01*
X159396132Y-67650000D01*
X160359318Y-67650000D01*
X160354924Y-67654394D01*
X160302263Y-67745606D01*
X160275004Y-67847339D01*
X160275004Y-67952661D01*
X160302263Y-68054394D01*
X160354924Y-68145606D01*
X160359318Y-68150000D01*
X159396132Y-68150000D01*
X159448734Y-68346317D01*
X159448738Y-68346326D01*
X159544869Y-68552482D01*
X159675346Y-68738820D01*
X159836183Y-68899657D01*
X160022522Y-69030134D01*
X160022524Y-69030135D01*
X160080869Y-69057342D01*
X160133309Y-69103514D01*
X160152461Y-69170707D01*
X160132246Y-69237589D01*
X160080871Y-69282105D01*
X160028974Y-69306306D01*
X160022268Y-69309433D01*
X159835862Y-69439954D01*
X159674958Y-69600858D01*
X159544436Y-69787265D01*
X159544435Y-69787267D01*
X159448265Y-69993502D01*
X159448262Y-69993511D01*
X159389370Y-70213302D01*
X159389368Y-70213313D01*
X159369536Y-70439998D01*
X159369536Y-70440001D01*
X159389368Y-70666686D01*
X159389370Y-70666697D01*
X159448262Y-70886488D01*
X159448265Y-70886497D01*
X159544435Y-71092732D01*
X159544436Y-71092734D01*
X159674958Y-71279141D01*
X159835862Y-71440045D01*
X159835865Y-71440047D01*
X160022270Y-71570568D01*
X160080279Y-71597618D01*
X160132718Y-71643791D01*
X160151870Y-71710984D01*
X160131654Y-71777865D01*
X160080279Y-71822382D01*
X160022271Y-71849431D01*
X160022269Y-71849432D01*
X159835862Y-71979954D01*
X159674958Y-72140858D01*
X159579896Y-72276623D01*
X159525319Y-72320248D01*
X159478321Y-72329500D01*
X158610933Y-72329500D01*
X158485265Y-72354497D01*
X158485259Y-72354499D01*
X158366874Y-72403535D01*
X158260335Y-72474722D01*
X158260328Y-72474728D01*
X156787185Y-73947872D01*
X156725862Y-73981357D01*
X156656170Y-73976373D01*
X156600237Y-73934501D01*
X156575820Y-73869037D01*
X156575504Y-73860191D01*
X156575504Y-61800808D01*
X156595189Y-61733769D01*
X156611823Y-61713127D01*
X157358131Y-60966819D01*
X157419454Y-60933334D01*
X157445812Y-60930500D01*
X159478321Y-60930500D01*
X159545360Y-60950185D01*
G37*
%TD.AperFunction*%
%TA.AperFunction,Conductor*%
G36*
X160925004Y-67584314D02*
G01*
X160920610Y-67579920D01*
X160829398Y-67527259D01*
X160727665Y-67500000D01*
X160622343Y-67500000D01*
X160520610Y-67527259D01*
X160429398Y-67579920D01*
X160425004Y-67584314D01*
X160425004Y-65675686D01*
X160429398Y-65680080D01*
X160520610Y-65732741D01*
X160622343Y-65760000D01*
X160727665Y-65760000D01*
X160829398Y-65732741D01*
X160920610Y-65680080D01*
X160925004Y-65675686D01*
X160925004Y-67584314D01*
G37*
%TD.AperFunction*%
%TA.AperFunction,Conductor*%
G36*
X168545004Y-67584314D02*
G01*
X168540610Y-67579920D01*
X168449398Y-67527259D01*
X168347665Y-67500000D01*
X168242343Y-67500000D01*
X168140610Y-67527259D01*
X168049398Y-67579920D01*
X168045004Y-67584314D01*
X168045004Y-65675686D01*
X168049398Y-65680080D01*
X168140610Y-65732741D01*
X168242343Y-65760000D01*
X168347665Y-65760000D01*
X168449398Y-65732741D01*
X168540610Y-65680080D01*
X168545004Y-65675686D01*
X168545004Y-67584314D01*
G37*
%TD.AperFunction*%
%TA.AperFunction,Conductor*%
G36*
X115675004Y-52546988D02*
G01*
X115617997Y-52514075D01*
X115490830Y-52480000D01*
X115359178Y-52480000D01*
X115232011Y-52514075D01*
X115175004Y-52546988D01*
X115175004Y-50873012D01*
X115232011Y-50905925D01*
X115359178Y-50940000D01*
X115490830Y-50940000D01*
X115617997Y-50905925D01*
X115675004Y-50873012D01*
X115675004Y-52546988D01*
G37*
%TD.AperFunction*%
%TA.AperFunction,Conductor*%
G36*
X115675004Y-50006988D02*
G01*
X115617997Y-49974075D01*
X115490830Y-49940000D01*
X115359178Y-49940000D01*
X115232011Y-49974075D01*
X115175004Y-50006988D01*
X115175004Y-48333012D01*
X115232011Y-48365925D01*
X115359178Y-48400000D01*
X115490830Y-48400000D01*
X115617997Y-48365925D01*
X115675004Y-48333012D01*
X115675004Y-50006988D01*
G37*
%TD.AperFunction*%
%TA.AperFunction,Conductor*%
G36*
X176757543Y-43270185D02*
G01*
X176803298Y-43322989D01*
X176814504Y-43374500D01*
X176814504Y-123625500D01*
X176794819Y-123692539D01*
X176742015Y-123738294D01*
X176690504Y-123749500D01*
X109689504Y-123749500D01*
X109622465Y-123729815D01*
X109576710Y-123677011D01*
X109565504Y-123625500D01*
X109565504Y-87357135D01*
X118549504Y-87357135D01*
X118549504Y-89152870D01*
X118549505Y-89152876D01*
X118555912Y-89212483D01*
X118606206Y-89347328D01*
X118606210Y-89347335D01*
X118692456Y-89462544D01*
X118692459Y-89462547D01*
X118807668Y-89548793D01*
X118807675Y-89548797D01*
X118942521Y-89599091D01*
X118942520Y-89599091D01*
X118949448Y-89599835D01*
X119002131Y-89605500D01*
X120797876Y-89605499D01*
X120857487Y-89599091D01*
X120992335Y-89548796D01*
X121107550Y-89462546D01*
X121193800Y-89347331D01*
X121242814Y-89215916D01*
X121284685Y-89159984D01*
X121350149Y-89135566D01*
X121418422Y-89150417D01*
X121446677Y-89171569D01*
X121568603Y-89293495D01*
X121665388Y-89361265D01*
X121762169Y-89429032D01*
X121762171Y-89429033D01*
X121762174Y-89429035D01*
X121976341Y-89528903D01*
X122204596Y-89590063D01*
X122381038Y-89605500D01*
X122440003Y-89610659D01*
X122440004Y-89610659D01*
X122440005Y-89610659D01*
X122498970Y-89605500D01*
X122675412Y-89590063D01*
X122903667Y-89528903D01*
X123117834Y-89429035D01*
X123311405Y-89293495D01*
X123478499Y-89126401D01*
X123608429Y-88940842D01*
X123663006Y-88897217D01*
X123732504Y-88890023D01*
X123794859Y-88921546D01*
X123811579Y-88940842D01*
X123941504Y-89126395D01*
X123941509Y-89126401D01*
X124108603Y-89293495D01*
X124205388Y-89361265D01*
X124302169Y-89429032D01*
X124302171Y-89429033D01*
X124302174Y-89429035D01*
X124516341Y-89528903D01*
X124744596Y-89590063D01*
X124921038Y-89605500D01*
X124980003Y-89610659D01*
X124980004Y-89610659D01*
X124980005Y-89610659D01*
X125038970Y-89605500D01*
X125215412Y-89590063D01*
X125443667Y-89528903D01*
X125657834Y-89429035D01*
X125851405Y-89293495D01*
X126018499Y-89126401D01*
X126154039Y-88932830D01*
X126253907Y-88718663D01*
X126315067Y-88490408D01*
X126335663Y-88255000D01*
X126315067Y-88019592D01*
X126253907Y-87791337D01*
X126154039Y-87577171D01*
X126148429Y-87569158D01*
X126018498Y-87383597D01*
X125851406Y-87216506D01*
X125851399Y-87216501D01*
X125657838Y-87080967D01*
X125657834Y-87080965D01*
X125633164Y-87069461D01*
X125443667Y-86981097D01*
X125443663Y-86981096D01*
X125443659Y-86981094D01*
X125215417Y-86919938D01*
X125215407Y-86919936D01*
X124980005Y-86899341D01*
X124980003Y-86899341D01*
X124744600Y-86919936D01*
X124744590Y-86919938D01*
X124516348Y-86981094D01*
X124516339Y-86981098D01*
X124302175Y-87080964D01*
X124302173Y-87080965D01*
X124108601Y-87216505D01*
X123941509Y-87383597D01*
X123811579Y-87569158D01*
X123757002Y-87612783D01*
X123687504Y-87619977D01*
X123625149Y-87588454D01*
X123608429Y-87569158D01*
X123478498Y-87383597D01*
X123311406Y-87216506D01*
X123311399Y-87216501D01*
X123117838Y-87080967D01*
X123117834Y-87080965D01*
X123093164Y-87069461D01*
X122903667Y-86981097D01*
X122903663Y-86981096D01*
X122903659Y-86981094D01*
X122675417Y-86919938D01*
X122675407Y-86919936D01*
X122440005Y-86899341D01*
X122440003Y-86899341D01*
X122204600Y-86919936D01*
X122204590Y-86919938D01*
X121976348Y-86981094D01*
X121976339Y-86981098D01*
X121762175Y-87080964D01*
X121762173Y-87080965D01*
X121568604Y-87216503D01*
X121446677Y-87338430D01*
X121385354Y-87371914D01*
X121315662Y-87366930D01*
X121259729Y-87325058D01*
X121242814Y-87294081D01*
X121193801Y-87162671D01*
X121193797Y-87162664D01*
X121107551Y-87047455D01*
X121107548Y-87047452D01*
X120992339Y-86961206D01*
X120992332Y-86961202D01*
X120857486Y-86910908D01*
X120857487Y-86910908D01*
X120797887Y-86904501D01*
X120797885Y-86904500D01*
X120797877Y-86904500D01*
X120797868Y-86904500D01*
X119002133Y-86904500D01*
X119002127Y-86904501D01*
X118942520Y-86910908D01*
X118807675Y-86961202D01*
X118807668Y-86961206D01*
X118692459Y-87047452D01*
X118692456Y-87047455D01*
X118606210Y-87162664D01*
X118606206Y-87162671D01*
X118555912Y-87297517D01*
X118549505Y-87357116D01*
X118549504Y-87357135D01*
X109565504Y-87357135D01*
X109565504Y-80729994D01*
X115669361Y-80729994D01*
X115669361Y-80730005D01*
X115689894Y-80977812D01*
X115689896Y-80977824D01*
X115750940Y-81218881D01*
X115850830Y-81446606D01*
X115986837Y-81654782D01*
X116000610Y-81669743D01*
X116155260Y-81837738D01*
X116351495Y-81990474D01*
X116351497Y-81990475D01*
X116569336Y-82108364D01*
X116570194Y-82108828D01*
X116789145Y-82183994D01*
X116803968Y-82189083D01*
X116805390Y-82189571D01*
X117050669Y-82230500D01*
X117299339Y-82230500D01*
X117544618Y-82189571D01*
X117779814Y-82108828D01*
X117998513Y-81990474D01*
X118194748Y-81837738D01*
X118363168Y-81654785D01*
X118499177Y-81446607D01*
X118599067Y-81218881D01*
X118660112Y-80977821D01*
X118663056Y-80942292D01*
X118680647Y-80730005D01*
X118680647Y-80729994D01*
X120169863Y-80729994D01*
X120169863Y-80730005D01*
X120190389Y-80977729D01*
X120190391Y-80977738D01*
X120251416Y-81218717D01*
X120351270Y-81446364D01*
X120451568Y-81599882D01*
X121151216Y-80900234D01*
X121162486Y-80942292D01*
X121234894Y-81067708D01*
X121337296Y-81170110D01*
X121462712Y-81242518D01*
X121504769Y-81253787D01*
X120804946Y-81953609D01*
X120851772Y-81990055D01*
X120851774Y-81990056D01*
X121070389Y-82108364D01*
X121070400Y-82108369D01*
X121305510Y-82189083D01*
X121550711Y-82230000D01*
X121799297Y-82230000D01*
X122044497Y-82189083D01*
X122279607Y-82108369D01*
X122279618Y-82108364D01*
X122498232Y-81990057D01*
X122498235Y-81990055D01*
X122545060Y-81953609D01*
X121845238Y-81253787D01*
X121887296Y-81242518D01*
X122012712Y-81170110D01*
X122115114Y-81067708D01*
X122187522Y-80942292D01*
X122198791Y-80900235D01*
X122898438Y-81599882D01*
X122998735Y-81446369D01*
X123098591Y-81218717D01*
X123159616Y-80977738D01*
X123159618Y-80977729D01*
X123180145Y-80730005D01*
X123180145Y-80729994D01*
X123159618Y-80482270D01*
X123159616Y-80482261D01*
X123105863Y-80269999D01*
X125969361Y-80269999D01*
X125969361Y-80270000D01*
X125989888Y-80491535D01*
X125989889Y-80491537D01*
X126050773Y-80705523D01*
X126050779Y-80705538D01*
X126149942Y-80904683D01*
X126149947Y-80904691D01*
X126284024Y-81082238D01*
X126448441Y-81232123D01*
X126448443Y-81232125D01*
X126637599Y-81349245D01*
X126637600Y-81349245D01*
X126637603Y-81349247D01*
X126845064Y-81429618D01*
X127063761Y-81470500D01*
X127063763Y-81470500D01*
X127286245Y-81470500D01*
X127286247Y-81470500D01*
X127504944Y-81429618D01*
X127712405Y-81349247D01*
X127901566Y-81232124D01*
X128054639Y-81092579D01*
X128065983Y-81082238D01*
X128078480Y-81065690D01*
X128200062Y-80904689D01*
X128299233Y-80705528D01*
X128360119Y-80491536D01*
X128380647Y-80270000D01*
X128379720Y-80260001D01*
X128360119Y-80048464D01*
X128360118Y-80048462D01*
X128355806Y-80033308D01*
X128299233Y-79834472D01*
X128288796Y-79813511D01*
X128200065Y-79635316D01*
X128200060Y-79635308D01*
X128065983Y-79457761D01*
X127901566Y-79307876D01*
X127901564Y-79307874D01*
X127712408Y-79190754D01*
X127712402Y-79190752D01*
X127684395Y-79179902D01*
X127504944Y-79110382D01*
X127286247Y-79069500D01*
X127063761Y-79069500D01*
X126845064Y-79110382D01*
X126713868Y-79161207D01*
X126637605Y-79190752D01*
X126637599Y-79190754D01*
X126448443Y-79307874D01*
X126448441Y-79307876D01*
X126284024Y-79457761D01*
X126149947Y-79635308D01*
X126149942Y-79635316D01*
X126050779Y-79834461D01*
X126050773Y-79834476D01*
X125989889Y-80048462D01*
X125989888Y-80048464D01*
X125969361Y-80269999D01*
X123105863Y-80269999D01*
X123098591Y-80241282D01*
X122998735Y-80013630D01*
X122898438Y-79860116D01*
X122198791Y-80559764D01*
X122187522Y-80517708D01*
X122115114Y-80392292D01*
X122012712Y-80289890D01*
X121887296Y-80217482D01*
X121845239Y-80206212D01*
X122545061Y-79506390D01*
X122545060Y-79506389D01*
X122498233Y-79469943D01*
X122279618Y-79351635D01*
X122279607Y-79351630D01*
X122044497Y-79270916D01*
X121799297Y-79230000D01*
X121550711Y-79230000D01*
X121305510Y-79270916D01*
X121070400Y-79351630D01*
X121070394Y-79351632D01*
X120851765Y-79469949D01*
X120804946Y-79506388D01*
X120804946Y-79506390D01*
X121504769Y-80206212D01*
X121462712Y-80217482D01*
X121337296Y-80289890D01*
X121234894Y-80392292D01*
X121162486Y-80517708D01*
X121151216Y-80559764D01*
X120451568Y-79860116D01*
X120351271Y-80013632D01*
X120251416Y-80241282D01*
X120190391Y-80482261D01*
X120190389Y-80482270D01*
X120169863Y-80729994D01*
X118680647Y-80729994D01*
X118660113Y-80482187D01*
X118660111Y-80482175D01*
X118599067Y-80241118D01*
X118499177Y-80013393D01*
X118363170Y-79805217D01*
X118341561Y-79781744D01*
X118194748Y-79622262D01*
X117998513Y-79469526D01*
X117998511Y-79469525D01*
X117998510Y-79469524D01*
X117779815Y-79351172D01*
X117779806Y-79351169D01*
X117544620Y-79270429D01*
X117299339Y-79229500D01*
X117050669Y-79229500D01*
X116805387Y-79270429D01*
X116570201Y-79351169D01*
X116570192Y-79351172D01*
X116351497Y-79469524D01*
X116155261Y-79622261D01*
X115986837Y-79805217D01*
X115850830Y-80013393D01*
X115750940Y-80241118D01*
X115689896Y-80482175D01*
X115689894Y-80482187D01*
X115669361Y-80729994D01*
X109565504Y-80729994D01*
X109565504Y-77719998D01*
X130009536Y-77719998D01*
X130009536Y-77720001D01*
X130029368Y-77946686D01*
X130029370Y-77946697D01*
X130088262Y-78166488D01*
X130088265Y-78166497D01*
X130184435Y-78372732D01*
X130184436Y-78372734D01*
X130314958Y-78559141D01*
X130475862Y-78720045D01*
X130475865Y-78720047D01*
X130662270Y-78850568D01*
X130720279Y-78877618D01*
X130772718Y-78923791D01*
X130791870Y-78990984D01*
X130771654Y-79057865D01*
X130720279Y-79102382D01*
X130662271Y-79129431D01*
X130662269Y-79129432D01*
X130475862Y-79259954D01*
X130314958Y-79420858D01*
X130184436Y-79607265D01*
X130184435Y-79607267D01*
X130088265Y-79813502D01*
X130088262Y-79813511D01*
X130029370Y-80033302D01*
X130029368Y-80033313D01*
X130009536Y-80259998D01*
X130009536Y-80260001D01*
X130029368Y-80486686D01*
X130029370Y-80486697D01*
X130088262Y-80706488D01*
X130088265Y-80706497D01*
X130184435Y-80912732D01*
X130184436Y-80912734D01*
X130314958Y-81099141D01*
X130475862Y-81260045D01*
X130475865Y-81260047D01*
X130662270Y-81390568D01*
X130720279Y-81417618D01*
X130772718Y-81463791D01*
X130791870Y-81530984D01*
X130771654Y-81597865D01*
X130720279Y-81642382D01*
X130662271Y-81669431D01*
X130662269Y-81669432D01*
X130475862Y-81799954D01*
X130314958Y-81960858D01*
X130184436Y-82147265D01*
X130184435Y-82147267D01*
X130088265Y-82353502D01*
X130088262Y-82353511D01*
X130029370Y-82573302D01*
X130029368Y-82573313D01*
X130009536Y-82799998D01*
X130009536Y-82800001D01*
X130029368Y-83026686D01*
X130029370Y-83026697D01*
X130088262Y-83246488D01*
X130088265Y-83246497D01*
X130184435Y-83452732D01*
X130184436Y-83452734D01*
X130314958Y-83639141D01*
X130475862Y-83800045D01*
X130475865Y-83800047D01*
X130662270Y-83930568D01*
X130720279Y-83957618D01*
X130772718Y-84003791D01*
X130791870Y-84070984D01*
X130771654Y-84137865D01*
X130720279Y-84182382D01*
X130662271Y-84209431D01*
X130662269Y-84209432D01*
X130475862Y-84339954D01*
X130314958Y-84500858D01*
X130184436Y-84687265D01*
X130184435Y-84687267D01*
X130088265Y-84893502D01*
X130088262Y-84893511D01*
X130029370Y-85113302D01*
X130029368Y-85113313D01*
X130009536Y-85339998D01*
X130009536Y-85340001D01*
X130029368Y-85566686D01*
X130029370Y-85566697D01*
X130088262Y-85786488D01*
X130088265Y-85786497D01*
X130184435Y-85992732D01*
X130184436Y-85992734D01*
X130314958Y-86179141D01*
X130475862Y-86340045D01*
X130475865Y-86340047D01*
X130662270Y-86470568D01*
X130720279Y-86497618D01*
X130772718Y-86543791D01*
X130791870Y-86610984D01*
X130771654Y-86677865D01*
X130720279Y-86722382D01*
X130662271Y-86749431D01*
X130662269Y-86749432D01*
X130475862Y-86879954D01*
X130314958Y-87040858D01*
X130184436Y-87227265D01*
X130184435Y-87227267D01*
X130088265Y-87433502D01*
X130088262Y-87433511D01*
X130029370Y-87653302D01*
X130029368Y-87653313D01*
X130009536Y-87879998D01*
X130009536Y-87880001D01*
X130029368Y-88106686D01*
X130029370Y-88106697D01*
X130088262Y-88326488D01*
X130088265Y-88326497D01*
X130184435Y-88532732D01*
X130184436Y-88532734D01*
X130314958Y-88719141D01*
X130475862Y-88880045D01*
X130503881Y-88899664D01*
X130662270Y-89010568D01*
X130720279Y-89037618D01*
X130772718Y-89083791D01*
X130791870Y-89150984D01*
X130771654Y-89217865D01*
X130720279Y-89262382D01*
X130662271Y-89289431D01*
X130662269Y-89289432D01*
X130475862Y-89419954D01*
X130314958Y-89580858D01*
X130184436Y-89767265D01*
X130184435Y-89767267D01*
X130088265Y-89973502D01*
X130088262Y-89973511D01*
X130029370Y-90193302D01*
X130029368Y-90193313D01*
X130009536Y-90419998D01*
X130009536Y-90420001D01*
X130029368Y-90646686D01*
X130029370Y-90646697D01*
X130088262Y-90866488D01*
X130088265Y-90866497D01*
X130184435Y-91072732D01*
X130184436Y-91072734D01*
X130314958Y-91259141D01*
X130475862Y-91420045D01*
X130475865Y-91420047D01*
X130662270Y-91550568D01*
X130720279Y-91577618D01*
X130772718Y-91623791D01*
X130791870Y-91690984D01*
X130771654Y-91757865D01*
X130720279Y-91802382D01*
X130662271Y-91829431D01*
X130662269Y-91829432D01*
X130475862Y-91959954D01*
X130314958Y-92120858D01*
X130184436Y-92307265D01*
X130184435Y-92307267D01*
X130088265Y-92513502D01*
X130088262Y-92513511D01*
X130029370Y-92733302D01*
X130029368Y-92733313D01*
X130009536Y-92959998D01*
X130009536Y-92960001D01*
X130029368Y-93186686D01*
X130029370Y-93186697D01*
X130088262Y-93406488D01*
X130088265Y-93406497D01*
X130184435Y-93612732D01*
X130184436Y-93612734D01*
X130314958Y-93799141D01*
X130475862Y-93960045D01*
X130475865Y-93960047D01*
X130662270Y-94090568D01*
X130720279Y-94117618D01*
X130772718Y-94163791D01*
X130791870Y-94230984D01*
X130771654Y-94297865D01*
X130720279Y-94342382D01*
X130662271Y-94369431D01*
X130662269Y-94369432D01*
X130475862Y-94499954D01*
X130314958Y-94660858D01*
X130184436Y-94847265D01*
X130184435Y-94847267D01*
X130088265Y-95053502D01*
X130088262Y-95053511D01*
X130029370Y-95273302D01*
X130029368Y-95273313D01*
X130009536Y-95499998D01*
X130009536Y-95500001D01*
X130029368Y-95726686D01*
X130029370Y-95726697D01*
X130088262Y-95946488D01*
X130088265Y-95946497D01*
X130184435Y-96152732D01*
X130184436Y-96152734D01*
X130314958Y-96339141D01*
X130475862Y-96500045D01*
X130475865Y-96500047D01*
X130662270Y-96630568D01*
X130720279Y-96657618D01*
X130772718Y-96703791D01*
X130791870Y-96770984D01*
X130771654Y-96837865D01*
X130720279Y-96882382D01*
X130662271Y-96909431D01*
X130662269Y-96909432D01*
X130475862Y-97039954D01*
X130314958Y-97200858D01*
X130184436Y-97387265D01*
X130184435Y-97387267D01*
X130088265Y-97593502D01*
X130088262Y-97593511D01*
X130029370Y-97813302D01*
X130029368Y-97813313D01*
X130009536Y-98039998D01*
X130009536Y-98040001D01*
X130029368Y-98266686D01*
X130029370Y-98266697D01*
X130088262Y-98486488D01*
X130088265Y-98486497D01*
X130184435Y-98692732D01*
X130184436Y-98692734D01*
X130314958Y-98879141D01*
X130475862Y-99040045D01*
X130475865Y-99040047D01*
X130662270Y-99170568D01*
X130720279Y-99197618D01*
X130772718Y-99243791D01*
X130791870Y-99310984D01*
X130771654Y-99377865D01*
X130720279Y-99422382D01*
X130662271Y-99449431D01*
X130662269Y-99449432D01*
X130475862Y-99579954D01*
X130314958Y-99740858D01*
X130184436Y-99927265D01*
X130184435Y-99927267D01*
X130088265Y-100133502D01*
X130088262Y-100133511D01*
X130029370Y-100353302D01*
X130029368Y-100353313D01*
X130009536Y-100579998D01*
X130009536Y-100580001D01*
X130029368Y-100806686D01*
X130029370Y-100806697D01*
X130088262Y-101026488D01*
X130088265Y-101026497D01*
X130184435Y-101232732D01*
X130184436Y-101232734D01*
X130314958Y-101419141D01*
X130475862Y-101580045D01*
X130475865Y-101580047D01*
X130662270Y-101710568D01*
X130720279Y-101737618D01*
X130772718Y-101783791D01*
X130791870Y-101850984D01*
X130771654Y-101917865D01*
X130720279Y-101962382D01*
X130662271Y-101989431D01*
X130662269Y-101989432D01*
X130475862Y-102119954D01*
X130314958Y-102280858D01*
X130184436Y-102467265D01*
X130184435Y-102467267D01*
X130088265Y-102673502D01*
X130088262Y-102673511D01*
X130029370Y-102893302D01*
X130029368Y-102893313D01*
X130009536Y-103119998D01*
X130009536Y-103120001D01*
X130029368Y-103346686D01*
X130029370Y-103346697D01*
X130088262Y-103566488D01*
X130088265Y-103566497D01*
X130184435Y-103772732D01*
X130184436Y-103772734D01*
X130314958Y-103959141D01*
X130475862Y-104120045D01*
X130475865Y-104120047D01*
X130662270Y-104250568D01*
X130720869Y-104277893D01*
X130773309Y-104324065D01*
X130792461Y-104391258D01*
X130772246Y-104458139D01*
X130720871Y-104502657D01*
X130662519Y-104529867D01*
X130476183Y-104660342D01*
X130315346Y-104821179D01*
X130184869Y-105007517D01*
X130088738Y-105213673D01*
X130088734Y-105213682D01*
X130036131Y-105409999D01*
X130036132Y-105410000D01*
X130881992Y-105410000D01*
X130849079Y-105467007D01*
X130815004Y-105594174D01*
X130815004Y-105725826D01*
X130849079Y-105852993D01*
X130881992Y-105910000D01*
X130036132Y-105910000D01*
X130088734Y-106106317D01*
X130088738Y-106106326D01*
X130184869Y-106312482D01*
X130315346Y-106498820D01*
X130476183Y-106659657D01*
X130662522Y-106790134D01*
X130662524Y-106790135D01*
X130720869Y-106817342D01*
X130773309Y-106863514D01*
X130792461Y-106930707D01*
X130772246Y-106997589D01*
X130720871Y-107042105D01*
X130662272Y-107069431D01*
X130662268Y-107069433D01*
X130475862Y-107199954D01*
X130314958Y-107360858D01*
X130184436Y-107547265D01*
X130184435Y-107547267D01*
X130088265Y-107753502D01*
X130088262Y-107753511D01*
X130029370Y-107973302D01*
X130029368Y-107973313D01*
X130009536Y-108199998D01*
X130009536Y-108200001D01*
X130029368Y-108426686D01*
X130029370Y-108426697D01*
X130088262Y-108646488D01*
X130088265Y-108646497D01*
X130184435Y-108852732D01*
X130184436Y-108852734D01*
X130314958Y-109039141D01*
X130475862Y-109200045D01*
X130475865Y-109200047D01*
X130662270Y-109330568D01*
X130720279Y-109357618D01*
X130772718Y-109403791D01*
X130791870Y-109470984D01*
X130771654Y-109537865D01*
X130720279Y-109582382D01*
X130662271Y-109609431D01*
X130662269Y-109609432D01*
X130475862Y-109739954D01*
X130314958Y-109900858D01*
X130184436Y-110087265D01*
X130184435Y-110087267D01*
X130088265Y-110293502D01*
X130088262Y-110293511D01*
X130029370Y-110513302D01*
X130029368Y-110513313D01*
X130009536Y-110739998D01*
X130009536Y-110740001D01*
X130029368Y-110966686D01*
X130029370Y-110966697D01*
X130088262Y-111186488D01*
X130088265Y-111186497D01*
X130184435Y-111392732D01*
X130184436Y-111392734D01*
X130314958Y-111579141D01*
X130475862Y-111740045D01*
X130500466Y-111757273D01*
X130544091Y-111811849D01*
X130551285Y-111881348D01*
X130519762Y-111943703D01*
X130459533Y-111979117D01*
X130442597Y-111982138D01*
X130407520Y-111985908D01*
X130272675Y-112036202D01*
X130272668Y-112036206D01*
X130157459Y-112122452D01*
X130157456Y-112122455D01*
X130071210Y-112237664D01*
X130071206Y-112237671D01*
X130020912Y-112372517D01*
X130015331Y-112424435D01*
X130014505Y-112432123D01*
X130014504Y-112432135D01*
X130014504Y-114127870D01*
X130014505Y-114127876D01*
X130020912Y-114187483D01*
X130071206Y-114322328D01*
X130071210Y-114322335D01*
X130157456Y-114437544D01*
X130157459Y-114437547D01*
X130272668Y-114523793D01*
X130272675Y-114523797D01*
X130407521Y-114574091D01*
X130407520Y-114574091D01*
X130414448Y-114574835D01*
X130467131Y-114580500D01*
X132162876Y-114580499D01*
X132222487Y-114574091D01*
X132357335Y-114523796D01*
X132472550Y-114437546D01*
X132558800Y-114322331D01*
X132609095Y-114187483D01*
X132615504Y-114127873D01*
X132615503Y-112432128D01*
X132609095Y-112372517D01*
X132608272Y-112370311D01*
X132558801Y-112237671D01*
X132558797Y-112237664D01*
X132472551Y-112122455D01*
X132472548Y-112122452D01*
X132357339Y-112036206D01*
X132357332Y-112036202D01*
X132222486Y-111985908D01*
X132222487Y-111985908D01*
X132187408Y-111982137D01*
X132122857Y-111955399D01*
X132083009Y-111898006D01*
X132080516Y-111828181D01*
X132116169Y-111768092D01*
X132129543Y-111757272D01*
X132154144Y-111740046D01*
X132315049Y-111579141D01*
X132315051Y-111579139D01*
X132445572Y-111392734D01*
X132541743Y-111186496D01*
X132600639Y-110966692D01*
X132620472Y-110740000D01*
X132600639Y-110513308D01*
X132541743Y-110293504D01*
X132445572Y-110087266D01*
X132315051Y-109900861D01*
X132315049Y-109900858D01*
X132154145Y-109739954D01*
X131967738Y-109609432D01*
X131967732Y-109609429D01*
X131909729Y-109582382D01*
X131857289Y-109536210D01*
X131838137Y-109469017D01*
X131858352Y-109402135D01*
X131909729Y-109357618D01*
X131967738Y-109330568D01*
X132154143Y-109200047D01*
X132315051Y-109039139D01*
X132445572Y-108852734D01*
X132541743Y-108646496D01*
X132600639Y-108426692D01*
X132620472Y-108200000D01*
X132600639Y-107973308D01*
X132541743Y-107753504D01*
X132445572Y-107547266D01*
X132315051Y-107360861D01*
X132315049Y-107360858D01*
X132154145Y-107199954D01*
X131967738Y-107069432D01*
X131967736Y-107069431D01*
X131909729Y-107042382D01*
X131909136Y-107042105D01*
X131856698Y-106995934D01*
X131837546Y-106928740D01*
X131857762Y-106861859D01*
X131909138Y-106817341D01*
X131967488Y-106790132D01*
X132153824Y-106659657D01*
X132314661Y-106498820D01*
X132445138Y-106312482D01*
X132541269Y-106106326D01*
X132541273Y-106106317D01*
X132593876Y-105910000D01*
X131748016Y-105910000D01*
X131780929Y-105852993D01*
X131815004Y-105725826D01*
X131815004Y-105594174D01*
X131780929Y-105467007D01*
X131748016Y-105410000D01*
X132593876Y-105410000D01*
X132593876Y-105409999D01*
X132541273Y-105213682D01*
X132541269Y-105213673D01*
X132445138Y-105007517D01*
X132314661Y-104821179D01*
X132153824Y-104660342D01*
X131967486Y-104529865D01*
X131909137Y-104502657D01*
X131856698Y-104456484D01*
X131837546Y-104389291D01*
X131857762Y-104322410D01*
X131909133Y-104277895D01*
X131967738Y-104250568D01*
X132154143Y-104120047D01*
X132315051Y-103959139D01*
X132394750Y-103845316D01*
X132410112Y-103823377D01*
X132464689Y-103779752D01*
X132511687Y-103770500D01*
X134267507Y-103770500D01*
X134334546Y-103790185D01*
X134380301Y-103842989D01*
X134390245Y-103912147D01*
X134361220Y-103975703D01*
X134330536Y-103999166D01*
X134331378Y-104000506D01*
X134172741Y-104100184D01*
X134045188Y-104227737D01*
X133949215Y-104380476D01*
X133889635Y-104550745D01*
X133889634Y-104550750D01*
X133869439Y-104729996D01*
X133869439Y-104730003D01*
X133889634Y-104909249D01*
X133889635Y-104909254D01*
X133949215Y-105079523D01*
X134033406Y-105213511D01*
X134045188Y-105232262D01*
X134172742Y-105359816D01*
X134252608Y-105409999D01*
X134303732Y-105442123D01*
X134325482Y-105455789D01*
X134495749Y-105515368D01*
X134502978Y-105516182D01*
X134567392Y-105543246D01*
X134576780Y-105551722D01*
X135760328Y-106735271D01*
X135760331Y-106735274D01*
X135835355Y-106785403D01*
X135835363Y-106785408D01*
X135866877Y-106806465D01*
X135985260Y-106855501D01*
X135985264Y-106855501D01*
X135985265Y-106855502D01*
X136110932Y-106880500D01*
X136110935Y-106880500D01*
X139110935Y-106880500D01*
X140104196Y-106880500D01*
X140171235Y-106900185D01*
X140191877Y-106916819D01*
X141238185Y-107963127D01*
X141271670Y-108024450D01*
X141274504Y-108050808D01*
X141274504Y-112860191D01*
X141254819Y-112927230D01*
X141202015Y-112972985D01*
X141132857Y-112982929D01*
X141069301Y-112953904D01*
X141062823Y-112947872D01*
X136746726Y-108631776D01*
X136713241Y-108570453D01*
X136711186Y-108557973D01*
X136710372Y-108550745D01*
X136650793Y-108380478D01*
X136638254Y-108360523D01*
X136554819Y-108227737D01*
X136427266Y-108100184D01*
X136274527Y-108004211D01*
X136104258Y-107944631D01*
X136104253Y-107944630D01*
X135925008Y-107924435D01*
X135925000Y-107924435D01*
X135745754Y-107944630D01*
X135745749Y-107944631D01*
X135575480Y-108004211D01*
X135422741Y-108100184D01*
X135295188Y-108227737D01*
X135199215Y-108380476D01*
X135139635Y-108550745D01*
X135139634Y-108550750D01*
X135119439Y-108729996D01*
X135119439Y-108730003D01*
X135139634Y-108909249D01*
X135139635Y-108909254D01*
X135199215Y-109079523D01*
X135284345Y-109215006D01*
X135295188Y-109232262D01*
X135422742Y-109359816D01*
X135490092Y-109402135D01*
X135560375Y-109446297D01*
X135575482Y-109455789D01*
X135745749Y-109515368D01*
X135752978Y-109516182D01*
X135817392Y-109543246D01*
X135826780Y-109551722D01*
X139988185Y-113713127D01*
X140021670Y-113774450D01*
X140024504Y-113800808D01*
X140024504Y-114457647D01*
X140004819Y-114524686D01*
X139952015Y-114570441D01*
X139882857Y-114580385D01*
X139819301Y-114551360D01*
X139785943Y-114505100D01*
X139751470Y-114421876D01*
X139751469Y-114421873D01*
X139751467Y-114421870D01*
X139751465Y-114421866D01*
X139685526Y-114323182D01*
X139685521Y-114323175D01*
X139680277Y-114315326D01*
X138496726Y-113131776D01*
X138463241Y-113070453D01*
X138461186Y-113057973D01*
X138460661Y-113053313D01*
X138460372Y-113050745D01*
X138400793Y-112880478D01*
X138304820Y-112727738D01*
X138177266Y-112600184D01*
X138128395Y-112569476D01*
X138024527Y-112504211D01*
X137854258Y-112444631D01*
X137854253Y-112444630D01*
X137675008Y-112424435D01*
X137675000Y-112424435D01*
X137495754Y-112444630D01*
X137495749Y-112444631D01*
X137325480Y-112504211D01*
X137172741Y-112600184D01*
X137045188Y-112727737D01*
X136949215Y-112880476D01*
X136889635Y-113050745D01*
X136889634Y-113050750D01*
X136869439Y-113229996D01*
X136869439Y-113230003D01*
X136889634Y-113409249D01*
X136889635Y-113409254D01*
X136949215Y-113579523D01*
X137033165Y-113713127D01*
X137045188Y-113732262D01*
X137172742Y-113859816D01*
X137325482Y-113955789D01*
X137495749Y-114015368D01*
X137502978Y-114016182D01*
X137567392Y-114043246D01*
X137576780Y-114051722D01*
X138488185Y-114963127D01*
X138521670Y-115024450D01*
X138524504Y-115050808D01*
X138524504Y-117794070D01*
X138548742Y-117915914D01*
X138548744Y-117915938D01*
X138548746Y-117915938D01*
X138549503Y-117919744D01*
X138549504Y-117919748D01*
X138598537Y-118038124D01*
X138669730Y-118144673D01*
X142760328Y-122235271D01*
X142760335Y-122235277D01*
X142866875Y-122306464D01*
X142866874Y-122306464D01*
X142901548Y-122320826D01*
X142985260Y-122355501D01*
X142985264Y-122355501D01*
X142985265Y-122355502D01*
X143110932Y-122380500D01*
X143110935Y-122380500D01*
X166489075Y-122380500D01*
X166573619Y-122363682D01*
X166614748Y-122355501D01*
X166733131Y-122306465D01*
X166839673Y-122235277D01*
X171680280Y-117394670D01*
X171751469Y-117288127D01*
X171800505Y-117169744D01*
X171813483Y-117104499D01*
X171825504Y-117044069D01*
X171825504Y-74415931D01*
X171825504Y-74415928D01*
X171800506Y-74290261D01*
X171800505Y-74290260D01*
X171800505Y-74290256D01*
X171751469Y-74171873D01*
X171751463Y-74171864D01*
X171750496Y-74170416D01*
X171680278Y-74065327D01*
X170089677Y-72474726D01*
X170089673Y-72474723D01*
X169983131Y-72403535D01*
X169864748Y-72354499D01*
X169864742Y-72354497D01*
X169739075Y-72329500D01*
X169739073Y-72329500D01*
X169491687Y-72329500D01*
X169424648Y-72309815D01*
X169390112Y-72276623D01*
X169295049Y-72140858D01*
X169134145Y-71979954D01*
X168947738Y-71849432D01*
X168947732Y-71849429D01*
X168889729Y-71822382D01*
X168837289Y-71776210D01*
X168818137Y-71709017D01*
X168838352Y-71642135D01*
X168889729Y-71597618D01*
X168947738Y-71570568D01*
X169134143Y-71440047D01*
X169295051Y-71279139D01*
X169425572Y-71092734D01*
X169521743Y-70886496D01*
X169580639Y-70666692D01*
X169600472Y-70440000D01*
X169599408Y-70427844D01*
X169580639Y-70213313D01*
X169580639Y-70213308D01*
X169521743Y-69993504D01*
X169425572Y-69787266D01*
X169295051Y-69600861D01*
X169295049Y-69600858D01*
X169134145Y-69439954D01*
X168947738Y-69309432D01*
X168947736Y-69309431D01*
X168936279Y-69304088D01*
X168889136Y-69282105D01*
X168836698Y-69235934D01*
X168817546Y-69168740D01*
X168837762Y-69101859D01*
X168889138Y-69057341D01*
X168947488Y-69030132D01*
X169133824Y-68899657D01*
X169294661Y-68738820D01*
X169425138Y-68552482D01*
X169521269Y-68346326D01*
X169521273Y-68346317D01*
X169573876Y-68150000D01*
X168610690Y-68150000D01*
X168615084Y-68145606D01*
X168667745Y-68054394D01*
X168695004Y-67952661D01*
X168695004Y-67847339D01*
X168667745Y-67745606D01*
X168615084Y-67654394D01*
X168610690Y-67650000D01*
X169573876Y-67650000D01*
X169573876Y-67649999D01*
X169521273Y-67453682D01*
X169521269Y-67453673D01*
X169425138Y-67247517D01*
X169294661Y-67061179D01*
X169133824Y-66900342D01*
X168947485Y-66769865D01*
X168947483Y-66769864D01*
X168888547Y-66742382D01*
X168836107Y-66696210D01*
X168816955Y-66629017D01*
X168837170Y-66562136D01*
X168888547Y-66517618D01*
X168947483Y-66490135D01*
X168947485Y-66490134D01*
X169133824Y-66359657D01*
X169294661Y-66198820D01*
X169425138Y-66012482D01*
X169521269Y-65806326D01*
X169521273Y-65806317D01*
X169573876Y-65610000D01*
X168610690Y-65610000D01*
X168615084Y-65605606D01*
X168667745Y-65514394D01*
X168695004Y-65412661D01*
X168695004Y-65307339D01*
X168667745Y-65205606D01*
X168615084Y-65114394D01*
X168610690Y-65110000D01*
X169573876Y-65110000D01*
X169573876Y-65109999D01*
X169521273Y-64913682D01*
X169521269Y-64913673D01*
X169425138Y-64707517D01*
X169294661Y-64521179D01*
X169133824Y-64360342D01*
X168947486Y-64229865D01*
X168889137Y-64202657D01*
X168836698Y-64156484D01*
X168817546Y-64089291D01*
X168837762Y-64022410D01*
X168889133Y-63977895D01*
X168947738Y-63950568D01*
X169134143Y-63820047D01*
X169295051Y-63659139D01*
X169425572Y-63472734D01*
X169521743Y-63266496D01*
X169580639Y-63046692D01*
X169600472Y-62820000D01*
X169580639Y-62593308D01*
X169523827Y-62381282D01*
X169521745Y-62373511D01*
X169521742Y-62373502D01*
X169473235Y-62269480D01*
X169425572Y-62167266D01*
X169295051Y-61980861D01*
X169295049Y-61980858D01*
X169134145Y-61819954D01*
X168947738Y-61689432D01*
X168947732Y-61689429D01*
X168889729Y-61662382D01*
X168837289Y-61616210D01*
X168818137Y-61549017D01*
X168838352Y-61482135D01*
X168889729Y-61437618D01*
X168898916Y-61433334D01*
X168947738Y-61410568D01*
X169134143Y-61280047D01*
X169295051Y-61119139D01*
X169425572Y-60932734D01*
X169521743Y-60726496D01*
X169580639Y-60506692D01*
X169600472Y-60280000D01*
X169599793Y-60272244D01*
X169594574Y-60212591D01*
X169580639Y-60053308D01*
X169535121Y-59883431D01*
X169521745Y-59833511D01*
X169521742Y-59833502D01*
X169494332Y-59774722D01*
X169425572Y-59627266D01*
X169295051Y-59440861D01*
X169295049Y-59440858D01*
X169134145Y-59279954D01*
X168947738Y-59149432D01*
X168947732Y-59149429D01*
X168889729Y-59122382D01*
X168837289Y-59076210D01*
X168818137Y-59009017D01*
X168838352Y-58942135D01*
X168889729Y-58897618D01*
X168947738Y-58870568D01*
X169134143Y-58740047D01*
X169295051Y-58579139D01*
X169425572Y-58392734D01*
X169521743Y-58186496D01*
X169580639Y-57966692D01*
X169600472Y-57740000D01*
X169580639Y-57513308D01*
X169524424Y-57303511D01*
X169521745Y-57293511D01*
X169521742Y-57293502D01*
X169507842Y-57263694D01*
X169425572Y-57087266D01*
X169295938Y-56902128D01*
X169295049Y-56900858D01*
X169134144Y-56739953D01*
X168998381Y-56644891D01*
X168954756Y-56590314D01*
X168945504Y-56543316D01*
X168945504Y-56035928D01*
X168920506Y-55910261D01*
X168920505Y-55910260D01*
X168920505Y-55910256D01*
X168871469Y-55791873D01*
X168868966Y-55788127D01*
X168800281Y-55685331D01*
X168800279Y-55685329D01*
X168800277Y-55685326D01*
X167839677Y-54724726D01*
X167787731Y-54690017D01*
X167733131Y-54653535D01*
X167614748Y-54604499D01*
X167614742Y-54604497D01*
X167489075Y-54579500D01*
X167489073Y-54579500D01*
X164745812Y-54579500D01*
X164678773Y-54559815D01*
X164658131Y-54543181D01*
X163839678Y-53724727D01*
X163839677Y-53724726D01*
X163839673Y-53724723D01*
X163733131Y-53653535D01*
X163614748Y-53604499D01*
X163614742Y-53604497D01*
X163489075Y-53579500D01*
X163489073Y-53579500D01*
X144110935Y-53579500D01*
X144110933Y-53579500D01*
X143985265Y-53604497D01*
X143985259Y-53604499D01*
X143866878Y-53653534D01*
X143760330Y-53724726D01*
X142419728Y-55065328D01*
X142352507Y-55165933D01*
X142348540Y-55171871D01*
X142299503Y-55290255D01*
X142299501Y-55290261D01*
X142274504Y-55415928D01*
X142274504Y-64409192D01*
X142254819Y-64476231D01*
X142238185Y-64496873D01*
X141691877Y-65043181D01*
X141630554Y-65076666D01*
X141604196Y-65079500D01*
X136110933Y-65079500D01*
X135985265Y-65104497D01*
X135985259Y-65104499D01*
X135866874Y-65153535D01*
X135760335Y-65224722D01*
X135760328Y-65224728D01*
X134169730Y-66815326D01*
X134098538Y-66921874D01*
X134049503Y-67040255D01*
X134049501Y-67040261D01*
X134024504Y-67165928D01*
X134024504Y-81159192D01*
X134004819Y-81226231D01*
X133988185Y-81246873D01*
X133121877Y-82113181D01*
X133060554Y-82146666D01*
X133034196Y-82149500D01*
X132511687Y-82149500D01*
X132444648Y-82129815D01*
X132410112Y-82096623D01*
X132315049Y-81960858D01*
X132154145Y-81799954D01*
X131967738Y-81669432D01*
X131967732Y-81669429D01*
X131909729Y-81642382D01*
X131857289Y-81596210D01*
X131838137Y-81529017D01*
X131858352Y-81462135D01*
X131909729Y-81417618D01*
X131967738Y-81390568D01*
X132154143Y-81260047D01*
X132315051Y-81099139D01*
X132445572Y-80912734D01*
X132541743Y-80706496D01*
X132600639Y-80486692D01*
X132620472Y-80260000D01*
X132618834Y-80241282D01*
X132601965Y-80048464D01*
X132600639Y-80033308D01*
X132541743Y-79813504D01*
X132445572Y-79607266D01*
X132315051Y-79420861D01*
X132315049Y-79420858D01*
X132154145Y-79259954D01*
X131967738Y-79129432D01*
X131967732Y-79129429D01*
X131909729Y-79102382D01*
X131857289Y-79056210D01*
X131838137Y-78989017D01*
X131858352Y-78922135D01*
X131909729Y-78877618D01*
X131967738Y-78850568D01*
X132154143Y-78720047D01*
X132315051Y-78559139D01*
X132445572Y-78372734D01*
X132541743Y-78166496D01*
X132600639Y-77946692D01*
X132620472Y-77720000D01*
X132600639Y-77493308D01*
X132541743Y-77273504D01*
X132445572Y-77067266D01*
X132315051Y-76880861D01*
X132315049Y-76880858D01*
X132154145Y-76719954D01*
X131967738Y-76589432D01*
X131967736Y-76589431D01*
X131761501Y-76493261D01*
X131761492Y-76493258D01*
X131541701Y-76434366D01*
X131541697Y-76434365D01*
X131541696Y-76434365D01*
X131541695Y-76434364D01*
X131541690Y-76434364D01*
X131315006Y-76414532D01*
X131315002Y-76414532D01*
X131088317Y-76434364D01*
X131088306Y-76434366D01*
X130868515Y-76493258D01*
X130868506Y-76493261D01*
X130662271Y-76589431D01*
X130662269Y-76589432D01*
X130475862Y-76719954D01*
X130314958Y-76880858D01*
X130184436Y-77067265D01*
X130184435Y-77067267D01*
X130088265Y-77273502D01*
X130088262Y-77273511D01*
X130029370Y-77493302D01*
X130029368Y-77493313D01*
X130009536Y-77719998D01*
X109565504Y-77719998D01*
X109565504Y-74229994D01*
X115669361Y-74229994D01*
X115669361Y-74230005D01*
X115689894Y-74477812D01*
X115689896Y-74477824D01*
X115750940Y-74718881D01*
X115850830Y-74946606D01*
X115986837Y-75154782D01*
X115986840Y-75154785D01*
X116155260Y-75337738D01*
X116351495Y-75490474D01*
X116351497Y-75490475D01*
X116569336Y-75608364D01*
X116570194Y-75608828D01*
X116618869Y-75625538D01*
X116803968Y-75689083D01*
X116805390Y-75689571D01*
X117050669Y-75730500D01*
X117299339Y-75730500D01*
X117544618Y-75689571D01*
X117779814Y-75608828D01*
X117998513Y-75490474D01*
X118194748Y-75337738D01*
X118363168Y-75154785D01*
X118499177Y-74946607D01*
X118599067Y-74718881D01*
X118660112Y-74477821D01*
X118660120Y-74477729D01*
X118680647Y-74230005D01*
X118680647Y-74229994D01*
X120169863Y-74229994D01*
X120169863Y-74230005D01*
X120190389Y-74477729D01*
X120190391Y-74477738D01*
X120251416Y-74718717D01*
X120351270Y-74946364D01*
X120451568Y-75099882D01*
X121151216Y-74400234D01*
X121162486Y-74442292D01*
X121234894Y-74567708D01*
X121337296Y-74670110D01*
X121462712Y-74742518D01*
X121504769Y-74753787D01*
X120804946Y-75453609D01*
X120851772Y-75490055D01*
X120851774Y-75490056D01*
X121070389Y-75608364D01*
X121070400Y-75608369D01*
X121305510Y-75689083D01*
X121550711Y-75730000D01*
X121799297Y-75730000D01*
X122044497Y-75689083D01*
X122279607Y-75608369D01*
X122279618Y-75608364D01*
X122498232Y-75490057D01*
X122498235Y-75490055D01*
X122545060Y-75453609D01*
X122281450Y-75189999D01*
X125969361Y-75189999D01*
X125969361Y-75190000D01*
X125989888Y-75411535D01*
X125989889Y-75411537D01*
X126050773Y-75625523D01*
X126050779Y-75625538D01*
X126149942Y-75824683D01*
X126149947Y-75824691D01*
X126284024Y-76002238D01*
X126448441Y-76152123D01*
X126448443Y-76152125D01*
X126637599Y-76269245D01*
X126637600Y-76269245D01*
X126637603Y-76269247D01*
X126845064Y-76349618D01*
X127063761Y-76390500D01*
X127063763Y-76390500D01*
X127286245Y-76390500D01*
X127286247Y-76390500D01*
X127504944Y-76349618D01*
X127712405Y-76269247D01*
X127901566Y-76152124D01*
X128065985Y-76002236D01*
X128200062Y-75824689D01*
X128299233Y-75625528D01*
X128360119Y-75411536D01*
X128380647Y-75190000D01*
X128372296Y-75099882D01*
X128360119Y-74968464D01*
X128360118Y-74968462D01*
X128353899Y-74946606D01*
X128299233Y-74754472D01*
X128299228Y-74754461D01*
X128200065Y-74555316D01*
X128200060Y-74555308D01*
X128065983Y-74377761D01*
X127901566Y-74227876D01*
X127901564Y-74227874D01*
X127712408Y-74110754D01*
X127712402Y-74110752D01*
X127504944Y-74030382D01*
X127286247Y-73989500D01*
X127063761Y-73989500D01*
X126845064Y-74030382D01*
X126747494Y-74068181D01*
X126637605Y-74110752D01*
X126637599Y-74110754D01*
X126448443Y-74227874D01*
X126448441Y-74227876D01*
X126284024Y-74377761D01*
X126149947Y-74555308D01*
X126149942Y-74555316D01*
X126050779Y-74754461D01*
X126050773Y-74754476D01*
X125989889Y-74968462D01*
X125989888Y-74968464D01*
X125969361Y-75189999D01*
X122281450Y-75189999D01*
X121845238Y-74753787D01*
X121887296Y-74742518D01*
X122012712Y-74670110D01*
X122115114Y-74567708D01*
X122187522Y-74442292D01*
X122198791Y-74400235D01*
X122898438Y-75099882D01*
X122998735Y-74946369D01*
X123098591Y-74718717D01*
X123159616Y-74477738D01*
X123159618Y-74477729D01*
X123180145Y-74230005D01*
X123180145Y-74229994D01*
X123159618Y-73982270D01*
X123159616Y-73982261D01*
X123098591Y-73741282D01*
X122998735Y-73513630D01*
X122898438Y-73360116D01*
X122198791Y-74059764D01*
X122187522Y-74017708D01*
X122115114Y-73892292D01*
X122012712Y-73789890D01*
X121887296Y-73717482D01*
X121845239Y-73706212D01*
X122545061Y-73006390D01*
X122545060Y-73006389D01*
X122498233Y-72969943D01*
X122279618Y-72851635D01*
X122279607Y-72851630D01*
X122044497Y-72770916D01*
X121799297Y-72730000D01*
X121550711Y-72730000D01*
X121305510Y-72770916D01*
X121070400Y-72851630D01*
X121070394Y-72851632D01*
X120851765Y-72969949D01*
X120804946Y-73006388D01*
X120804946Y-73006390D01*
X121504769Y-73706212D01*
X121462712Y-73717482D01*
X121337296Y-73789890D01*
X121234894Y-73892292D01*
X121162486Y-74017708D01*
X121151216Y-74059764D01*
X120451568Y-73360116D01*
X120351271Y-73513632D01*
X120251416Y-73741282D01*
X120190391Y-73982261D01*
X120190389Y-73982270D01*
X120169863Y-74229994D01*
X118680647Y-74229994D01*
X118660113Y-73982187D01*
X118660111Y-73982175D01*
X118599067Y-73741118D01*
X118499177Y-73513393D01*
X118363170Y-73305217D01*
X118341561Y-73281744D01*
X118194748Y-73122262D01*
X117998513Y-72969526D01*
X117998511Y-72969525D01*
X117998510Y-72969524D01*
X117779815Y-72851172D01*
X117779806Y-72851169D01*
X117544620Y-72770429D01*
X117299339Y-72729500D01*
X117050669Y-72729500D01*
X116805387Y-72770429D01*
X116570201Y-72851169D01*
X116570192Y-72851172D01*
X116351497Y-72969524D01*
X116155261Y-73122261D01*
X115986837Y-73305217D01*
X115850830Y-73513393D01*
X115750940Y-73741118D01*
X115689896Y-73982175D01*
X115689894Y-73982187D01*
X115669361Y-74229994D01*
X109565504Y-74229994D01*
X109565504Y-72249996D01*
X127009439Y-72249996D01*
X127009439Y-72250003D01*
X127029634Y-72429249D01*
X127029635Y-72429254D01*
X127089215Y-72599523D01*
X127185188Y-72752262D01*
X127312742Y-72879816D01*
X127403084Y-72936582D01*
X127456187Y-72969949D01*
X127465482Y-72975789D01*
X127552929Y-73006388D01*
X127635749Y-73035368D01*
X127635754Y-73035369D01*
X127815000Y-73055565D01*
X127815004Y-73055565D01*
X127815008Y-73055565D01*
X127994253Y-73035369D01*
X127994256Y-73035368D01*
X127994259Y-73035368D01*
X128164526Y-72975789D01*
X128317266Y-72879816D01*
X128317271Y-72879810D01*
X128320101Y-72877555D01*
X128322279Y-72876665D01*
X128323162Y-72876111D01*
X128323259Y-72876265D01*
X128384787Y-72851145D01*
X128397416Y-72850500D01*
X131978335Y-72850500D01*
X131978351Y-72850501D01*
X131985947Y-72850501D01*
X132144058Y-72850501D01*
X132144061Y-72850501D01*
X132296789Y-72809577D01*
X132364595Y-72770429D01*
X132433720Y-72730520D01*
X132545524Y-72618716D01*
X132545524Y-72618714D01*
X132555728Y-72608511D01*
X132555731Y-72608506D01*
X133545524Y-71618716D01*
X133624581Y-71481784D01*
X133665505Y-71329057D01*
X133665505Y-71170942D01*
X133665505Y-71163347D01*
X133665504Y-71163329D01*
X133665504Y-63050097D01*
X133685189Y-62983058D01*
X133701823Y-62962416D01*
X135197420Y-61466819D01*
X135258743Y-61433334D01*
X135285101Y-61430500D01*
X138206746Y-61430500D01*
X138273785Y-61450185D01*
X138317231Y-61498205D01*
X138326674Y-61516738D01*
X138364787Y-61591538D01*
X138499218Y-61776566D01*
X138660938Y-61938286D01*
X138845966Y-62072717D01*
X139031527Y-62167265D01*
X139049748Y-62176549D01*
X139267255Y-62247221D01*
X139267256Y-62247221D01*
X139267259Y-62247222D01*
X139493150Y-62283000D01*
X139493151Y-62283000D01*
X139816857Y-62283000D01*
X139816858Y-62283000D01*
X140042749Y-62247222D01*
X140042752Y-62247221D01*
X140042753Y-62247221D01*
X140260259Y-62176549D01*
X140260259Y-62176548D01*
X140260262Y-62176548D01*
X140464042Y-62072717D01*
X140649070Y-61938286D01*
X140810790Y-61776566D01*
X140945221Y-61591538D01*
X141049052Y-61387758D01*
X141119726Y-61170245D01*
X141155504Y-60944354D01*
X141155504Y-60715646D01*
X141119726Y-60489755D01*
X141119725Y-60489751D01*
X141119725Y-60489750D01*
X141049053Y-60272244D01*
X141027528Y-60229999D01*
X140945221Y-60068462D01*
X140810790Y-59883434D01*
X140649070Y-59721714D01*
X140564138Y-59660007D01*
X140521474Y-59604678D01*
X140515495Y-59535064D01*
X140548101Y-59473269D01*
X140564141Y-59459371D01*
X140648743Y-59397905D01*
X140810406Y-59236242D01*
X140944792Y-59051276D01*
X141048586Y-58847570D01*
X141119238Y-58630128D01*
X141133513Y-58540000D01*
X140145752Y-58540000D01*
X140167522Y-58502292D01*
X140205004Y-58362409D01*
X140205004Y-58217591D01*
X140167522Y-58077708D01*
X140145752Y-58040000D01*
X141133513Y-58040000D01*
X141119238Y-57949871D01*
X141048586Y-57732429D01*
X140944792Y-57528723D01*
X140811992Y-57345940D01*
X140788512Y-57280133D01*
X140804337Y-57212079D01*
X140854443Y-57163384D01*
X140868970Y-57156875D01*
X140897335Y-57146296D01*
X141012550Y-57060046D01*
X141098800Y-56944831D01*
X141149095Y-56809983D01*
X141155504Y-56750373D01*
X141155503Y-54749628D01*
X141149095Y-54690017D01*
X141098800Y-54555169D01*
X141098799Y-54555168D01*
X141098797Y-54555164D01*
X141012551Y-54439955D01*
X141012548Y-54439952D01*
X140897339Y-54353706D01*
X140897332Y-54353702D01*
X140762486Y-54303408D01*
X140762487Y-54303408D01*
X140702887Y-54297001D01*
X140702885Y-54297000D01*
X140702877Y-54297000D01*
X140702868Y-54297000D01*
X138607133Y-54297000D01*
X138607127Y-54297001D01*
X138547520Y-54303408D01*
X138412675Y-54353702D01*
X138412668Y-54353706D01*
X138297459Y-54439952D01*
X138297456Y-54439955D01*
X138211210Y-54555164D01*
X138211206Y-54555171D01*
X138160912Y-54690017D01*
X138157181Y-54724726D01*
X138154505Y-54749623D01*
X138154504Y-54749635D01*
X138154504Y-56750370D01*
X138154505Y-56750376D01*
X138160912Y-56809983D01*
X138211206Y-56944828D01*
X138211210Y-56944835D01*
X138297456Y-57060044D01*
X138297459Y-57060047D01*
X138412668Y-57146293D01*
X138412671Y-57146295D01*
X138412672Y-57146295D01*
X138412673Y-57146296D01*
X138441029Y-57156872D01*
X138496962Y-57198742D01*
X138521380Y-57264206D01*
X138506529Y-57332479D01*
X138498014Y-57345939D01*
X138365217Y-57528719D01*
X138261421Y-57732429D01*
X138190769Y-57949871D01*
X138176495Y-58040000D01*
X139164256Y-58040000D01*
X139142486Y-58077708D01*
X139105004Y-58217591D01*
X139105004Y-58362409D01*
X139142486Y-58502292D01*
X139164256Y-58540000D01*
X138176495Y-58540000D01*
X138190769Y-58630128D01*
X138261421Y-58847570D01*
X138365215Y-59051276D01*
X138499601Y-59236242D01*
X138661261Y-59397902D01*
X138661267Y-59397907D01*
X138745867Y-59459372D01*
X138788533Y-59514701D01*
X138794512Y-59584315D01*
X138761907Y-59646110D01*
X138745868Y-59660007D01*
X138660944Y-59721709D01*
X138660935Y-59721716D01*
X138499220Y-59883431D01*
X138499220Y-59883432D01*
X138499218Y-59883434D01*
X138470477Y-59922993D01*
X138364787Y-60068461D01*
X138317231Y-60161795D01*
X138269256Y-60212591D01*
X138206746Y-60229500D01*
X135071673Y-60229500D01*
X135071657Y-60229499D01*
X135064061Y-60229499D01*
X134905947Y-60229499D01*
X134829583Y-60249961D01*
X134753216Y-60270423D01*
X134722092Y-60288393D01*
X134719315Y-60289998D01*
X134719313Y-60289999D01*
X134719310Y-60290000D01*
X134616294Y-60349475D01*
X134616286Y-60349481D01*
X132584485Y-62381282D01*
X132584483Y-62381285D01*
X132552724Y-62436295D01*
X132552723Y-62436297D01*
X132505427Y-62518214D01*
X132476907Y-62624652D01*
X132440541Y-62684312D01*
X132377694Y-62714841D01*
X132308319Y-62706546D01*
X132254441Y-62662060D01*
X132246132Y-62647830D01*
X132200065Y-62555316D01*
X132200060Y-62555308D01*
X132065983Y-62377761D01*
X131901566Y-62227876D01*
X131901564Y-62227874D01*
X131712408Y-62110754D01*
X131712402Y-62110752D01*
X131504944Y-62030382D01*
X131286247Y-61989500D01*
X131063761Y-61989500D01*
X130845064Y-62030382D01*
X130735788Y-62072716D01*
X130637605Y-62110752D01*
X130637599Y-62110754D01*
X130448443Y-62227874D01*
X130448441Y-62227876D01*
X130284024Y-62377761D01*
X130149947Y-62555308D01*
X130149942Y-62555316D01*
X130050779Y-62754461D01*
X130050773Y-62754476D01*
X129989889Y-62968462D01*
X129989888Y-62968464D01*
X129969361Y-63189999D01*
X129969361Y-63190000D01*
X129989888Y-63411535D01*
X129989889Y-63411537D01*
X130050773Y-63625523D01*
X130050779Y-63625538D01*
X130149942Y-63824683D01*
X130149947Y-63824691D01*
X130284024Y-64002238D01*
X130448441Y-64152123D01*
X130448443Y-64152125D01*
X130637599Y-64269245D01*
X130637600Y-64269245D01*
X130637603Y-64269247D01*
X130845064Y-64349618D01*
X131063761Y-64390500D01*
X131063763Y-64390500D01*
X131286245Y-64390500D01*
X131286247Y-64390500D01*
X131504944Y-64349618D01*
X131712405Y-64269247D01*
X131901566Y-64152124D01*
X132065985Y-64002236D01*
X132200062Y-63824689D01*
X132201982Y-63820834D01*
X132229504Y-63765563D01*
X132277006Y-63714325D01*
X132344669Y-63696904D01*
X132411010Y-63718829D01*
X132454965Y-63773141D01*
X132464504Y-63820834D01*
X132464504Y-67639165D01*
X132444819Y-67706204D01*
X132392015Y-67751959D01*
X132322857Y-67761903D01*
X132259301Y-67732878D01*
X132229504Y-67694437D01*
X132200065Y-67635316D01*
X132200060Y-67635308D01*
X132065983Y-67457761D01*
X131901566Y-67307876D01*
X131901564Y-67307874D01*
X131712408Y-67190754D01*
X131712402Y-67190752D01*
X131504944Y-67110382D01*
X131286247Y-67069500D01*
X131063761Y-67069500D01*
X130845064Y-67110382D01*
X130713868Y-67161207D01*
X130637605Y-67190752D01*
X130637599Y-67190754D01*
X130448443Y-67307874D01*
X130448441Y-67307876D01*
X130284024Y-67457761D01*
X130149947Y-67635308D01*
X130149942Y-67635316D01*
X130050779Y-67834461D01*
X130050773Y-67834476D01*
X129989889Y-68048462D01*
X129989888Y-68048464D01*
X129969361Y-68269999D01*
X129969361Y-68270000D01*
X129989888Y-68491535D01*
X129989889Y-68491537D01*
X130050773Y-68705523D01*
X130050779Y-68705538D01*
X130149942Y-68904683D01*
X130149947Y-68904691D01*
X130284024Y-69082238D01*
X130448441Y-69232123D01*
X130448443Y-69232125D01*
X130637599Y-69349245D01*
X130637600Y-69349245D01*
X130637603Y-69349247D01*
X130845064Y-69429618D01*
X131063761Y-69470500D01*
X131063763Y-69470500D01*
X131286245Y-69470500D01*
X131286247Y-69470500D01*
X131504944Y-69429618D01*
X131712405Y-69349247D01*
X131901566Y-69232124D01*
X132065985Y-69082236D01*
X132200062Y-68904689D01*
X132202568Y-68899657D01*
X132229504Y-68845563D01*
X132277006Y-68794325D01*
X132344669Y-68776904D01*
X132411010Y-68798829D01*
X132454965Y-68853141D01*
X132464504Y-68900834D01*
X132464504Y-70949902D01*
X132444819Y-71016941D01*
X132428185Y-71037583D01*
X131852588Y-71613181D01*
X131791265Y-71646666D01*
X131764907Y-71649500D01*
X128397416Y-71649500D01*
X128330377Y-71629815D01*
X128320101Y-71622445D01*
X128317267Y-71620185D01*
X128317266Y-71620184D01*
X128238301Y-71570567D01*
X128164527Y-71524211D01*
X127994258Y-71464631D01*
X127994253Y-71464630D01*
X127815008Y-71444435D01*
X127815000Y-71444435D01*
X127635754Y-71464630D01*
X127635749Y-71464631D01*
X127465480Y-71524211D01*
X127312741Y-71620184D01*
X127185188Y-71747737D01*
X127089215Y-71900476D01*
X127029635Y-72070745D01*
X127029634Y-72070750D01*
X127009439Y-72249996D01*
X109565504Y-72249996D01*
X109565504Y-66782135D01*
X119174504Y-66782135D01*
X119174504Y-68877870D01*
X119174505Y-68877876D01*
X119180912Y-68937483D01*
X119231206Y-69072328D01*
X119231210Y-69072335D01*
X119317456Y-69187544D01*
X119317459Y-69187547D01*
X119432668Y-69273793D01*
X119432675Y-69273797D01*
X119567521Y-69324091D01*
X119567520Y-69324091D01*
X119574448Y-69324835D01*
X119627131Y-69330500D01*
X121722876Y-69330499D01*
X121782487Y-69324091D01*
X121917335Y-69273796D01*
X122032550Y-69187546D01*
X122118800Y-69072331D01*
X122169095Y-68937483D01*
X122175504Y-68877873D01*
X122175503Y-66782128D01*
X122169095Y-66722517D01*
X122159900Y-66697865D01*
X122118801Y-66587671D01*
X122118797Y-66587664D01*
X122032551Y-66472455D01*
X122032548Y-66472452D01*
X121917339Y-66386206D01*
X121917332Y-66386202D01*
X121782486Y-66335908D01*
X121782487Y-66335908D01*
X121722887Y-66329501D01*
X121722885Y-66329500D01*
X121722877Y-66329500D01*
X121722868Y-66329500D01*
X119627133Y-66329500D01*
X119627127Y-66329501D01*
X119567520Y-66335908D01*
X119432675Y-66386202D01*
X119432668Y-66386206D01*
X119317459Y-66472452D01*
X119317456Y-66472455D01*
X119231210Y-66587664D01*
X119231206Y-66587671D01*
X119180912Y-66722517D01*
X119175822Y-66769864D01*
X119174505Y-66782123D01*
X119174504Y-66782135D01*
X109565504Y-66782135D01*
X109565504Y-60229994D01*
X119169863Y-60229994D01*
X119169863Y-60230005D01*
X119190389Y-60477729D01*
X119190391Y-60477738D01*
X119251416Y-60718717D01*
X119351270Y-60946364D01*
X119451568Y-61099882D01*
X120192041Y-60359409D01*
X120209079Y-60422993D01*
X120274905Y-60537007D01*
X120367997Y-60630099D01*
X120482011Y-60695925D01*
X120545594Y-60712962D01*
X119804946Y-61453609D01*
X119851772Y-61490055D01*
X119851774Y-61490056D01*
X120070389Y-61608364D01*
X120070400Y-61608369D01*
X120305510Y-61689083D01*
X120550711Y-61730000D01*
X120799297Y-61730000D01*
X121044497Y-61689083D01*
X121279607Y-61608369D01*
X121279618Y-61608364D01*
X121498232Y-61490057D01*
X121498235Y-61490055D01*
X121545060Y-61453609D01*
X120804413Y-60712962D01*
X120867997Y-60695925D01*
X120982011Y-60630099D01*
X121075103Y-60537007D01*
X121140929Y-60422993D01*
X121157966Y-60359410D01*
X121898438Y-61099882D01*
X121998735Y-60946369D01*
X122098591Y-60718717D01*
X122159616Y-60477738D01*
X122159618Y-60477729D01*
X122180145Y-60230005D01*
X122180145Y-60229994D01*
X122159618Y-59982270D01*
X122159616Y-59982261D01*
X122098591Y-59741282D01*
X121998735Y-59513630D01*
X121898438Y-59360116D01*
X121157966Y-60100589D01*
X121140929Y-60037007D01*
X121075103Y-59922993D01*
X120982011Y-59829901D01*
X120867997Y-59764075D01*
X120804414Y-59747037D01*
X121545061Y-59006390D01*
X121545060Y-59006389D01*
X121498233Y-58969943D01*
X121279618Y-58851635D01*
X121279607Y-58851630D01*
X121044497Y-58770916D01*
X120799297Y-58730000D01*
X120550711Y-58730000D01*
X120305510Y-58770916D01*
X120070400Y-58851630D01*
X120070394Y-58851632D01*
X119851765Y-58969949D01*
X119804946Y-59006388D01*
X119804946Y-59006390D01*
X120545594Y-59747037D01*
X120482011Y-59764075D01*
X120367997Y-59829901D01*
X120274905Y-59922993D01*
X120209079Y-60037007D01*
X120192041Y-60100589D01*
X119451568Y-59360116D01*
X119351271Y-59513632D01*
X119251416Y-59741282D01*
X119190391Y-59982261D01*
X119190389Y-59982270D01*
X119169863Y-60229994D01*
X109565504Y-60229994D01*
X109565504Y-54999993D01*
X129999704Y-54999993D01*
X129999704Y-55000006D01*
X130018868Y-55231297D01*
X130018870Y-55231308D01*
X130075846Y-55456300D01*
X130169079Y-55668848D01*
X130296022Y-55863150D01*
X130391171Y-55966510D01*
X130422093Y-56029164D01*
X130414232Y-56098590D01*
X130370085Y-56152746D01*
X130343275Y-56166674D01*
X130262915Y-56196646D01*
X130262910Y-56196649D01*
X130147816Y-56282809D01*
X130147813Y-56282812D01*
X130061653Y-56397906D01*
X130061649Y-56397913D01*
X130011407Y-56532620D01*
X130011405Y-56532627D01*
X130005004Y-56592155D01*
X130005004Y-57290000D01*
X131029726Y-57290000D01*
X130985671Y-57366306D01*
X130955004Y-57480756D01*
X130955004Y-57599244D01*
X130985671Y-57713694D01*
X131029726Y-57790000D01*
X130005004Y-57790000D01*
X130005004Y-58487844D01*
X130011405Y-58547372D01*
X130011407Y-58547379D01*
X130061649Y-58682086D01*
X130061653Y-58682093D01*
X130147813Y-58797187D01*
X130147816Y-58797190D01*
X130262910Y-58883350D01*
X130262917Y-58883354D01*
X130397624Y-58933596D01*
X130397631Y-58933598D01*
X130457159Y-58939999D01*
X130457176Y-58940000D01*
X131155004Y-58940000D01*
X131155004Y-57915277D01*
X131231310Y-57959333D01*
X131345760Y-57990000D01*
X131464248Y-57990000D01*
X131578698Y-57959333D01*
X131655004Y-57915277D01*
X131655004Y-58940000D01*
X132352832Y-58940000D01*
X132352848Y-58939999D01*
X132412376Y-58933598D01*
X132412383Y-58933596D01*
X132547090Y-58883354D01*
X132547097Y-58883350D01*
X132662191Y-58797190D01*
X132662194Y-58797187D01*
X132748354Y-58682093D01*
X132748358Y-58682086D01*
X132798600Y-58547379D01*
X132798602Y-58547372D01*
X132805003Y-58487844D01*
X132805004Y-58487827D01*
X132805004Y-57790000D01*
X131780282Y-57790000D01*
X131824337Y-57713694D01*
X131855004Y-57599244D01*
X131855004Y-57480756D01*
X131824337Y-57366306D01*
X131780282Y-57290000D01*
X132805004Y-57290000D01*
X132805004Y-56592172D01*
X132805003Y-56592155D01*
X132798602Y-56532627D01*
X132798600Y-56532620D01*
X132748358Y-56397913D01*
X132748354Y-56397906D01*
X132662194Y-56282812D01*
X132662191Y-56282809D01*
X132547097Y-56196649D01*
X132547090Y-56196645D01*
X132466733Y-56166674D01*
X132410799Y-56124803D01*
X132386382Y-56059338D01*
X132401234Y-55991065D01*
X132418830Y-55966516D01*
X132513983Y-55863153D01*
X132640928Y-55668849D01*
X132734161Y-55456300D01*
X132791138Y-55231305D01*
X132810304Y-55000000D01*
X132810304Y-54999993D01*
X132791139Y-54768702D01*
X132791137Y-54768691D01*
X132734161Y-54543699D01*
X132640928Y-54331151D01*
X132513987Y-54136852D01*
X132513984Y-54136849D01*
X132513983Y-54136847D01*
X132356788Y-53966087D01*
X132356783Y-53966083D01*
X132356781Y-53966081D01*
X132173638Y-53823535D01*
X132173632Y-53823531D01*
X131969508Y-53713064D01*
X131969499Y-53713061D01*
X131749988Y-53637702D01*
X131550998Y-53604497D01*
X131521053Y-53599500D01*
X131288955Y-53599500D01*
X131259010Y-53604497D01*
X131060019Y-53637702D01*
X130840508Y-53713061D01*
X130840499Y-53713064D01*
X130636375Y-53823531D01*
X130636369Y-53823535D01*
X130453226Y-53966081D01*
X130453223Y-53966084D01*
X130453220Y-53966086D01*
X130453220Y-53966087D01*
X130394271Y-54030122D01*
X130296020Y-54136852D01*
X130169079Y-54331151D01*
X130075846Y-54543699D01*
X130018870Y-54768691D01*
X130018868Y-54768702D01*
X129999704Y-54999993D01*
X109565504Y-54999993D01*
X109565504Y-47002155D01*
X114075004Y-47002155D01*
X114075004Y-47650000D01*
X114991992Y-47650000D01*
X114959079Y-47707007D01*
X114925004Y-47834174D01*
X114925004Y-47965826D01*
X114959079Y-48092993D01*
X114991992Y-48150000D01*
X114075004Y-48150000D01*
X114075004Y-48797844D01*
X114081405Y-48857372D01*
X114081407Y-48857379D01*
X114131649Y-48992086D01*
X114131653Y-48992093D01*
X114217813Y-49107187D01*
X114217816Y-49107190D01*
X114332910Y-49193350D01*
X114332917Y-49193354D01*
X114464990Y-49242614D01*
X114520924Y-49284485D01*
X114545341Y-49349949D01*
X114530490Y-49418222D01*
X114509339Y-49446477D01*
X114386890Y-49568926D01*
X114251404Y-49762420D01*
X114251403Y-49762422D01*
X114151574Y-49976507D01*
X114151571Y-49976513D01*
X114094368Y-50189999D01*
X114094368Y-50190000D01*
X114991992Y-50190000D01*
X114959079Y-50247007D01*
X114925004Y-50374174D01*
X114925004Y-50505826D01*
X114959079Y-50632993D01*
X114991992Y-50690000D01*
X114094368Y-50690000D01*
X114151571Y-50903486D01*
X114151574Y-50903492D01*
X114251403Y-51117578D01*
X114386898Y-51311082D01*
X114553921Y-51478105D01*
X114740035Y-51608425D01*
X114783660Y-51663003D01*
X114790852Y-51732501D01*
X114759330Y-51794856D01*
X114740035Y-51811575D01*
X114553926Y-51941890D01*
X114553924Y-51941891D01*
X114386895Y-52108920D01*
X114386890Y-52108926D01*
X114251404Y-52302420D01*
X114251403Y-52302422D01*
X114151574Y-52516507D01*
X114151571Y-52516513D01*
X114094368Y-52729999D01*
X114094368Y-52730000D01*
X114991992Y-52730000D01*
X114959079Y-52787007D01*
X114925004Y-52914174D01*
X114925004Y-53045826D01*
X114959079Y-53172993D01*
X114991992Y-53230000D01*
X114094368Y-53230000D01*
X114151571Y-53443486D01*
X114151574Y-53443492D01*
X114251403Y-53657578D01*
X114386898Y-53851082D01*
X114553921Y-54018105D01*
X114747425Y-54153600D01*
X114961511Y-54253429D01*
X114961520Y-54253433D01*
X115175004Y-54310634D01*
X115175004Y-53413012D01*
X115232011Y-53445925D01*
X115359178Y-53480000D01*
X115490830Y-53480000D01*
X115617997Y-53445925D01*
X115675004Y-53413012D01*
X115675004Y-54310633D01*
X115888487Y-54253433D01*
X115888496Y-54253429D01*
X116102582Y-54153600D01*
X116296086Y-54018105D01*
X116463109Y-53851082D01*
X116598604Y-53657578D01*
X116698433Y-53443492D01*
X116698436Y-53443486D01*
X116755640Y-53230000D01*
X115858016Y-53230000D01*
X115890929Y-53172993D01*
X115925004Y-53045826D01*
X115925004Y-52914174D01*
X115890929Y-52787007D01*
X115858016Y-52730000D01*
X116755640Y-52730000D01*
X116755639Y-52729999D01*
X116698436Y-52516513D01*
X116698433Y-52516507D01*
X116598604Y-52302422D01*
X116598603Y-52302420D01*
X116463117Y-52108926D01*
X116463112Y-52108920D01*
X116296086Y-51941894D01*
X116109972Y-51811575D01*
X116066348Y-51756998D01*
X116059155Y-51687499D01*
X116090677Y-51625145D01*
X116109972Y-51608425D01*
X116296086Y-51478105D01*
X116463109Y-51311082D01*
X116598604Y-51117578D01*
X116698433Y-50903492D01*
X116698436Y-50903486D01*
X116755640Y-50690000D01*
X115858016Y-50690000D01*
X115890929Y-50632993D01*
X115925004Y-50505826D01*
X115925004Y-50439999D01*
X118719345Y-50439999D01*
X118719345Y-50440000D01*
X118739940Y-50675403D01*
X118739942Y-50675413D01*
X118801098Y-50903655D01*
X118801100Y-50903659D01*
X118801101Y-50903663D01*
X118874593Y-51061266D01*
X118900969Y-51117830D01*
X118900971Y-51117834D01*
X119036505Y-51311395D01*
X119036510Y-51311402D01*
X119203601Y-51478493D01*
X119203607Y-51478498D01*
X119389162Y-51608425D01*
X119432787Y-51663002D01*
X119439981Y-51732500D01*
X119408458Y-51794855D01*
X119389162Y-51811575D01*
X119203601Y-51941505D01*
X119036509Y-52108597D01*
X118900969Y-52302169D01*
X118900968Y-52302171D01*
X118801102Y-52516335D01*
X118801098Y-52516344D01*
X118739942Y-52744586D01*
X118739940Y-52744596D01*
X118719345Y-52979999D01*
X118719345Y-52980000D01*
X118739940Y-53215403D01*
X118739942Y-53215413D01*
X118801098Y-53443655D01*
X118801100Y-53443659D01*
X118801101Y-53443663D01*
X118864443Y-53579500D01*
X118900969Y-53657830D01*
X118900971Y-53657834D01*
X119009285Y-53812521D01*
X119036509Y-53851401D01*
X119203603Y-54018495D01*
X119300388Y-54086265D01*
X119397169Y-54154032D01*
X119397171Y-54154033D01*
X119397174Y-54154035D01*
X119611341Y-54253903D01*
X119839596Y-54315063D01*
X120027922Y-54331539D01*
X120075003Y-54335659D01*
X120075004Y-54335659D01*
X120075005Y-54335659D01*
X120114238Y-54332226D01*
X120310412Y-54315063D01*
X120538667Y-54253903D01*
X120752834Y-54154035D01*
X120946405Y-54018495D01*
X121113499Y-53851401D01*
X121249039Y-53657830D01*
X121348907Y-53443663D01*
X121410067Y-53215408D01*
X121430663Y-52980000D01*
X121410067Y-52744592D01*
X121348907Y-52516337D01*
X121249039Y-52302171D01*
X121113499Y-52108599D01*
X121113498Y-52108597D01*
X120946406Y-51941506D01*
X120946400Y-51941501D01*
X120760846Y-51811575D01*
X120717221Y-51756998D01*
X120710027Y-51687500D01*
X120741550Y-51625145D01*
X120760846Y-51608425D01*
X120788389Y-51589139D01*
X120946405Y-51478495D01*
X121113499Y-51311401D01*
X121249039Y-51117830D01*
X121348907Y-50903663D01*
X121410067Y-50675408D01*
X121430663Y-50440000D01*
X121430663Y-50439999D01*
X123369345Y-50439999D01*
X123369345Y-50440000D01*
X123389940Y-50675403D01*
X123389942Y-50675413D01*
X123451098Y-50903655D01*
X123451100Y-50903659D01*
X123451101Y-50903663D01*
X123524593Y-51061266D01*
X123550969Y-51117830D01*
X123550971Y-51117834D01*
X123686505Y-51311395D01*
X123686510Y-51311402D01*
X123853601Y-51478493D01*
X123853607Y-51478498D01*
X124039162Y-51608425D01*
X124082787Y-51663002D01*
X124089981Y-51732500D01*
X124058458Y-51794855D01*
X124039162Y-51811575D01*
X123853601Y-51941505D01*
X123686509Y-52108597D01*
X123550969Y-52302169D01*
X123550968Y-52302171D01*
X123451102Y-52516335D01*
X123451098Y-52516344D01*
X123389942Y-52744586D01*
X123389940Y-52744596D01*
X123369345Y-52979999D01*
X123369345Y-52980000D01*
X123389940Y-53215403D01*
X123389942Y-53215413D01*
X123451098Y-53443655D01*
X123451100Y-53443659D01*
X123451101Y-53443663D01*
X123514443Y-53579500D01*
X123550969Y-53657830D01*
X123550971Y-53657834D01*
X123659285Y-53812521D01*
X123686509Y-53851401D01*
X123853603Y-54018495D01*
X123950388Y-54086265D01*
X124047169Y-54154032D01*
X124047171Y-54154033D01*
X124047174Y-54154035D01*
X124261341Y-54253903D01*
X124489596Y-54315063D01*
X124677922Y-54331539D01*
X124725003Y-54335659D01*
X124725004Y-54335659D01*
X124725005Y-54335659D01*
X124764238Y-54332226D01*
X124960412Y-54315063D01*
X125188667Y-54253903D01*
X125402834Y-54154035D01*
X125596405Y-54018495D01*
X125763499Y-53851401D01*
X125899039Y-53657830D01*
X125998907Y-53443663D01*
X126060067Y-53215408D01*
X126080663Y-52980000D01*
X126060067Y-52744592D01*
X125998907Y-52516337D01*
X125899039Y-52302171D01*
X125763499Y-52108599D01*
X125763498Y-52108597D01*
X125596406Y-51941506D01*
X125596400Y-51941501D01*
X125410846Y-51811575D01*
X125367221Y-51756998D01*
X125360027Y-51687500D01*
X125391550Y-51625145D01*
X125410846Y-51608425D01*
X125438389Y-51589139D01*
X125596405Y-51478495D01*
X125763499Y-51311401D01*
X125899039Y-51117830D01*
X125998907Y-50903663D01*
X126040081Y-50749998D01*
X139599536Y-50749998D01*
X139599536Y-50750001D01*
X139619368Y-50976686D01*
X139619370Y-50976697D01*
X139678262Y-51196488D01*
X139678265Y-51196497D01*
X139774435Y-51402732D01*
X139774436Y-51402734D01*
X139904958Y-51589141D01*
X140065862Y-51750045D01*
X140065865Y-51750047D01*
X140252270Y-51880568D01*
X140458508Y-51976739D01*
X140678312Y-52035635D01*
X140840234Y-52049801D01*
X140905002Y-52055468D01*
X140905004Y-52055468D01*
X140905006Y-52055468D01*
X140961677Y-52050509D01*
X141131696Y-52035635D01*
X141351500Y-51976739D01*
X141557738Y-51880568D01*
X141744143Y-51750047D01*
X141905051Y-51589139D01*
X142035572Y-51402734D01*
X142131743Y-51196496D01*
X142190639Y-50976692D01*
X142208724Y-50769977D01*
X142210472Y-50750001D01*
X142210472Y-50749998D01*
X144599536Y-50749998D01*
X144599536Y-50750001D01*
X144619368Y-50976686D01*
X144619370Y-50976697D01*
X144678262Y-51196488D01*
X144678265Y-51196497D01*
X144774435Y-51402732D01*
X144774436Y-51402734D01*
X144904958Y-51589141D01*
X145065862Y-51750045D01*
X145065865Y-51750047D01*
X145252270Y-51880568D01*
X145458508Y-51976739D01*
X145678312Y-52035635D01*
X145840234Y-52049801D01*
X145905002Y-52055468D01*
X145905004Y-52055468D01*
X145905006Y-52055468D01*
X145961677Y-52050509D01*
X146131696Y-52035635D01*
X146351500Y-51976739D01*
X146557738Y-51880568D01*
X146744143Y-51750047D01*
X146905051Y-51589139D01*
X147035572Y-51402734D01*
X147131743Y-51196496D01*
X147190639Y-50976692D01*
X147208724Y-50769977D01*
X147210472Y-50750001D01*
X147210472Y-50749998D01*
X147202565Y-50659618D01*
X147190639Y-50523308D01*
X147131743Y-50303504D01*
X147035572Y-50097266D01*
X146905051Y-49910861D01*
X146905049Y-49910858D01*
X146744145Y-49749954D01*
X146557738Y-49619432D01*
X146557734Y-49619430D01*
X146542026Y-49612105D01*
X146489587Y-49565931D01*
X146470437Y-49498737D01*
X146490654Y-49431857D01*
X146542032Y-49387340D01*
X146557485Y-49380134D01*
X146630475Y-49329024D01*
X146468630Y-49167179D01*
X148785004Y-49167179D01*
X148785004Y-49250000D01*
X149612295Y-49250000D01*
X149600552Y-49270339D01*
X149560004Y-49421667D01*
X149560004Y-49578333D01*
X149600552Y-49729661D01*
X149612295Y-49750000D01*
X148785004Y-49750000D01*
X148785004Y-49832820D01*
X148818738Y-50045809D01*
X148885376Y-50250901D01*
X148983275Y-50443036D01*
X149110029Y-50617496D01*
X149110029Y-50617497D01*
X149262506Y-50769974D01*
X149436967Y-50896728D01*
X149629102Y-50994627D01*
X149834194Y-51061266D01*
X149905004Y-51072481D01*
X149905004Y-50042709D01*
X149925343Y-50054452D01*
X150076671Y-50095000D01*
X150233337Y-50095000D01*
X150384665Y-50054452D01*
X150405004Y-50042709D01*
X150405004Y-51072480D01*
X150475813Y-51061266D01*
X150680905Y-50994627D01*
X150873040Y-50896728D01*
X151047497Y-50769977D01*
X151189582Y-50627892D01*
X151250905Y-50594407D01*
X151320597Y-50599391D01*
X151376531Y-50641262D01*
X151389644Y-50663165D01*
X151390185Y-50664325D01*
X151390189Y-50664331D01*
X151390190Y-50664334D01*
X151482292Y-50813656D01*
X151606348Y-50937712D01*
X151755670Y-51029814D01*
X151922207Y-51084999D01*
X152024995Y-51095500D01*
X153365012Y-51095499D01*
X153467801Y-51084999D01*
X153634338Y-51029814D01*
X153783660Y-50937712D01*
X153907716Y-50813656D01*
X153999818Y-50664334D01*
X154055003Y-50497797D01*
X154065504Y-50395009D01*
X154065503Y-48897133D01*
X157804504Y-48897133D01*
X157804504Y-49562866D01*
X157836111Y-49762422D01*
X157838250Y-49775926D01*
X157904912Y-49981089D01*
X158002847Y-50173299D01*
X158129645Y-50347821D01*
X158282183Y-50500359D01*
X158456705Y-50627157D01*
X158648915Y-50725092D01*
X158854078Y-50791754D01*
X158933977Y-50804408D01*
X159067138Y-50825500D01*
X159067143Y-50825500D01*
X159282870Y-50825500D01*
X159401234Y-50806752D01*
X159495930Y-50791754D01*
X159701093Y-50725092D01*
X159893303Y-50627157D01*
X160067825Y-50500359D01*
X160209811Y-50358372D01*
X160271130Y-50324890D01*
X160340822Y-50329874D01*
X160396756Y-50371745D01*
X160409868Y-50393645D01*
X160410185Y-50394326D01*
X160410190Y-50394334D01*
X160502292Y-50543656D01*
X160626348Y-50667712D01*
X160775670Y-50759814D01*
X160942207Y-50814999D01*
X161044995Y-50825500D01*
X162385012Y-50825499D01*
X162487801Y-50814999D01*
X162654338Y-50759814D01*
X162803660Y-50667712D01*
X162927716Y-50543656D01*
X163019818Y-50394334D01*
X163075003Y-50227797D01*
X163085504Y-50125009D01*
X163085503Y-48897133D01*
X165554504Y-48897133D01*
X165554504Y-49562866D01*
X165586111Y-49762422D01*
X165588250Y-49775926D01*
X165654912Y-49981089D01*
X165752847Y-50173299D01*
X165879645Y-50347821D01*
X166032183Y-50500359D01*
X166206705Y-50627157D01*
X166398915Y-50725092D01*
X166604078Y-50791754D01*
X166683977Y-50804408D01*
X166817138Y-50825500D01*
X166817143Y-50825500D01*
X167032870Y-50825500D01*
X167151234Y-50806752D01*
X167245930Y-50791754D01*
X167451093Y-50725092D01*
X167643303Y-50627157D01*
X167817825Y-50500359D01*
X167959811Y-50358372D01*
X168021130Y-50324890D01*
X168090822Y-50329874D01*
X168146756Y-50371745D01*
X168159868Y-50393645D01*
X168160185Y-50394326D01*
X168160190Y-50394334D01*
X168252292Y-50543656D01*
X168376348Y-50667712D01*
X168525670Y-50759814D01*
X168692207Y-50814999D01*
X168794995Y-50825500D01*
X170135012Y-50825499D01*
X170237801Y-50814999D01*
X170404338Y-50759814D01*
X170553660Y-50667712D01*
X170677716Y-50543656D01*
X170769818Y-50394334D01*
X170825003Y-50227797D01*
X170835504Y-50125009D01*
X170835503Y-48334992D01*
X170831877Y-48299500D01*
X170825003Y-48232203D01*
X170825002Y-48232200D01*
X170809806Y-48186342D01*
X170769818Y-48065666D01*
X170677716Y-47916344D01*
X170553660Y-47792288D01*
X170404338Y-47700186D01*
X170237801Y-47645001D01*
X170237799Y-47645000D01*
X170135014Y-47634500D01*
X168795002Y-47634500D01*
X168794985Y-47634501D01*
X168692207Y-47645000D01*
X168692204Y-47645001D01*
X168525672Y-47700185D01*
X168525667Y-47700187D01*
X168376346Y-47792289D01*
X168252293Y-47916342D01*
X168160183Y-48065677D01*
X168159865Y-48066360D01*
X168159522Y-48066748D01*
X168156399Y-48071813D01*
X168155533Y-48071278D01*
X168113687Y-48118794D01*
X168046491Y-48137939D01*
X167979612Y-48117716D01*
X167959808Y-48101624D01*
X167817827Y-47959643D01*
X167817825Y-47959641D01*
X167643303Y-47832843D01*
X167451093Y-47734908D01*
X167245930Y-47668246D01*
X167245928Y-47668245D01*
X167245926Y-47668245D01*
X167032870Y-47634500D01*
X167032865Y-47634500D01*
X166817143Y-47634500D01*
X166817138Y-47634500D01*
X166604081Y-47668245D01*
X166398912Y-47734909D01*
X166206704Y-47832843D01*
X166119162Y-47896447D01*
X166032183Y-47959641D01*
X166032181Y-47959643D01*
X166032180Y-47959643D01*
X165879647Y-48112176D01*
X165879647Y-48112177D01*
X165879645Y-48112179D01*
X165825762Y-48186342D01*
X165752847Y-48286700D01*
X165654913Y-48478908D01*
X165588249Y-48684077D01*
X165554504Y-48897133D01*
X163085503Y-48897133D01*
X163085503Y-48334992D01*
X163081877Y-48299500D01*
X163075003Y-48232203D01*
X163075002Y-48232200D01*
X163059806Y-48186342D01*
X163019818Y-48065666D01*
X162927716Y-47916344D01*
X162803660Y-47792288D01*
X162654338Y-47700186D01*
X162487801Y-47645001D01*
X162487799Y-47645000D01*
X162385014Y-47634500D01*
X161045002Y-47634500D01*
X161044985Y-47634501D01*
X160942207Y-47645000D01*
X160942204Y-47645001D01*
X160775672Y-47700185D01*
X160775667Y-47700187D01*
X160626346Y-47792289D01*
X160502293Y-47916342D01*
X160410183Y-48065677D01*
X160409865Y-48066360D01*
X160409522Y-48066748D01*
X160406399Y-48071813D01*
X160405533Y-48071278D01*
X160363687Y-48118794D01*
X160296491Y-48137939D01*
X160229612Y-48117716D01*
X160209808Y-48101624D01*
X160067827Y-47959643D01*
X160067825Y-47959641D01*
X159893303Y-47832843D01*
X159701093Y-47734908D01*
X159495930Y-47668246D01*
X159495928Y-47668245D01*
X159495926Y-47668245D01*
X159282870Y-47634500D01*
X159282865Y-47634500D01*
X159067143Y-47634500D01*
X159067138Y-47634500D01*
X158854081Y-47668245D01*
X158648912Y-47734909D01*
X158456704Y-47832843D01*
X158369162Y-47896447D01*
X158282183Y-47959641D01*
X158282181Y-47959643D01*
X158282180Y-47959643D01*
X158129647Y-48112176D01*
X158129647Y-48112177D01*
X158129645Y-48112179D01*
X158075762Y-48186342D01*
X158002847Y-48286700D01*
X157904913Y-48478908D01*
X157838249Y-48684077D01*
X157804504Y-48897133D01*
X154065503Y-48897133D01*
X154065503Y-48604992D01*
X154055003Y-48502203D01*
X153999818Y-48335666D01*
X153907716Y-48186344D01*
X153783660Y-48062288D01*
X153634338Y-47970186D01*
X153467801Y-47915001D01*
X153467799Y-47915000D01*
X153365014Y-47904500D01*
X152025002Y-47904500D01*
X152024985Y-47904501D01*
X151922207Y-47915000D01*
X151922204Y-47915001D01*
X151755672Y-47970185D01*
X151755667Y-47970187D01*
X151606346Y-48062289D01*
X151482293Y-48186342D01*
X151390186Y-48335672D01*
X151389642Y-48336840D01*
X151389055Y-48337505D01*
X151386399Y-48341813D01*
X151385662Y-48341358D01*
X151343465Y-48389275D01*
X151276270Y-48408422D01*
X151209391Y-48388201D01*
X151189583Y-48372107D01*
X151047501Y-48230025D01*
X150873040Y-48103271D01*
X150680903Y-48005372D01*
X150475809Y-47938733D01*
X150405004Y-47927518D01*
X150405004Y-48957290D01*
X150384665Y-48945548D01*
X150233337Y-48905000D01*
X150076671Y-48905000D01*
X149925343Y-48945548D01*
X149905004Y-48957290D01*
X149905004Y-47927518D01*
X149905003Y-47927518D01*
X149834198Y-47938733D01*
X149629104Y-48005372D01*
X149436967Y-48103271D01*
X149262507Y-48230025D01*
X149262506Y-48230025D01*
X149110029Y-48382502D01*
X149110029Y-48382503D01*
X148983275Y-48556963D01*
X148885376Y-48749098D01*
X148818738Y-48954190D01*
X148785004Y-49167179D01*
X146468630Y-49167179D01*
X145951451Y-48650000D01*
X145957665Y-48650000D01*
X146059398Y-48622741D01*
X146150610Y-48570080D01*
X146225084Y-48495606D01*
X146277745Y-48404394D01*
X146305004Y-48302661D01*
X146305004Y-48296447D01*
X146984028Y-48975471D01*
X147035140Y-48902478D01*
X147131268Y-48696331D01*
X147131273Y-48696317D01*
X147190143Y-48476610D01*
X147190145Y-48476599D01*
X147209970Y-48250002D01*
X147209970Y-48249997D01*
X147190145Y-48023400D01*
X147190143Y-48023389D01*
X147131273Y-47803682D01*
X147131268Y-47803668D01*
X147035140Y-47597521D01*
X147035136Y-47597513D01*
X146984029Y-47524526D01*
X146305004Y-48203551D01*
X146305004Y-48197339D01*
X146277745Y-48095606D01*
X146225084Y-48004394D01*
X146150610Y-47929920D01*
X146059398Y-47877259D01*
X145957665Y-47850000D01*
X145951452Y-47850000D01*
X146630476Y-47170974D01*
X146557482Y-47119863D01*
X146351335Y-47023735D01*
X146351321Y-47023730D01*
X146131614Y-46964860D01*
X146131603Y-46964858D01*
X145905006Y-46945034D01*
X145905002Y-46945034D01*
X145678404Y-46964858D01*
X145678393Y-46964860D01*
X145458686Y-47023730D01*
X145458677Y-47023734D01*
X145252520Y-47119866D01*
X145252516Y-47119868D01*
X145179530Y-47170973D01*
X145179530Y-47170974D01*
X145858557Y-47850000D01*
X145852343Y-47850000D01*
X145750610Y-47877259D01*
X145659398Y-47929920D01*
X145584924Y-48004394D01*
X145532263Y-48095606D01*
X145505004Y-48197339D01*
X145505004Y-48203552D01*
X144825978Y-47524526D01*
X144825977Y-47524526D01*
X144774872Y-47597512D01*
X144774870Y-47597516D01*
X144678738Y-47803673D01*
X144678734Y-47803682D01*
X144619864Y-48023389D01*
X144619862Y-48023400D01*
X144600038Y-48249997D01*
X144600038Y-48250002D01*
X144619862Y-48476599D01*
X144619864Y-48476610D01*
X144678734Y-48696317D01*
X144678739Y-48696331D01*
X144774867Y-48902478D01*
X144825978Y-48975472D01*
X145505004Y-48296446D01*
X145505004Y-48302661D01*
X145532263Y-48404394D01*
X145584924Y-48495606D01*
X145659398Y-48570080D01*
X145750610Y-48622741D01*
X145852343Y-48650000D01*
X145858557Y-48650000D01*
X145179530Y-49329025D01*
X145252517Y-49380132D01*
X145252519Y-49380133D01*
X145267977Y-49387341D01*
X145320417Y-49433513D01*
X145339570Y-49500706D01*
X145319355Y-49567587D01*
X145267983Y-49612104D01*
X145252274Y-49619429D01*
X145252269Y-49619432D01*
X145065862Y-49749954D01*
X144904958Y-49910858D01*
X144774436Y-50097265D01*
X144774435Y-50097267D01*
X144678265Y-50303502D01*
X144678262Y-50303511D01*
X144619370Y-50523302D01*
X144619368Y-50523313D01*
X144599536Y-50749998D01*
X142210472Y-50749998D01*
X142202565Y-50659618D01*
X142190639Y-50523308D01*
X142131743Y-50303504D01*
X142035572Y-50097266D01*
X141905051Y-49910861D01*
X141905049Y-49910858D01*
X141744145Y-49749954D01*
X141557738Y-49619432D01*
X141557734Y-49619430D01*
X141542026Y-49612105D01*
X141489587Y-49565931D01*
X141470437Y-49498737D01*
X141490654Y-49431857D01*
X141542032Y-49387340D01*
X141557485Y-49380134D01*
X141630475Y-49329024D01*
X140951451Y-48650000D01*
X140957665Y-48650000D01*
X141059398Y-48622741D01*
X141150610Y-48570080D01*
X141225084Y-48495606D01*
X141277745Y-48404394D01*
X141305004Y-48302661D01*
X141305004Y-48296447D01*
X141984028Y-48975471D01*
X142035140Y-48902478D01*
X142131268Y-48696331D01*
X142131273Y-48696317D01*
X142190143Y-48476610D01*
X142190145Y-48476599D01*
X142209970Y-48250002D01*
X142209970Y-48249997D01*
X142190145Y-48023400D01*
X142190143Y-48023389D01*
X142131273Y-47803682D01*
X142131268Y-47803668D01*
X142035140Y-47597521D01*
X142035136Y-47597513D01*
X141984029Y-47524526D01*
X141305004Y-48203551D01*
X141305004Y-48197339D01*
X141277745Y-48095606D01*
X141225084Y-48004394D01*
X141150610Y-47929920D01*
X141059398Y-47877259D01*
X140957665Y-47850000D01*
X140951452Y-47850000D01*
X141630476Y-47170974D01*
X141557482Y-47119863D01*
X141351335Y-47023735D01*
X141351321Y-47023730D01*
X141131614Y-46964860D01*
X141131603Y-46964858D01*
X140905006Y-46945034D01*
X140905002Y-46945034D01*
X140678404Y-46964858D01*
X140678393Y-46964860D01*
X140458686Y-47023730D01*
X140458677Y-47023734D01*
X140252520Y-47119866D01*
X140252516Y-47119868D01*
X140179530Y-47170973D01*
X140179530Y-47170974D01*
X140858557Y-47850000D01*
X140852343Y-47850000D01*
X140750610Y-47877259D01*
X140659398Y-47929920D01*
X140584924Y-48004394D01*
X140532263Y-48095606D01*
X140505004Y-48197339D01*
X140505004Y-48203552D01*
X139825978Y-47524526D01*
X139825977Y-47524526D01*
X139774872Y-47597512D01*
X139774870Y-47597516D01*
X139678738Y-47803673D01*
X139678734Y-47803682D01*
X139619864Y-48023389D01*
X139619862Y-48023400D01*
X139600038Y-48249997D01*
X139600038Y-48250002D01*
X139619862Y-48476599D01*
X139619864Y-48476610D01*
X139678734Y-48696317D01*
X139678739Y-48696331D01*
X139774867Y-48902478D01*
X139825978Y-48975472D01*
X140505004Y-48296446D01*
X140505004Y-48302661D01*
X140532263Y-48404394D01*
X140584924Y-48495606D01*
X140659398Y-48570080D01*
X140750610Y-48622741D01*
X140852343Y-48650000D01*
X140858557Y-48650000D01*
X140179530Y-49329025D01*
X140252517Y-49380132D01*
X140252519Y-49380133D01*
X140267977Y-49387341D01*
X140320417Y-49433513D01*
X140339570Y-49500706D01*
X140319355Y-49567587D01*
X140267983Y-49612104D01*
X140252274Y-49619429D01*
X140252269Y-49619432D01*
X140065862Y-49749954D01*
X139904958Y-49910858D01*
X139774436Y-50097265D01*
X139774435Y-50097267D01*
X139678265Y-50303502D01*
X139678262Y-50303511D01*
X139619370Y-50523302D01*
X139619368Y-50523313D01*
X139599536Y-50749998D01*
X126040081Y-50749998D01*
X126060067Y-50675408D01*
X126080663Y-50440000D01*
X126060067Y-50204592D01*
X125998907Y-49976337D01*
X125899039Y-49762171D01*
X125876275Y-49729661D01*
X125763500Y-49568600D01*
X125718161Y-49523261D01*
X125694899Y-49499999D01*
X130119361Y-49499999D01*
X130119361Y-49500000D01*
X130139888Y-49721535D01*
X130139889Y-49721537D01*
X130200773Y-49935523D01*
X130200779Y-49935538D01*
X130299942Y-50134683D01*
X130299947Y-50134691D01*
X130434024Y-50312238D01*
X130598441Y-50462123D01*
X130598443Y-50462125D01*
X130787599Y-50579245D01*
X130787600Y-50579245D01*
X130787603Y-50579247D01*
X130995064Y-50659618D01*
X131213761Y-50700500D01*
X131213763Y-50700500D01*
X131436245Y-50700500D01*
X131436247Y-50700500D01*
X131654944Y-50659618D01*
X131862405Y-50579247D01*
X132051566Y-50462124D01*
X132215985Y-50312236D01*
X132350062Y-50134689D01*
X132449233Y-49935528D01*
X132510119Y-49721536D01*
X132530647Y-49500000D01*
X132530647Y-49499999D01*
X135199361Y-49499999D01*
X135199361Y-49500000D01*
X135219888Y-49721535D01*
X135219889Y-49721537D01*
X135280773Y-49935523D01*
X135280779Y-49935538D01*
X135379942Y-50134683D01*
X135379947Y-50134691D01*
X135514024Y-50312238D01*
X135678441Y-50462123D01*
X135678443Y-50462125D01*
X135867599Y-50579245D01*
X135867600Y-50579245D01*
X135867603Y-50579247D01*
X136075064Y-50659618D01*
X136293761Y-50700500D01*
X136293763Y-50700500D01*
X136516245Y-50700500D01*
X136516247Y-50700500D01*
X136734944Y-50659618D01*
X136942405Y-50579247D01*
X137131566Y-50462124D01*
X137295985Y-50312236D01*
X137430062Y-50134689D01*
X137529233Y-49935528D01*
X137590119Y-49721536D01*
X137610647Y-49500000D01*
X137605687Y-49446477D01*
X137590119Y-49278464D01*
X137590118Y-49278462D01*
X137586562Y-49265965D01*
X137529233Y-49064472D01*
X137529228Y-49064461D01*
X137430065Y-48865316D01*
X137430060Y-48865308D01*
X137295983Y-48687761D01*
X137131566Y-48537876D01*
X137131564Y-48537874D01*
X136942408Y-48420754D01*
X136942402Y-48420752D01*
X136734944Y-48340382D01*
X136516247Y-48299500D01*
X136293761Y-48299500D01*
X136075064Y-48340382D01*
X135951629Y-48388201D01*
X135867605Y-48420752D01*
X135867599Y-48420754D01*
X135678443Y-48537874D01*
X135678441Y-48537876D01*
X135514024Y-48687761D01*
X135379947Y-48865308D01*
X135379942Y-48865316D01*
X135280779Y-49064461D01*
X135280773Y-49064476D01*
X135219889Y-49278462D01*
X135219888Y-49278464D01*
X135199361Y-49499999D01*
X132530647Y-49499999D01*
X132525687Y-49446477D01*
X132510119Y-49278464D01*
X132510118Y-49278462D01*
X132506562Y-49265965D01*
X132449233Y-49064472D01*
X132449228Y-49064461D01*
X132350065Y-48865316D01*
X132350060Y-48865308D01*
X132215983Y-48687761D01*
X132051566Y-48537876D01*
X132051564Y-48537874D01*
X131862408Y-48420754D01*
X131862402Y-48420752D01*
X131654944Y-48340382D01*
X131436247Y-48299500D01*
X131213761Y-48299500D01*
X130995064Y-48340382D01*
X130871629Y-48388201D01*
X130787605Y-48420752D01*
X130787599Y-48420754D01*
X130598443Y-48537874D01*
X130598441Y-48537876D01*
X130434024Y-48687761D01*
X130299947Y-48865308D01*
X130299942Y-48865316D01*
X130200779Y-49064461D01*
X130200773Y-49064476D01*
X130139889Y-49278462D01*
X130139888Y-49278464D01*
X130119361Y-49499999D01*
X125694899Y-49499999D01*
X125641571Y-49446671D01*
X125608088Y-49385351D01*
X125613072Y-49315659D01*
X125654943Y-49259725D01*
X125685919Y-49242810D01*
X125817335Y-49193796D01*
X125932550Y-49107546D01*
X126018800Y-48992331D01*
X126069095Y-48857483D01*
X126075504Y-48797873D01*
X126075503Y-47002128D01*
X126069095Y-46942517D01*
X126018888Y-46807906D01*
X126018801Y-46807671D01*
X126018797Y-46807664D01*
X125932551Y-46692455D01*
X125932548Y-46692452D01*
X125817339Y-46606206D01*
X125817332Y-46606202D01*
X125682486Y-46555908D01*
X125682487Y-46555908D01*
X125622887Y-46549501D01*
X125622885Y-46549500D01*
X125622877Y-46549500D01*
X125622868Y-46549500D01*
X123827133Y-46549500D01*
X123827127Y-46549501D01*
X123767520Y-46555908D01*
X123632675Y-46606202D01*
X123632668Y-46606206D01*
X123517459Y-46692452D01*
X123517456Y-46692455D01*
X123431210Y-46807664D01*
X123431206Y-46807671D01*
X123380912Y-46942517D01*
X123374505Y-47002116D01*
X123374505Y-47002123D01*
X123374504Y-47002135D01*
X123374504Y-48797870D01*
X123374505Y-48797876D01*
X123380912Y-48857483D01*
X123431206Y-48992328D01*
X123431210Y-48992335D01*
X123517456Y-49107544D01*
X123517459Y-49107547D01*
X123632668Y-49193793D01*
X123632675Y-49193797D01*
X123764085Y-49242810D01*
X123820019Y-49284681D01*
X123844436Y-49350145D01*
X123829584Y-49418418D01*
X123808434Y-49446673D01*
X123686507Y-49568600D01*
X123550969Y-49762169D01*
X123550968Y-49762171D01*
X123451102Y-49976335D01*
X123451098Y-49976344D01*
X123389942Y-50204586D01*
X123389940Y-50204596D01*
X123369345Y-50439999D01*
X121430663Y-50439999D01*
X121410067Y-50204592D01*
X121348907Y-49976337D01*
X121249039Y-49762171D01*
X121226275Y-49729661D01*
X121113500Y-49568600D01*
X121068161Y-49523261D01*
X120991571Y-49446671D01*
X120958088Y-49385351D01*
X120963072Y-49315659D01*
X121004943Y-49259725D01*
X121035919Y-49242810D01*
X121167335Y-49193796D01*
X121282550Y-49107546D01*
X121368800Y-48992331D01*
X121419095Y-48857483D01*
X121425504Y-48797873D01*
X121425503Y-47002128D01*
X121419095Y-46942517D01*
X121368888Y-46807906D01*
X121368801Y-46807671D01*
X121368797Y-46807664D01*
X121282551Y-46692455D01*
X121282548Y-46692452D01*
X121167339Y-46606206D01*
X121167332Y-46606202D01*
X121032486Y-46555908D01*
X121032487Y-46555908D01*
X120972887Y-46549501D01*
X120972885Y-46549500D01*
X120972877Y-46549500D01*
X120972868Y-46549500D01*
X119177133Y-46549500D01*
X119177127Y-46549501D01*
X119117520Y-46555908D01*
X118982675Y-46606202D01*
X118982668Y-46606206D01*
X118867459Y-46692452D01*
X118867456Y-46692455D01*
X118781210Y-46807664D01*
X118781206Y-46807671D01*
X118730912Y-46942517D01*
X118724505Y-47002116D01*
X118724505Y-47002123D01*
X118724504Y-47002135D01*
X118724504Y-48797870D01*
X118724505Y-48797876D01*
X118730912Y-48857483D01*
X118781206Y-48992328D01*
X118781210Y-48992335D01*
X118867456Y-49107544D01*
X118867459Y-49107547D01*
X118982668Y-49193793D01*
X118982675Y-49193797D01*
X119114085Y-49242810D01*
X119170019Y-49284681D01*
X119194436Y-49350145D01*
X119179584Y-49418418D01*
X119158434Y-49446673D01*
X119036507Y-49568600D01*
X118900969Y-49762169D01*
X118900968Y-49762171D01*
X118801102Y-49976335D01*
X118801098Y-49976344D01*
X118739942Y-50204586D01*
X118739940Y-50204596D01*
X118719345Y-50439999D01*
X115925004Y-50439999D01*
X115925004Y-50374174D01*
X115890929Y-50247007D01*
X115858016Y-50190000D01*
X116755640Y-50190000D01*
X116755639Y-50189999D01*
X116698436Y-49976513D01*
X116698433Y-49976507D01*
X116598604Y-49762422D01*
X116598603Y-49762420D01*
X116463117Y-49568926D01*
X116463112Y-49568920D01*
X116340669Y-49446477D01*
X116307184Y-49385154D01*
X116312168Y-49315462D01*
X116354040Y-49259529D01*
X116385017Y-49242614D01*
X116517090Y-49193354D01*
X116517097Y-49193350D01*
X116632191Y-49107190D01*
X116632194Y-49107187D01*
X116718354Y-48992093D01*
X116718358Y-48992086D01*
X116768600Y-48857379D01*
X116768602Y-48857372D01*
X116775003Y-48797844D01*
X116775004Y-48797827D01*
X116775004Y-48150000D01*
X115858016Y-48150000D01*
X115890929Y-48092993D01*
X115925004Y-47965826D01*
X115925004Y-47834174D01*
X115890929Y-47707007D01*
X115858016Y-47650000D01*
X116775004Y-47650000D01*
X116775004Y-47002172D01*
X116775003Y-47002155D01*
X116768602Y-46942627D01*
X116768600Y-46942620D01*
X116718358Y-46807913D01*
X116718354Y-46807906D01*
X116632194Y-46692812D01*
X116632191Y-46692809D01*
X116517097Y-46606649D01*
X116517090Y-46606645D01*
X116382383Y-46556403D01*
X116382376Y-46556401D01*
X116322848Y-46550000D01*
X115675004Y-46550000D01*
X115675004Y-47466988D01*
X115617997Y-47434075D01*
X115490830Y-47400000D01*
X115359178Y-47400000D01*
X115232011Y-47434075D01*
X115175004Y-47466988D01*
X115175004Y-46550000D01*
X114527159Y-46550000D01*
X114467631Y-46556401D01*
X114467624Y-46556403D01*
X114332917Y-46606645D01*
X114332910Y-46606649D01*
X114217816Y-46692809D01*
X114217813Y-46692812D01*
X114131653Y-46807906D01*
X114131649Y-46807913D01*
X114081407Y-46942620D01*
X114081405Y-46942627D01*
X114075004Y-47002155D01*
X109565504Y-47002155D01*
X109565504Y-43374500D01*
X109585189Y-43307461D01*
X109637993Y-43261706D01*
X109689504Y-43250500D01*
X176690504Y-43250500D01*
X176757543Y-43270185D01*
G37*
%TD.AperFunction*%
%TD*%
M02*
