%TF.GenerationSoftware,KiCad,Pcbnew,8.0.4*%
%TF.CreationDate,2024-10-19T15:51:41+03:00*%
%TF.ProjectId,robotkarti,726f626f-746b-4617-9274-692e6b696361,rev?*%
%TF.SameCoordinates,Original*%
%TF.FileFunction,Soldermask,Bot*%
%TF.FilePolarity,Negative*%
%FSLAX46Y46*%
G04 Gerber Fmt 4.6, Leading zero omitted, Abs format (unit mm)*
G04 Created by KiCad (PCBNEW 8.0.4) date 2024-10-19 15:51:41*
%MOMM*%
%LPD*%
G01*
G04 APERTURE LIST*
G04 Aperture macros list*
%AMRoundRect*
0 Rectangle with rounded corners*
0 $1 Rounding radius*
0 $2 $3 $4 $5 $6 $7 $8 $9 X,Y pos of 4 corners*
0 Add a 4 corners polygon primitive as box body*
4,1,4,$2,$3,$4,$5,$6,$7,$8,$9,$2,$3,0*
0 Add four circle primitives for the rounded corners*
1,1,$1+$1,$2,$3*
1,1,$1+$1,$4,$5*
1,1,$1+$1,$6,$7*
1,1,$1+$1,$8,$9*
0 Add four rect primitives between the rounded corners*
20,1,$1+$1,$2,$3,$4,$5,0*
20,1,$1+$1,$4,$5,$6,$7,0*
20,1,$1+$1,$6,$7,$8,$9,0*
20,1,$1+$1,$8,$9,$2,$3,0*%
G04 Aperture macros list end*
%ADD10R,1.600000X1.600000*%
%ADD11O,1.600000X1.600000*%
%ADD12O,2.000000X1.905000*%
%ADD13R,2.000000X1.905000*%
%ADD14C,2.000000*%
%ADD15C,1.400000*%
%ADD16O,1.400000X1.400000*%
%ADD17O,1.700000X1.700000*%
%ADD18R,1.700000X1.700000*%
%ADD19RoundRect,0.250000X0.620000X0.845000X-0.620000X0.845000X-0.620000X-0.845000X0.620000X-0.845000X0*%
%ADD20O,1.740000X2.190000*%
%ADD21R,1.800000X1.800000*%
%ADD22C,1.800000*%
%ADD23C,1.600000*%
%ADD24R,2.000000X2.000000*%
G04 APERTURE END LIST*
D10*
%TO.C,U2*%
X160675004Y-75520000D03*
D11*
X160675004Y-72980000D03*
X160675004Y-70440000D03*
X160675004Y-67900000D03*
X160675004Y-65360000D03*
X160675004Y-62820000D03*
X160675004Y-60280000D03*
X160675004Y-57740000D03*
X168295004Y-57740000D03*
X168295004Y-60280000D03*
X168295004Y-62820000D03*
X168295004Y-65360000D03*
X168295004Y-67900000D03*
X168295004Y-70440000D03*
X168295004Y-72980000D03*
X168295004Y-75520000D03*
%TD*%
D12*
%TO.C,U1*%
X139655004Y-60830000D03*
X139655004Y-58290000D03*
D13*
X139655004Y-55750000D03*
%TD*%
D14*
%TO.C,SW2*%
X117175004Y-74230000D03*
X117175004Y-80730000D03*
X121675004Y-74230000D03*
X121675004Y-80730000D03*
%TD*%
D15*
%TO.C,R8*%
X159925004Y-104480000D03*
D16*
X159925004Y-99400000D03*
%TD*%
D15*
%TO.C,R7*%
X159925004Y-113005000D03*
D16*
X159925004Y-107925000D03*
%TD*%
D15*
%TO.C,R6*%
X159925004Y-95755000D03*
D16*
X159925004Y-90675000D03*
%TD*%
%TO.C,R5*%
X159925004Y-82425000D03*
D15*
X159925004Y-87505000D03*
%TD*%
%TO.C,R4*%
X131175004Y-68270000D03*
D16*
X131175004Y-63190000D03*
%TD*%
D15*
%TO.C,R3*%
X127175004Y-80270000D03*
D16*
X127175004Y-75190000D03*
%TD*%
D15*
%TO.C,R2*%
X150925004Y-76940000D03*
D16*
X150925004Y-82020000D03*
%TD*%
D15*
%TO.C,R1*%
X136405004Y-49500000D03*
D16*
X131325004Y-49500000D03*
%TD*%
D17*
%TO.C,J8*%
X152150004Y-106550000D03*
X152150004Y-104010000D03*
X152150004Y-101470000D03*
D18*
X152150004Y-98930000D03*
%TD*%
D17*
%TO.C,USER*%
X124980004Y-88255000D03*
X122440004Y-88255000D03*
D18*
X119900004Y-88255000D03*
%TD*%
D17*
%TO.C,GND*%
X115425004Y-52980000D03*
X115425004Y-50440000D03*
D18*
X115425004Y-47900000D03*
%TD*%
D17*
%TO.C,+3.3V*%
X120075004Y-52980000D03*
X120075004Y-50440000D03*
D18*
X120075004Y-47900000D03*
%TD*%
D17*
%TO.C,+5V*%
X124725004Y-52980000D03*
X124725004Y-50440000D03*
D18*
X124725004Y-47900000D03*
%TD*%
D19*
%TO.C,MOTOR 2*%
X169465004Y-49230000D03*
D20*
X166925004Y-49230000D03*
%TD*%
%TO.C,MOTOR 1*%
X159175004Y-49230000D03*
D19*
X161715004Y-49230000D03*
%TD*%
D20*
%TO.C,12V-GND*%
X150155004Y-49500000D03*
D19*
X152695004Y-49500000D03*
%TD*%
D21*
%TO.C,D6*%
X165925004Y-103230000D03*
D22*
X165925004Y-100690000D03*
%TD*%
D21*
%TO.C,D5*%
X165925004Y-111755000D03*
D22*
X165925004Y-109215000D03*
%TD*%
%TO.C,D4*%
X165925004Y-91965000D03*
D21*
X165925004Y-94505000D03*
%TD*%
D22*
%TO.C,D3*%
X165925004Y-83715000D03*
D21*
X165925004Y-86255000D03*
%TD*%
D22*
%TO.C,D2*%
X150385004Y-69480000D03*
D21*
X152925004Y-69480000D03*
%TD*%
D22*
%TO.C,D1*%
X131405004Y-55000000D03*
D21*
X131405004Y-57540000D03*
%TD*%
D23*
%TO.C,C2*%
X140905004Y-48250000D03*
X140905004Y-50750000D03*
%TD*%
%TO.C,C1*%
X145905004Y-48250000D03*
X145905004Y-50750000D03*
%TD*%
D14*
%TO.C,BZ1*%
X120675004Y-60230000D03*
D24*
X120675004Y-67830000D03*
%TD*%
D11*
%TO.C,A1*%
X146555004Y-113280000D03*
X146555004Y-110740000D03*
X146555004Y-108200000D03*
X146555004Y-105660000D03*
X146555004Y-103120000D03*
X146555004Y-100580000D03*
X146555004Y-98040000D03*
X146555004Y-95500000D03*
X146555004Y-92960000D03*
X146555004Y-90420000D03*
X146555004Y-87880000D03*
X146555004Y-85340000D03*
X146555004Y-82800000D03*
X146555004Y-80260000D03*
X146555004Y-77720000D03*
X131315004Y-77720000D03*
X131315004Y-80260000D03*
X131315004Y-82800000D03*
X131315004Y-85340000D03*
X131315004Y-87880000D03*
X131315004Y-90420000D03*
X131315004Y-92960000D03*
X131315004Y-95500000D03*
X131315004Y-98040000D03*
X131315004Y-100580000D03*
X131315004Y-103120000D03*
X131315004Y-105660000D03*
X131315004Y-108200000D03*
X131315004Y-110740000D03*
D10*
X131315004Y-113280000D03*
%TD*%
D11*
%TO.C,SW1*%
X145655004Y-57750000D03*
X145655004Y-60290000D03*
X153275004Y-60290000D03*
D10*
X153275004Y-57750000D03*
%TD*%
M02*
