M48
; DRILL file {KiCad 8.0.4} date 2024-10-19T15:52:41+0300
; FORMAT={-:-/ absolute / inch / decimal}
; #@! TF.CreationDate,2024-10-19T15:52:41+03:00
; #@! TF.GenerationSoftware,Kicad,Pcbnew,8.0.4
; #@! TF.FileFunction,Plated,1,2,PTH
FMAT,2
INCH
; #@! TA.AperFunction,Plated,PTH,ViaDrill
T1C0.0118
; #@! TA.AperFunction,Plated,PTH,ComponentDrill
T2C0.0276
; #@! TA.AperFunction,Plated,PTH,ComponentDrill
T3C0.0315
; #@! TA.AperFunction,Plated,PTH,ComponentDrill
T4C0.0354
; #@! TA.AperFunction,Plated,PTH,ComponentDrill
T5C0.0394
; #@! TA.AperFunction,Plated,PTH,ComponentDrill
T6C0.0433
; #@! TA.AperFunction,Plated,PTH,ComponentDrill
T7C0.0469
%
G90
G05
T1
X5.0321Y-2.8445
X5.3022Y-3.9953
X5.3022Y-4.1232
X5.3514Y-3.9067
X5.3514Y-4.2807
X5.4203Y-3.9067
X5.4203Y-4.4579
X5.4258Y-2.687
X5.5931Y-2.687
X6.0699Y-3.1685
X6.1388Y-4.5071
X6.1388Y-4.6449
X6.2864Y-3.1685
T2
X5.0069Y-2.9602
X5.0069Y-3.1602
X5.1644Y-2.4878
X5.1644Y-2.6878
X5.1703Y-1.9488
X5.3703Y-1.9488
X5.9419Y-3.0291
X5.9419Y-3.2291
X6.2963Y-3.2451
X6.2963Y-3.4451
X6.2963Y-3.5699
X6.2963Y-3.7699
X6.2963Y-3.9134
X6.2963Y-4.1134
X6.2963Y-4.249
X6.2963Y-4.449
T3
X5.5474Y-1.8996
X5.5474Y-1.998
X5.7344Y-2.2736
X5.7344Y-2.3736
X5.7443Y-1.8996
X5.7443Y-1.998
X6.0344Y-2.2736
X6.0344Y-2.3736
X6.3258Y-2.2732
X6.3258Y-2.3732
X6.3258Y-2.4732
X6.3258Y-2.5732
X6.3258Y-2.6732
X6.3258Y-2.7732
X6.3258Y-2.8732
X6.3258Y-2.9732
X6.6258Y-2.2732
X6.6258Y-2.3732
X6.6258Y-2.4732
X6.6258Y-2.5732
X6.6258Y-2.6732
X6.6258Y-2.7732
X6.6258Y-2.8732
X6.6258Y-2.9732
T4
X5.1734Y-2.1654
X5.1734Y-2.2654
X5.9207Y-2.7354
X6.0207Y-2.7354
X6.5325Y-3.2959
X6.5325Y-3.3959
X6.5325Y-3.6207
X6.5325Y-3.7207
X6.5325Y-3.9642
X6.5325Y-4.0642
X6.5325Y-4.2998
X6.5325Y-4.3998
T5
X4.5443Y-1.8858
X4.5443Y-1.9858
X4.5443Y-2.0858
X4.7205Y-3.4746
X4.7274Y-1.8858
X4.7274Y-1.9858
X4.7274Y-2.0858
X4.751Y-2.3713
X4.751Y-2.6705
X4.8205Y-3.4746
X4.9104Y-1.8858
X4.9104Y-1.9858
X4.9104Y-2.0858
X4.9205Y-3.4746
X5.1699Y-3.0598
X5.1699Y-3.1598
X5.1699Y-3.2598
X5.1699Y-3.3598
X5.1699Y-3.4598
X5.1699Y-3.5598
X5.1699Y-3.6598
X5.1699Y-3.7598
X5.1699Y-3.8598
X5.1699Y-3.9598
X5.1699Y-4.0598
X5.1699Y-4.1598
X5.1699Y-4.2598
X5.1699Y-4.3598
X5.1699Y-4.4598
X5.7699Y-3.0598
X5.7699Y-3.1598
X5.7699Y-3.2598
X5.7699Y-3.3598
X5.7699Y-3.4598
X5.7699Y-3.5598
X5.7699Y-3.6598
X5.7699Y-3.7598
X5.7699Y-3.8598
X5.7699Y-3.9598
X5.7699Y-4.0598
X5.7699Y-4.1598
X5.7699Y-4.2598
X5.7699Y-4.3598
X5.7699Y-4.4598
X5.9902Y-3.8949
X5.9902Y-3.9949
X5.9902Y-4.0949
X5.9902Y-4.1949
T6
X4.6132Y-2.9224
X4.6132Y-3.1783
X4.7904Y-2.9224
X4.7904Y-3.1783
X5.4982Y-2.1949
X5.4982Y-2.2949
X5.4982Y-2.3949
T7
X5.9116Y-1.9488
X6.0116Y-1.9488
X6.2667Y-1.9382
X6.3667Y-1.9382
X6.5719Y-1.9382
X6.6719Y-1.9382
M30
